<?xml version="1.0" encoding="utf-8"?>
<!-- Generator: Adobe Illustrator 16.0.3, SVG Export Plug-In . SVG Version: 6.00 Build 0)  -->
<!DOCTYPE svg PUBLIC "-//W3C//DTD SVG 1.1//EN" "http://www.w3.org/Graphics/SVG/1.1/DTD/svg11.dtd">
<svg version="1.1" id="Layer_1" xmlns="http://www.w3.org/2000/svg" xmlns:xlink="http://www.w3.org/1999/xlink" x="0px" y="0px"
	 width="43px" height="51px" viewBox="0 0 43 51" enable-background="new 0 0 43 51" xml:space="preserve">
<g>
	<g>
		<linearGradient id="SVGID_1_" gradientUnits="userSpaceOnUse" x1="21.3887" y1="50.8828" x2="21.3887" y2="0">
			<stop  offset="0" style="stop-color:#CCCCCC"/>
			<stop  offset="0.3187" style="stop-color:#C7C7C7"/>
			<stop  offset="1" style="stop-color:#BFBFBF"/>
		</linearGradient>
		<path fill="url(#SVGID_1_)" d="M3.608,50.883c-1.871,0-3.513-1.648-3.513-3.52V3.402C0.095,1.531,1.626,0,3.497,0
			c0,0,14.453,0,20.762,0c2.459,0,3.123,0.49,4.447,1.568c1.779,1.451,3.998,3.809,6.207,5.984c3.729,3.672,7.77,7.324,7.77,10.871
			c0,7.213,0,28.939,0,28.939c0,1.871-1.42,3.52-3.292,3.52H3.608z"/>
		<linearGradient id="SVGID_2_" gradientUnits="userSpaceOnUse" x1="21.3887" y1="49.9141" x2="21.3887" y2="0.8516">
			<stop  offset="0" style="stop-color:#FFFFFF"/>
			<stop  offset="0.3735" style="stop-color:#F8F8F8"/>
			<stop  offset="0.9283" style="stop-color:#E4E4E4"/>
			<stop  offset="1" style="stop-color:#E0E0E0"/>
		</linearGradient>
		<path fill="url(#SVGID_2_)" d="M38.997,16.238h-8.219c-1.559,0-2.834-1.275-2.834-2.836V3.162c0-1.559-1.275-2.311-2.834-2.311
			H3.78c-1.559,0-2.834,1.275-2.834,2.834V47.08c0,1.559,1.275,2.834,2.834,2.834h35.217c1.559,0,2.834-1.275,2.834-2.834V18.459
			C41.831,16.584,40.142,16.238,38.997,16.238z"/>
		<g>
			<linearGradient id="SVGID_3_" gradientUnits="userSpaceOnUse" x1="21.3818" y1="18.2236" x2="21.3818" y2="0">
				<stop  offset="0" style="stop-color:#F26F21"/>
				<stop  offset="1" style="stop-color:#F58A1F"/>
			</linearGradient>
			<path fill="url(#SVGID_3_)" d="M42.669,18.224c-0.148-3.484-4.098-7.068-7.756-10.671c-2.209-2.176-4.428-4.533-6.207-5.984
				C27.382,0.49,26.718,0,24.259,0C17.95,0,3.497,0,3.497,0C1.626,0,0.095,1.531,0.095,3.402v14.821H42.669z"/>
			<g>
				<linearGradient id="SVGID_4_" gradientUnits="userSpaceOnUse" x1="28.8115" y1="13.8721" x2="34.9203" y2="7.7633">
					<stop  offset="0" style="stop-color:#FFD77D"/>
					<stop  offset="0.8834" style="stop-color:#FCB94D"/>
					<stop  offset="1" style="stop-color:#F89C1C"/>
				</linearGradient>
				<path fill="url(#SVGID_4_)" d="M42.669,17.973c-0.061-1.941-0.529-3.271-1.861-4.871C37.86,9.562,32.526,4.926,28.915,1.523
					c-1.426-1.34-2.666-1.516-4.561-1.521C24.298,0,24.259,0,24.259,0c2.027,0,3.686,0.447,3.686,2.475v9.428
					c0,1.561,1.275,2.836,2.834,2.836h8.219c2.02,0,3.67,1.645,3.684,3.66c0,0.008,0.002,0.016,0.002,0.023c0-0.002,0-0.004,0-0.004
					c0,0.002,0,0.004,0,0.006C42.683,18.424,42.688,18.25,42.669,17.973z"/>
				<linearGradient id="SVGID_5_" gradientUnits="userSpaceOnUse" x1="29.1514" y1="13.5322" x2="34.9409" y2="7.7427">
					<stop  offset="0.2577" style="stop-color:#FCB813"/>
					<stop  offset="0.5979" style="stop-color:#FBB415"/>
					<stop  offset="0.9456" style="stop-color:#F9A819"/>
					<stop  offset="1" style="stop-color:#F9A51A"/>
				</linearGradient>
				<path fill="url(#SVGID_5_)" d="M42.669,17.973c-0.061-1.941-0.529-3.271-1.861-4.871C37.86,9.562,32.526,4.926,28.915,1.523
					c-1.426-1.34-2.666-1.516-4.561-1.521C24.298,0,24.259,0,24.259,0c2.027,0,4.27,0.521,4.27,2.834v9.068
					c0,1.561,1.484,2.836,3.043,2.836h7.426c2.02,0,3.67,1.645,3.684,3.66c0,0.008,0.002,0.016,0.002,0.023c0-0.002,0-0.004,0-0.004
					c0,0.002,0,0.004,0,0.006C42.683,18.424,42.688,18.25,42.669,17.973z"/>
			</g>
			<linearGradient id="SVGID_6_" gradientUnits="userSpaceOnUse" x1="21.375" y1="18.2236" x2="21.375" y2="0.8516">
				<stop  offset="0" style="stop-color:#F6921E"/>
				<stop  offset="1" style="stop-color:#F9A51A"/>
			</linearGradient>
			<path fill="url(#SVGID_6_)" d="M41.804,18.224c-0.145-1.655-1.715-1.985-2.807-1.985h-8.219c-1.559,0-2.834-1.275-2.834-2.836
				V3.162c0-1.559-1.275-2.311-2.834-2.311H3.78c-1.559,0-2.834,1.275-2.834,2.834v14.538H41.804z"/>
		</g>
	</g>
</g>
<g>
	<linearGradient id="SVGID_7_" gradientUnits="userSpaceOnUse" x1="8.5298" y1="13.8086" x2="8.5298" y2="5.4443">
		<stop  offset="0" style="stop-color:#E0E0E0"/>
		<stop  offset="0.288" style="stop-color:#F0F0F0"/>
		<stop  offset="0.6289" style="stop-color:#FBFBFB"/>
		<stop  offset="1" style="stop-color:#FFFFFF"/>
	</linearGradient>
	<path fill="url(#SVGID_7_)" d="M10.532,12.755l-0.386-1.015H6.858l-0.386,1.037c-0.151,0.404-0.28,0.678-0.386,0.819
		c-0.107,0.142-0.282,0.212-0.524,0.212c-0.206,0-0.388-0.075-0.546-0.226c-0.158-0.151-0.237-0.322-0.237-0.514
		c0-0.11,0.018-0.224,0.055-0.342c0.037-0.117,0.098-0.281,0.182-0.491l2.069-5.253c0.059-0.15,0.129-0.331,0.212-0.543
		c0.083-0.212,0.171-0.387,0.265-0.527c0.094-0.14,0.217-0.253,0.37-0.339c0.153-0.087,0.341-0.13,0.566-0.13
		c0.228,0,0.418,0.043,0.571,0.13C9.22,5.66,9.343,5.771,9.437,5.908C9.531,6.044,9.61,6.19,9.674,6.347S9.821,6.712,9.92,6.973
		l2.113,5.22c0.166,0.397,0.249,0.687,0.249,0.866c0,0.188-0.079,0.359-0.235,0.516s-0.345,0.234-0.565,0.234
		c-0.129,0-0.239-0.022-0.331-0.068s-0.169-0.108-0.232-0.188s-0.129-0.2-0.201-0.364S10.584,12.88,10.532,12.755z M7.288,10.51
		h2.417L8.485,7.172L7.288,10.51z"/>
	<linearGradient id="SVGID_8_" gradientUnits="userSpaceOnUse" x1="14.5962" y1="13.8086" x2="14.5962" y2="5.4443">
		<stop  offset="0" style="stop-color:#E0E0E0"/>
		<stop  offset="0.288" style="stop-color:#F0F0F0"/>
		<stop  offset="0.6289" style="stop-color:#FBFBFB"/>
		<stop  offset="1" style="stop-color:#FFFFFF"/>
	</linearGradient>
	<path fill="url(#SVGID_8_)" d="M13.777,12.811V6.438c0-0.331,0.075-0.579,0.226-0.745c0.151-0.165,0.346-0.248,0.585-0.248
		c0.246,0,0.446,0.082,0.599,0.246c0.152,0.163,0.229,0.412,0.229,0.747v6.373c0,0.335-0.077,0.585-0.229,0.75
		c-0.153,0.166-0.353,0.248-0.599,0.248c-0.235,0-0.43-0.083-0.582-0.251C13.853,13.391,13.777,13.142,13.777,12.811z"/>
</g>
</svg>
