<?xml version="1.0" encoding="utf-8"?>
<!-- Generator: Adobe Illustrator 16.0.3, SVG Export Plug-In . SVG Version: 6.00 Build 0)  -->
<!DOCTYPE svg PUBLIC "-//W3C//DTD SVG 1.1//EN" "http://www.w3.org/Graphics/SVG/1.1/DTD/svg11.dtd">
<svg version="1.1" id="Layer_1" xmlns="http://www.w3.org/2000/svg" xmlns:xlink="http://www.w3.org/1999/xlink" x="0px" y="0px"
	 width="43px" height="51px" viewBox="0 0 43 51" enable-background="new 0 0 43 51" xml:space="preserve">
<g>
	<g>
		<linearGradient id="SVGID_1_" gradientUnits="userSpaceOnUse" x1="21.3516" y1="50.7656" x2="21.3516" y2="0">
			<stop  offset="0" style="stop-color:#CCCCCC"/>
			<stop  offset="0.3187" style="stop-color:#C7C7C7"/>
			<stop  offset="1" style="stop-color:#BFBFBF"/>
		</linearGradient>
		<path fill="url(#SVGID_1_)" d="M3.459,50.766c-1.871,0-3.401-1.531-3.401-3.402V3.402C0.058,1.531,1.588,0,3.459,0
			c0,0,14.453,0,20.763,0c2.458,0,3.122,0.49,4.446,1.568c1.779,1.451,3.999,3.809,6.208,5.984c3.728,3.672,7.77,7.324,7.77,10.871
			c0,7.213,0,28.939,0,28.939c-0.001,1.871-1.531,3.402-3.402,3.402H3.459z"/>
		<linearGradient id="SVGID_2_" gradientUnits="userSpaceOnUse" x1="21.3511" y1="49.9141" x2="21.3511" y2="0.8516">
			<stop  offset="0" style="stop-color:#FFFFFF"/>
			<stop  offset="0.3735" style="stop-color:#F8F8F8"/>
			<stop  offset="0.9283" style="stop-color:#E4E4E4"/>
			<stop  offset="1" style="stop-color:#E0E0E0"/>
		</linearGradient>
		<path fill="url(#SVGID_2_)" d="M38.96,16.238h-8.219c-1.559,0-2.834-1.275-2.834-2.836V3.162c0-1.559-1.275-2.311-2.835-2.311
			H3.742c-1.559,0-2.834,1.275-2.834,2.834V47.08c0,1.559,1.275,2.834,2.834,2.834H38.96c1.559,0,2.834-1.275,2.834-2.834V18.459
			C41.794,16.584,40.104,16.238,38.96,16.238z"/>
		<g>
			<linearGradient id="SVGID_3_" gradientUnits="userSpaceOnUse" x1="21.3447" y1="18.2236" x2="21.3447" y2="0">
				<stop  offset="0" style="stop-color:#834F90"/>
				<stop  offset="1" style="stop-color:#9F66A9"/>
			</linearGradient>
			<path fill="url(#SVGID_3_)" d="M42.632,18.224c-0.148-3.484-4.098-7.068-7.756-10.671c-2.209-2.176-4.429-4.533-6.208-5.984
				C27.344,0.49,26.68,0,24.222,0C17.912,0,3.459,0,3.459,0C1.588,0,0.058,1.531,0.058,3.402v14.821H42.632z"/>
			<g>
				<linearGradient id="SVGID_4_" gradientUnits="userSpaceOnUse" x1="28.7744" y1="13.8711" x2="34.8825" y2="7.763">
					<stop  offset="0" style="stop-color:#EACDE2"/>
					<stop  offset="0.8834" style="stop-color:#D6AED1"/>
					<stop  offset="1" style="stop-color:#A96FAE"/>
				</linearGradient>
				<path fill="url(#SVGID_4_)" d="M42.632,17.973c-0.061-1.941-0.529-3.271-1.861-4.871c-2.948-3.539-8.281-8.176-11.894-11.578
					c-1.426-1.34-2.665-1.516-4.56-1.521C24.26,0,24.222,0,24.222,0c2.027,0,3.686,0.447,3.686,2.475v9.428
					c0,1.561,1.275,2.836,2.834,2.836h8.219c2.019,0,3.669,1.645,3.683,3.66c0,0.008,0.002,0.016,0.002,0.023
					c0-0.002,0-0.004,0-0.004c0,0.002,0,0.004,0,0.006C42.645,18.424,42.65,18.25,42.632,17.973z"/>
				<linearGradient id="SVGID_5_" gradientUnits="userSpaceOnUse" x1="29.1147" y1="13.5308" x2="34.9035" y2="7.742">
					<stop  offset="0.2577" style="stop-color:#BB8BBE"/>
					<stop  offset="0.5421" style="stop-color:#B887BC"/>
					<stop  offset="0.8328" style="stop-color:#AF7BB4"/>
					<stop  offset="1" style="stop-color:#A870AE"/>
				</linearGradient>
				<path fill="url(#SVGID_5_)" d="M42.632,17.973c-0.061-1.941-0.529-3.271-1.861-4.871c-2.948-3.539-8.281-8.176-11.894-11.578
					c-1.426-1.34-2.665-1.516-4.56-1.521C24.26,0,24.222,0,24.222,0c2.027,0,4.27,0.521,4.27,2.834v9.068
					c0,1.561,1.483,2.836,3.042,2.836h7.427c2.019,0,3.669,1.645,3.683,3.66c0,0.008,0.002,0.016,0.002,0.023
					c0-0.002,0-0.004,0-0.004c0,0.002,0,0.004,0,0.006C42.645,18.424,42.65,18.25,42.632,17.973z"/>
			</g>
			<linearGradient id="SVGID_6_" gradientUnits="userSpaceOnUse" x1="21.3374" y1="18.2236" x2="21.3374" y2="0.8516">
				<stop  offset="0" style="stop-color:#9F66A9"/>
				<stop  offset="1" style="stop-color:#B27AB3"/>
			</linearGradient>
			<path fill="url(#SVGID_6_)" d="M41.767,18.224c-0.146-1.655-1.715-1.985-2.807-1.985h-8.219c-1.559,0-2.834-1.275-2.834-2.836
				V3.162c0-1.559-1.275-2.311-2.835-2.311H3.742c-1.559,0-2.834,1.275-2.834,2.834v14.538H41.767z"/>
		</g>
		<g>
			<path fill="#8C8A8A" d="M13.538,46.072c-1.004,0-1.797-0.392-2.122-1.046c-0.259-0.518-0.167-1.058-0.047-1.418
				c0.298-0.884,1.099-1.723,2.145-2.241c0.672-0.335,1.384-0.512,2.062-0.512c0.495,0,0.952,0.098,1.322,0.281l0.742,0.368v-0.828
				v-2.565v-5.338v-2.567v-2.195c0-0.967,0.963-2.005,2.103-2.271l3.937-0.908l3.939-0.908c0.176-0.041,0.35-0.062,0.516-0.062
				c0.81,0,1.355,0.473,1.355,1.178v2.192v2.566v7.208v2.672v0.068c-0.025,0.496-0.244,1.029-0.636,1.538
				c-0.409,0.527-0.972,0.979-1.627,1.304c-0.672,0.336-1.385,0.513-2.063,0.513c-1.002,0-1.795-0.393-2.121-1.049
				c-0.565-1.137,0.396-2.813,2.098-3.659c0.672-0.334,1.385-0.509,2.062-0.509c0.496,0,0.954,0.096,1.324,0.278l0.74,0.368v-0.827
				V35.14v-5.053c0-1.487-1.037-2.565-2.467-2.565c-0.217,0-0.438,0.025-0.658,0.077l-2.693,0.621l-2.69,0.621
				c-1.597,0.368-2.896,2.002-2.896,3.643v7.494v1.507c0,0.653,0,1.108,0,1.155v0.079c-0.025,0.489-0.249,1.038-0.637,1.537
				c-0.408,0.53-0.97,0.98-1.626,1.307C14.929,45.896,14.216,46.072,13.538,46.072L13.538,46.072z"/>
			<linearGradient id="SVGID_7_" gradientUnits="userSpaceOnUse" x1="20.3696" y1="46.5864" x2="20.3696" y2="23.3491">
				<stop  offset="0" style="stop-color:#A054A0"/>
				<stop  offset="0.4754" style="stop-color:#A870AE"/>
				<stop  offset="0.8852" style="stop-color:#A054A0"/>
			</linearGradient>
			<path fill="url(#SVGID_7_)" d="M30.001,37.007V29.8v-2.566V25.04c0-1.206-1.123-1.934-2.498-1.616l0,0l-3.939,0.908l-3.938,0.909
				c-1.375,0.317-2.499,1.563-2.499,2.771v2.193v2.567v5.339v2.565c-1.007-0.5-2.47-0.453-3.843,0.23
				c-1.988,0.988-3.029,2.935-2.328,4.347s2.883,1.757,4.873,0.769c0.75-0.374,1.365-0.886,1.803-1.452
				c0.449-0.582,0.713-1.223,0.74-1.836c0.001,0,0.001-0.004,0.001-0.004h0.001v-0.012c0-0.007,0.001-0.037,0.001-0.068
				c0-0.027-0.001-1.26-0.001-2.672v-7.495c0-1.41,1.125-2.825,2.5-3.144l2.689-0.621l2.692-0.62
				c1.374-0.316,2.498,0.578,2.498,1.988v5.052v2.566c-1.007-0.5-2.47-0.452-3.843,0.229c-1.987,0.989-3.031,2.936-2.328,4.348
				c0.701,1.413,2.883,1.758,4.872,0.769c0.751-0.373,1.365-0.885,1.804-1.452c0.45-0.581,0.713-1.223,0.742-1.835V39.76l0,0v-0.013
				c0-0.009,0-0.038,0.001-0.069C30.003,39.649,30.001,38.417,30.001,37.007z"/>
			<linearGradient id="SVGID_8_" gradientUnits="userSpaceOnUse" x1="17.6455" y1="27.4331" x2="29.4814" y2="27.4331">
				<stop  offset="0" style="stop-color:#B87BB4"/>
				<stop  offset="1" style="stop-color:#A05AA3"/>
			</linearGradient>
			<path fill="url(#SVGID_8_)" d="M17.646,31.024v-0.506v-2.442c0-0.896,0.909-1.901,1.947-2.154l4.176-1.013l4.175-1.012
				c0.16-0.036,0.316-0.056,0.466-0.056c0.519,0,1.072,0.243,1.072,0.929v2.439v1.35c-0.523-0.862-1.424-1.409-2.486-1.409
				c-0.258,0-0.52,0.032-0.779,0.094l-2.855,0.692l-2.853,0.69C19.283,28.925,18.229,29.853,17.646,31.024L17.646,31.024z"/>
			<linearGradient id="SVGID_9_" gradientUnits="userSpaceOnUse" x1="17.6455" y1="26.1694" x2="29.4814" y2="26.1694">
				<stop  offset="0" style="stop-color:#D6AED1"/>
				<stop  offset="1" style="stop-color:#BD81B8"/>
			</linearGradient>
			<path fill="url(#SVGID_9_)" d="M28.409,23.842c-0.149,0-0.306,0.02-0.466,0.056l-4.175,1.012l-4.176,1.013
				c-1.038,0.253-1.947,1.258-1.947,2.154v0.421c0-0.896,0.909-1.903,1.947-2.155l4.176-1.012l4.175-1.012
				c0.16-0.037,0.316-0.058,0.466-0.058c0.519,0,1.072,0.244,1.072,0.93v-0.42C29.481,24.085,28.928,23.842,28.409,23.842z"/>
			<linearGradient id="SVGID_10_" gradientUnits="userSpaceOnUse" x1="14.1021" y1="43.915" x2="14.1021" y2="40.7463">
				<stop  offset="0" style="stop-color:#B87BB4"/>
				<stop  offset="1" style="stop-color:#D6AED1"/>
			</linearGradient>
			<path fill="url(#SVGID_10_)" d="M15.786,40.948c-0.705,0.028-1.461,0.187-2.185,0.536c-0.896,0.437-1.595,1.073-1.999,1.734
				c-0.316,0.515,0.039,0.74,0.223,0.772s0.38,0.05,0.586,0.05c0.707,0,1.463-0.187,2.186-0.536
				c0.885-0.432,1.627-1.042,2.026-1.756C16.846,41.353,16.78,40.908,15.786,40.948z"/>
			<linearGradient id="SVGID_11_" gradientUnits="userSpaceOnUse" x1="25.7026" y1="40.9902" x2="25.7026" y2="37.8205">
				<stop  offset="0" style="stop-color:#B87BB4"/>
				<stop  offset="1" style="stop-color:#D6AED1"/>
			</linearGradient>
			<path fill="url(#SVGID_11_)" d="M27.388,38.022c-0.708,0.03-1.463,0.187-2.187,0.539c-0.896,0.434-1.595,1.07-1.997,1.731
				c-0.318,0.516,0.037,0.74,0.221,0.772c0.184,0.033,0.38,0.051,0.586,0.051c0.707,0,1.463-0.186,2.186-0.536
				c0.886-0.433,1.627-1.041,2.027-1.756C28.445,38.429,28.38,37.983,27.388,38.022z"/>
		</g>
	</g>
	<g>
		<linearGradient id="SVGID_12_" gradientUnits="userSpaceOnUse" x1="7.5239" y1="13.8096" x2="7.5239" y2="5.4453">
			<stop  offset="0" style="stop-color:#E0E0E0"/>
			<stop  offset="0.288" style="stop-color:#F0F0F0"/>
			<stop  offset="0.6289" style="stop-color:#FBFBFB"/>
			<stop  offset="1" style="stop-color:#FFFFFF"/>
		</linearGradient>
		<path fill="url(#SVGID_12_)" d="M9.526,12.756L9.14,11.741H5.852l-0.386,1.037c-0.151,0.405-0.28,0.678-0.386,0.819
			c-0.107,0.142-0.282,0.212-0.524,0.212c-0.206,0-0.388-0.075-0.546-0.226s-0.237-0.322-0.237-0.513
			c0-0.11,0.018-0.224,0.055-0.342c0.037-0.118,0.098-0.282,0.182-0.491l2.069-5.253c0.059-0.15,0.129-0.332,0.212-0.543
			c0.083-0.211,0.171-0.387,0.265-0.527c0.094-0.14,0.217-0.253,0.37-0.339c0.153-0.086,0.341-0.129,0.566-0.129
			c0.228,0,0.418,0.043,0.571,0.129c0.153,0.086,0.276,0.198,0.37,0.334s0.173,0.282,0.237,0.438
			c0.064,0.157,0.146,0.365,0.246,0.626l2.113,5.22c0.166,0.397,0.249,0.686,0.249,0.866c0,0.188-0.079,0.359-0.235,0.516
			s-0.345,0.234-0.565,0.234c-0.129,0-0.239-0.023-0.331-0.069s-0.169-0.108-0.232-0.188s-0.129-0.2-0.201-0.364
			C9.64,13.025,9.578,12.881,9.526,12.756z M6.282,10.51h2.417L7.479,7.172L6.282,10.51z"/>
		<linearGradient id="SVGID_13_" gradientUnits="userSpaceOnUse" x1="13.2646" y1="13.8096" x2="13.2646" y2="5.4453">
			<stop  offset="0" style="stop-color:#E0E0E0"/>
			<stop  offset="0.288" style="stop-color:#F0F0F0"/>
			<stop  offset="0.6289" style="stop-color:#FBFBFB"/>
			<stop  offset="1" style="stop-color:#FFFFFF"/>
		</linearGradient>
		<path fill="url(#SVGID_13_)" d="M12.445,12.811V6.438c0-0.331,0.075-0.58,0.226-0.745s0.346-0.248,0.585-0.248
			c0.246,0,0.446,0.082,0.599,0.246c0.152,0.164,0.229,0.413,0.229,0.748v6.373c0,0.335-0.077,0.585-0.229,0.75
			c-0.153,0.166-0.353,0.248-0.599,0.248c-0.235,0-0.43-0.083-0.582-0.251C12.521,13.392,12.445,13.142,12.445,12.811z"/>
		<linearGradient id="SVGID_14_" gradientUnits="userSpaceOnUse" x1="18.8989" y1="13.8096" x2="18.8989" y2="5.583">
			<stop  offset="0" style="stop-color:#E0E0E0"/>
			<stop  offset="0.288" style="stop-color:#F0F0F0"/>
			<stop  offset="0.6289" style="stop-color:#FBFBFB"/>
			<stop  offset="1" style="stop-color:#FFFFFF"/>
		</linearGradient>
		<path fill="url(#SVGID_14_)" d="M20.946,6.847h-3.228v2.069h2.698c0.25,0,0.437,0.056,0.56,0.168
			c0.123,0.112,0.185,0.262,0.185,0.45S21.098,9.87,20.973,9.98s-0.311,0.166-0.557,0.166h-2.698v2.665
			c0,0.338-0.076,0.59-0.229,0.753c-0.152,0.164-0.348,0.245-0.587,0.245c-0.243,0-0.44-0.083-0.593-0.248s-0.229-0.416-0.229-0.75
			V6.587c0-0.235,0.035-0.428,0.105-0.577s0.179-0.257,0.328-0.326c0.149-0.068,0.339-0.102,0.571-0.102h3.862
			c0.261,0,0.455,0.058,0.582,0.174s0.19,0.268,0.19,0.455c0,0.191-0.063,0.345-0.19,0.461S21.207,6.847,20.946,6.847z"/>
	</g>
</g>
</svg>
