<?xml version="1.0" encoding="utf-8"?>
<!-- Generator: Adobe Illustrator 16.0.3, SVG Export Plug-In . SVG Version: 6.00 Build 0)  -->
<!DOCTYPE svg PUBLIC "-//W3C//DTD SVG 1.1//EN" "http://www.w3.org/Graphics/SVG/1.1/DTD/svg11.dtd">
<svg version="1.1" id="Layer_1" xmlns="http://www.w3.org/2000/svg" xmlns:xlink="http://www.w3.org/1999/xlink" x="0px" y="0px"
	 width="43px" height="51px" viewBox="0 0 43 51" enable-background="new 0 0 43 51" xml:space="preserve">
<g>
	<g>
		<linearGradient id="SVGID_1_" gradientUnits="userSpaceOnUse" x1="21.2944" y1="50.7656" x2="21.2944" y2="0">
			<stop  offset="0" style="stop-color:#CCCCCC"/>
			<stop  offset="0.3187" style="stop-color:#C7C7C7"/>
			<stop  offset="1" style="stop-color:#BFBFBF"/>
		</linearGradient>
		<path fill="url(#SVGID_1_)" d="M3.401,50.766C1.53,50.766,0,49.234,0,47.363V3.402C0,1.531,1.53,0,3.401,0c0,0,14.453,0,20.763,0
			c2.458,0,3.122,0.49,4.446,1.568c1.779,1.451,3.999,3.809,6.208,5.984c3.728,3.672,7.77,7.324,7.77,10.871
			c0,7.213,0,28.939,0,28.939c-0.001,1.871-1.531,3.402-3.402,3.402H3.401z"/>
		<linearGradient id="SVGID_2_" gradientUnits="userSpaceOnUse" x1="21.2935" y1="49.9141" x2="21.2935" y2="0.8516">
			<stop  offset="0" style="stop-color:#FFFFFF"/>
			<stop  offset="0.3735" style="stop-color:#F8F8F8"/>
			<stop  offset="0.9283" style="stop-color:#E4E4E4"/>
			<stop  offset="1" style="stop-color:#E0E0E0"/>
		</linearGradient>
		<path fill="url(#SVGID_2_)" d="M38.902,16.238h-8.219c-1.559,0-2.834-1.275-2.834-2.836V3.162c0-1.559-1.275-2.311-2.835-2.311
			H3.685c-1.559,0-2.834,1.275-2.834,2.834V47.08c0,1.559,1.275,2.834,2.834,2.834h35.218c1.559,0,2.834-1.275,2.834-2.834V18.459
			C41.736,16.584,40.047,16.238,38.902,16.238z"/>
		<g>
			<linearGradient id="SVGID_3_" gradientUnits="userSpaceOnUse" x1="21.2876" y1="18.2236" x2="21.2876" y2="0">
				<stop  offset="0" style="stop-color:#834F90"/>
				<stop  offset="1" style="stop-color:#9F66A9"/>
			</linearGradient>
			<path fill="url(#SVGID_3_)" d="M42.574,18.224c-0.148-3.484-4.098-7.068-7.756-10.671C32.609,5.377,30.39,3.02,28.61,1.568
				C27.286,0.49,26.622,0,24.164,0C17.854,0,3.401,0,3.401,0C1.53,0,0,1.531,0,3.402v14.821H42.574z"/>
			<g>
				<linearGradient id="SVGID_4_" gradientUnits="userSpaceOnUse" x1="28.7168" y1="13.8716" x2="34.8251" y2="7.7633">
					<stop  offset="0" style="stop-color:#EACDE2"/>
					<stop  offset="0.8834" style="stop-color:#D6AED1"/>
					<stop  offset="1" style="stop-color:#A96FAE"/>
				</linearGradient>
				<path fill="url(#SVGID_4_)" d="M42.574,17.973c-0.061-1.941-0.529-3.271-1.861-4.871c-2.948-3.539-8.281-8.176-11.894-11.578
					c-1.426-1.34-2.665-1.516-4.56-1.521C24.202,0,24.164,0,24.164,0c2.027,0,3.686,0.447,3.686,2.475v9.428
					c0,1.561,1.275,2.836,2.834,2.836h8.219c2.019,0,3.669,1.645,3.683,3.66c0,0.008,0.002,0.016,0.002,0.023
					c0-0.002,0-0.004,0-0.004c0,0.002,0,0.004,0,0.006C42.587,18.424,42.593,18.25,42.574,17.973z"/>
				<linearGradient id="SVGID_5_" gradientUnits="userSpaceOnUse" x1="29.0576" y1="13.5312" x2="34.8466" y2="7.7422">
					<stop  offset="0.2577" style="stop-color:#BB8BBE"/>
					<stop  offset="0.5421" style="stop-color:#B887BC"/>
					<stop  offset="0.8328" style="stop-color:#AF7BB4"/>
					<stop  offset="1" style="stop-color:#A870AE"/>
				</linearGradient>
				<path fill="url(#SVGID_5_)" d="M42.574,17.973c-0.061-1.941-0.529-3.271-1.861-4.871c-2.948-3.539-8.281-8.176-11.894-11.578
					c-1.426-1.34-2.665-1.516-4.56-1.521C24.202,0,24.164,0,24.164,0c2.027,0,4.27,0.521,4.27,2.834v9.068
					c0,1.561,1.483,2.836,3.042,2.836h7.427c2.019,0,3.669,1.645,3.683,3.66c0,0.008,0.002,0.016,0.002,0.023
					c0-0.002,0-0.004,0-0.004c0,0.002,0,0.004,0,0.006C42.587,18.424,42.593,18.25,42.574,17.973z"/>
			</g>
			<linearGradient id="SVGID_6_" gradientUnits="userSpaceOnUse" x1="21.2798" y1="18.2236" x2="21.2798" y2="0.8516">
				<stop  offset="0" style="stop-color:#9F66A9"/>
				<stop  offset="1" style="stop-color:#B27AB3"/>
			</linearGradient>
			<path fill="url(#SVGID_6_)" d="M41.709,18.224c-0.146-1.655-1.715-1.985-2.807-1.985h-8.219c-1.559,0-2.834-1.275-2.834-2.836
				V3.162c0-1.559-1.275-2.311-2.835-2.311H3.685c-1.559,0-2.834,1.275-2.834,2.834v14.538H41.709z"/>
		</g>
		<g>
			<path fill="#8C8A8A" d="M13.48,46.072c-1.004,0-1.797-0.392-2.122-1.046c-0.259-0.518-0.167-1.058-0.047-1.418
				c0.298-0.884,1.099-1.723,2.145-2.241c0.672-0.335,1.384-0.512,2.062-0.512c0.495,0,0.952,0.098,1.322,0.281l0.742,0.368v-0.828
				v-2.565v-5.338v-2.567v-2.195c0-0.967,0.963-2.005,2.103-2.271l3.937-0.908l3.939-0.908c0.176-0.041,0.35-0.062,0.516-0.062
				c0.81,0,1.355,0.473,1.355,1.178v2.192v2.566v7.208v2.672v0.068c-0.025,0.496-0.244,1.029-0.636,1.538
				c-0.409,0.527-0.972,0.979-1.627,1.304c-0.672,0.336-1.385,0.513-2.063,0.513c-1.002,0-1.795-0.393-2.121-1.049
				c-0.565-1.137,0.396-2.813,2.098-3.659c0.672-0.334,1.385-0.509,2.062-0.509c0.496,0,0.954,0.096,1.324,0.278l0.74,0.368v-0.827
				V35.14v-5.053c0-1.487-1.037-2.565-2.467-2.565c-0.217,0-0.438,0.025-0.658,0.077l-2.693,0.621l-2.69,0.621
				c-1.597,0.368-2.896,2.002-2.896,3.643v7.494v1.507c0,0.653,0,1.108,0,1.155v0.079c-0.025,0.489-0.249,1.038-0.637,1.537
				c-0.408,0.53-0.97,0.98-1.626,1.307C14.871,45.896,14.158,46.072,13.48,46.072L13.48,46.072z"/>
			<linearGradient id="SVGID_7_" gradientUnits="userSpaceOnUse" x1="20.312" y1="46.5864" x2="20.312" y2="23.3491">
				<stop  offset="0" style="stop-color:#A054A0"/>
				<stop  offset="0.4754" style="stop-color:#A870AE"/>
				<stop  offset="0.8852" style="stop-color:#A054A0"/>
			</linearGradient>
			<path fill="url(#SVGID_7_)" d="M29.943,37.007V29.8v-2.566V25.04c0-1.206-1.123-1.934-2.498-1.616l0,0l-3.939,0.908l-3.938,0.909
				c-1.375,0.317-2.499,1.563-2.499,2.771v2.193v2.567v5.339v2.565c-1.007-0.5-2.47-0.453-3.843,0.23
				c-1.988,0.988-3.029,2.935-2.328,4.347s2.883,1.757,4.873,0.769c0.75-0.374,1.365-0.886,1.803-1.452
				c0.449-0.582,0.713-1.223,0.74-1.836c0.001,0,0.001-0.004,0.001-0.004h0.001v-0.012c0-0.007,0.001-0.037,0.001-0.068
				c0-0.027-0.001-1.26-0.001-2.672v-7.495c0-1.41,1.125-2.825,2.5-3.144l2.689-0.621l2.692-0.62
				c1.374-0.316,2.498,0.578,2.498,1.988v5.052v2.566c-1.007-0.5-2.47-0.452-3.843,0.229c-1.987,0.989-3.031,2.936-2.328,4.348
				c0.701,1.413,2.883,1.758,4.872,0.769c0.751-0.373,1.365-0.885,1.804-1.452c0.45-0.581,0.713-1.223,0.742-1.835V39.76l0,0v-0.013
				c0-0.009,0-0.038,0.001-0.069C29.945,39.649,29.943,38.417,29.943,37.007z"/>
			<linearGradient id="SVGID_8_" gradientUnits="userSpaceOnUse" x1="17.5879" y1="27.4331" x2="29.4238" y2="27.4331">
				<stop  offset="0" style="stop-color:#B87BB4"/>
				<stop  offset="1" style="stop-color:#A05AA3"/>
			</linearGradient>
			<path fill="url(#SVGID_8_)" d="M17.588,31.024v-0.506v-2.442c0-0.896,0.909-1.901,1.947-2.154l4.176-1.013l4.175-1.012
				c0.16-0.036,0.316-0.056,0.466-0.056c0.519,0,1.072,0.243,1.072,0.929v2.439v1.35C28.9,27.697,28,27.15,26.938,27.15
				c-0.258,0-0.52,0.032-0.779,0.094l-2.855,0.692l-2.853,0.69C19.226,28.925,18.172,29.853,17.588,31.024L17.588,31.024z"/>
			<linearGradient id="SVGID_9_" gradientUnits="userSpaceOnUse" x1="17.5879" y1="26.1694" x2="29.4238" y2="26.1694">
				<stop  offset="0" style="stop-color:#D6AED1"/>
				<stop  offset="1" style="stop-color:#BD81B8"/>
			</linearGradient>
			<path fill="url(#SVGID_9_)" d="M28.352,23.842c-0.149,0-0.306,0.02-0.466,0.056l-4.175,1.012l-4.176,1.013
				c-1.038,0.253-1.947,1.258-1.947,2.154v0.421c0-0.896,0.909-1.903,1.947-2.155l4.176-1.012l4.175-1.012
				c0.16-0.037,0.316-0.058,0.466-0.058c0.519,0,1.072,0.244,1.072,0.93v-0.42C29.424,24.085,28.87,23.842,28.352,23.842z"/>
			<linearGradient id="SVGID_10_" gradientUnits="userSpaceOnUse" x1="14.0444" y1="43.915" x2="14.0444" y2="40.7463">
				<stop  offset="0" style="stop-color:#B87BB4"/>
				<stop  offset="1" style="stop-color:#D6AED1"/>
			</linearGradient>
			<path fill="url(#SVGID_10_)" d="M15.729,40.948c-0.705,0.028-1.461,0.187-2.185,0.536c-0.896,0.437-1.595,1.073-1.999,1.734
				c-0.316,0.515,0.039,0.74,0.223,0.772s0.38,0.05,0.586,0.05c0.707,0,1.463-0.187,2.186-0.536
				c0.885-0.432,1.627-1.042,2.026-1.756C16.788,41.353,16.723,40.908,15.729,40.948z"/>
			<linearGradient id="SVGID_11_" gradientUnits="userSpaceOnUse" x1="25.6445" y1="40.9902" x2="25.6445" y2="37.8205">
				<stop  offset="0" style="stop-color:#B87BB4"/>
				<stop  offset="1" style="stop-color:#D6AED1"/>
			</linearGradient>
			<path fill="url(#SVGID_11_)" d="M27.33,38.022c-0.708,0.03-1.463,0.187-2.187,0.539c-0.896,0.434-1.595,1.07-1.997,1.731
				c-0.318,0.516,0.037,0.74,0.221,0.772c0.184,0.033,0.38,0.051,0.586,0.051c0.707,0,1.463-0.186,2.186-0.536
				c0.886-0.433,1.627-1.041,2.027-1.756C28.388,38.429,28.322,37.983,27.33,38.022z"/>
		</g>
	</g>
</g>
</svg>
