<?xml version="1.0" encoding="utf-8"?>
<!-- Generator: Adobe Illustrator 16.0.3, SVG Export Plug-In . SVG Version: 6.00 Build 0)  -->
<!DOCTYPE svg PUBLIC "-//W3C//DTD SVG 1.1//EN" "http://www.w3.org/Graphics/SVG/1.1/DTD/svg11.dtd">
<svg version="1.1" id="Layer_1" xmlns="http://www.w3.org/2000/svg" xmlns:xlink="http://www.w3.org/1999/xlink" x="0px" y="0px"
	 width="43px" height="51px" viewBox="0 0 43 51" enable-background="new 0 0 43 51" xml:space="preserve">
<g>
	<g>
		<linearGradient id="SVGID_1_" gradientUnits="userSpaceOnUse" x1="21.2944" y1="50.7656" x2="21.2944" y2="0">
			<stop  offset="0" style="stop-color:#CCCCCC"/>
			<stop  offset="0.3187" style="stop-color:#C7C7C7"/>
			<stop  offset="1" style="stop-color:#BFBFBF"/>
		</linearGradient>
		<path fill="url(#SVGID_1_)" d="M3.402,50.766C1.531,50.766,0,49.234,0,47.363V3.402C0,1.531,1.531,0,3.402,0
			c0,0,14.453,0,20.762,0c2.459,0,3.123,0.49,4.447,1.568c1.779,1.451,3.998,3.809,6.207,5.984c3.729,3.672,7.77,7.324,7.77,10.871
			c0,7.213,0,28.939,0,28.939c0,1.871-1.531,3.402-3.402,3.402H3.402z"/>
		<linearGradient id="SVGID_2_" gradientUnits="userSpaceOnUse" x1="21.2944" y1="49.9141" x2="21.2944" y2="0.8516">
			<stop  offset="0" style="stop-color:#F2F2F2"/>
			<stop  offset="0.3204" style="stop-color:#EBEBEB"/>
			<stop  offset="0.7962" style="stop-color:#D7D7D7"/>
			<stop  offset="1" style="stop-color:#CCCCCC"/>
		</linearGradient>
		<path fill="url(#SVGID_2_)" d="M38.902,16.238h-8.219c-1.559,0-2.834-1.275-2.834-2.836V3.162c0-1.559-1.275-2.311-2.834-2.311
			H3.686c-1.559,0-2.834,1.275-2.834,2.834V47.08c0,1.559,1.275,2.834,2.834,2.834h35.217c1.559,0,2.834-1.275,2.834-2.834V18.459
			C41.736,16.584,40.047,16.238,38.902,16.238z"/>
		<g>
			<g>
				<rect x="0.851" y="20.178" fill="#FFFFFF" width="3.716" height="3.717"/>
				<rect x="4.566" y="23.895" fill="#FFFFFF" width="3.717" height="3.718"/>
			</g>
			<g>
				<rect x="8.283" y="20.178" fill="#FFFFFF" width="3.719" height="3.717"/>
				<rect x="12.002" y="23.895" fill="#FFFFFF" width="3.717" height="3.718"/>
			</g>
			<g>
				<rect x="15.719" y="20.178" fill="#FFFFFF" width="3.717" height="3.717"/>
				<rect x="19.436" y="23.895" fill="#FFFFFF" width="3.717" height="3.718"/>
			</g>
			<g>
				<rect x="23.152" y="20.178" fill="#FFFFFF" width="3.717" height="3.717"/>
				<rect x="26.869" y="23.895" fill="#FFFFFF" width="3.717" height="3.718"/>
			</g>
			<g>
				<rect x="0.851" y="27.612" fill="#FFFFFF" width="3.716" height="3.717"/>
				<rect x="4.566" y="31.329" fill="#FFFFFF" width="3.717" height="3.718"/>
			</g>
			<g>
				<rect x="8.283" y="27.612" fill="#FFFFFF" width="3.719" height="3.717"/>
				<rect x="12.002" y="31.329" fill="#FFFFFF" width="3.717" height="3.718"/>
			</g>
			<g>
				<rect x="15.719" y="27.612" fill="#FFFFFF" width="3.717" height="3.717"/>
				<rect x="19.436" y="31.329" fill="#FFFFFF" width="3.717" height="3.718"/>
			</g>
			<g>
				<rect x="23.152" y="27.612" fill="#FFFFFF" width="3.717" height="3.717"/>
				<rect x="26.869" y="31.329" fill="#FFFFFF" width="3.717" height="3.718"/>
			</g>
			<g>
				<rect x="0.851" y="35.047" fill="#FFFFFF" width="3.716" height="3.716"/>
				<rect x="4.566" y="38.763" fill="#FFFFFF" width="3.717" height="3.717"/>
			</g>
			<g>
				<rect x="8.283" y="35.047" fill="#FFFFFF" width="3.719" height="3.716"/>
				<rect x="12.002" y="38.763" fill="#FFFFFF" width="3.717" height="3.717"/>
			</g>
			<g>
				<rect x="15.719" y="35.047" fill="#FFFFFF" width="3.717" height="3.716"/>
				<rect x="19.436" y="38.763" fill="#FFFFFF" width="3.717" height="3.717"/>
			</g>
			<g>
				<rect x="23.152" y="35.047" fill="#FFFFFF" width="3.717" height="3.716"/>
				<rect x="26.869" y="38.763" fill="#FFFFFF" width="3.717" height="3.717"/>
			</g>
			<g>
				<rect x="0.851" y="42.479" fill="#FFFFFF" width="3.716" height="3.718"/>
				<rect x="4.566" y="46.197" fill="#FFFFFF" width="3.717" height="3.717"/>
			</g>
			<g>
				<rect x="8.283" y="42.479" fill="#FFFFFF" width="3.719" height="3.718"/>
				<rect x="12.002" y="46.197" fill="#FFFFFF" width="3.717" height="3.717"/>
			</g>
			<g>
				<rect x="15.719" y="42.479" fill="#FFFFFF" width="3.717" height="3.718"/>
				<rect x="19.436" y="46.197" fill="#FFFFFF" width="3.717" height="3.717"/>
			</g>
			<g>
				<rect x="23.152" y="42.479" fill="#FFFFFF" width="3.717" height="3.718"/>
				<rect x="26.869" y="46.197" fill="#FFFFFF" width="3.717" height="3.717"/>
			</g>
			<g>
				<rect x="30.586" y="20.178" fill="#FFFFFF" width="3.717" height="3.717"/>
				<rect x="34.303" y="23.895" fill="#FFFFFF" width="3.717" height="3.718"/>
				<rect x="4.566" y="16.46" fill="#FFFFFF" width="3.717" height="3.718"/>
				<rect x="12.002" y="16.46" fill="#FFFFFF" width="3.717" height="3.718"/>
				<rect x="19.436" y="16.46" fill="#FFFFFF" width="3.717" height="3.718"/>
				<rect x="26.869" y="16.46" fill="#FFFFFF" width="3.717" height="3.718"/>
				<rect x="34.303" y="16.46" fill="#FFFFFF" width="3.717" height="3.718"/>
			</g>
			<g>
				<rect x="30.586" y="27.612" fill="#FFFFFF" width="3.717" height="3.717"/>
				<rect x="34.303" y="31.329" fill="#FFFFFF" width="3.717" height="3.718"/>
			</g>
			<g>
				<rect x="30.586" y="35.047" fill="#FFFFFF" width="3.717" height="3.716"/>
				<rect x="34.303" y="38.763" fill="#FFFFFF" width="3.717" height="3.717"/>
			</g>
			<g>
				<rect x="30.586" y="42.479" fill="#FFFFFF" width="3.717" height="3.718"/>
				<rect x="34.303" y="46.197" fill="#FFFFFF" width="3.717" height="3.717"/>
			</g>
			<g>
				<rect x="38.02" y="20.178" fill="#FFFFFF" width="3.717" height="3.717"/>
			</g>
			<g>
				<rect x="38.02" y="27.612" fill="#FFFFFF" width="3.717" height="3.717"/>
			</g>
			<g>
				<rect x="38.02" y="35.047" fill="#FFFFFF" width="3.717" height="3.716"/>
			</g>
			<g>
				<rect x="38.02" y="42.479" fill="#FFFFFF" width="3.717" height="3.718"/>
			</g>
		</g>
		<g>
			<linearGradient id="SVGID_3_" gradientUnits="userSpaceOnUse" x1="21.2876" y1="18.2236" x2="21.2876" y2="0">
				<stop  offset="0" style="stop-color:#F26F21"/>
				<stop  offset="1" style="stop-color:#F58A1F"/>
			</linearGradient>
			<path fill="url(#SVGID_3_)" d="M42.574,18.224c-0.148-3.484-4.098-7.068-7.756-10.671c-2.209-2.176-4.428-4.533-6.207-5.984
				C27.287,0.49,26.623,0,24.164,0C17.855,0,3.402,0,3.402,0C1.531,0,0,1.531,0,3.402v14.821H42.574z"/>
			<g>
				<linearGradient id="SVGID_4_" gradientUnits="userSpaceOnUse" x1="28.7158" y1="13.8721" x2="34.8248" y2="7.7631">
					<stop  offset="0" style="stop-color:#FFD77D"/>
					<stop  offset="0.8834" style="stop-color:#FCB94D"/>
					<stop  offset="1" style="stop-color:#F89C1C"/>
				</linearGradient>
				<path fill="url(#SVGID_4_)" d="M42.574,17.973c-0.061-1.941-0.529-3.271-1.861-4.871C37.766,9.562,32.432,4.926,28.82,1.523
					c-1.426-1.34-2.666-1.516-4.561-1.521C24.203,0,24.164,0,24.164,0c2.027,0,3.686,0.447,3.686,2.475v9.428
					c0,1.561,1.275,2.836,2.834,2.836h8.219c2.02,0,3.67,1.645,3.684,3.66c0,0.008,0.002,0.016,0.002,0.023c0-0.002,0-0.004,0-0.004
					c0,0.002,0,0.004,0,0.006C42.588,18.424,42.594,18.25,42.574,17.973z"/>
				<linearGradient id="SVGID_5_" gradientUnits="userSpaceOnUse" x1="29.0557" y1="13.5322" x2="34.8452" y2="7.7427">
					<stop  offset="0.2577" style="stop-color:#FCB813"/>
					<stop  offset="0.5979" style="stop-color:#FBB415"/>
					<stop  offset="0.9456" style="stop-color:#F9A819"/>
					<stop  offset="1" style="stop-color:#F9A51A"/>
				</linearGradient>
				<path fill="url(#SVGID_5_)" d="M42.574,17.973c-0.061-1.941-0.529-3.271-1.861-4.871C37.766,9.562,32.432,4.926,28.82,1.523
					c-1.426-1.34-2.666-1.516-4.561-1.521C24.203,0,24.164,0,24.164,0c2.027,0,4.27,0.521,4.27,2.834v9.068
					c0,1.561,1.484,2.836,3.043,2.836h7.426c2.02,0,3.67,1.645,3.684,3.66c0,0.008,0.002,0.016,0.002,0.023c0-0.002,0-0.004,0-0.004
					c0,0.002,0,0.004,0,0.006C42.588,18.424,42.594,18.25,42.574,17.973z"/>
			</g>
			<linearGradient id="SVGID_6_" gradientUnits="userSpaceOnUse" x1="21.2808" y1="18.2236" x2="21.2808" y2="0.8516">
				<stop  offset="0" style="stop-color:#F6921E"/>
				<stop  offset="1" style="stop-color:#F9A51A"/>
			</linearGradient>
			<path fill="url(#SVGID_6_)" d="M41.709,18.224c-0.145-1.655-1.715-1.985-2.807-1.985h-8.219c-1.559,0-2.834-1.275-2.834-2.836
				V3.162c0-1.559-1.275-2.311-2.834-2.311H3.686c-1.559,0-2.834,1.275-2.834,2.834v14.538H41.709z"/>
		</g>
		<g>
			<linearGradient id="SVGID_7_" gradientUnits="userSpaceOnUse" x1="20.7109" y1="46.8018" x2="20.7109" y2="21.7119">
				<stop  offset="0" style="stop-color:#F399C0"/>
				<stop  offset="0.4669" style="stop-color:#F5ADCD"/>
				<stop  offset="1" style="stop-color:#F8C9DE"/>
			</linearGradient>
			<path fill="url(#SVGID_7_)" d="M18.828,46.802c-0.42,0-0.84-0.053-1.248-0.158c-0.809-0.209-1.541-0.613-2.176-1.199
				c-0.82-0.654-1.43-1.633-1.727-2.777c-0.531,0.115-1.047,0.174-1.543,0.174c-1.523,0-2.688-0.547-3.273-1.541
				c-0.338-0.57-0.451-1.24-0.34-1.992c0.055-0.904,0.551-1.939,1.41-2.924c-1.527-1.412-2.169-3.393-1.684-5.279
				c0.209-0.807,0.611-1.535,1.197-2.166c0.668-0.838,1.674-1.453,2.852-1.744c-0.463-2.164,0.055-4.012,1.373-4.789
				c0.428-0.252,0.916-0.381,1.453-0.381c0.178,0,0.357,0.016,0.541,0.043c0.912,0.057,1.953,0.561,2.943,1.43
				c1.08-1.141,2.508-1.785,3.986-1.785c0.422,0,0.842,0.053,1.25,0.158c0.811,0.209,1.543,0.613,2.178,1.203
				c0.82,0.654,1.428,1.633,1.725,2.775c0.531-0.117,1.049-0.176,1.543-0.176c1.523,0,2.686,0.549,3.273,1.541
				c0.336,0.57,0.449,1.238,0.34,1.986c-0.053,0.906-0.551,1.941-1.412,2.93c1.527,1.412,2.17,3.391,1.684,5.279
				c-0.209,0.814-0.617,1.549-1.211,2.184c-0.666,0.828-1.666,1.436-2.838,1.725c0.463,2.164-0.053,4.012-1.371,4.791
				c-0.428,0.252-0.918,0.379-1.455,0.379c-0.172,0-0.348-0.014-0.527-0.041c-0.914-0.051-1.961-0.557-2.955-1.43
				C21.734,46.157,20.307,46.802,18.828,46.802L18.828,46.802z"/>
			<g>
				
					<linearGradient id="SVGID_8_" gradientUnits="userSpaceOnUse" x1="154.7773" y1="358.043" x2="154.7773" y2="346.2832" gradientTransform="matrix(0.8612 -0.5082 0.5082 0.8612 -295.2305 -196.5173)">
					<stop  offset="0" style="stop-color:#F7BCD6"/>
					<stop  offset="0.7232" style="stop-color:#F9D0E2"/>
					<stop  offset="1" style="stop-color:#FAD9E7"/>
				</linearGradient>
				<path fill="url(#SVGID_8_)" d="M20.076,26.312c1.65,2.797,1.625,5.867-0.055,6.859s-4.379-0.471-6.029-3.268
					c-1.65-2.799-1.627-5.869,0.055-6.861C15.725,22.052,18.426,23.515,20.076,26.312z"/>
				
					<linearGradient id="SVGID_9_" gradientUnits="userSpaceOnUse" x1="155.2129" y1="358.043" x2="155.2129" y2="346.5137" gradientTransform="matrix(0.8612 -0.5082 0.5082 0.8612 -295.2305 -196.5173)">
					<stop  offset="0" style="stop-color:#F182B3"/>
					<stop  offset="0.3446" style="stop-color:#F396BF"/>
					<stop  offset="1" style="stop-color:#F8C6DC"/>
				</linearGradient>
				<path fill="url(#SVGID_9_)" d="M20.207,26.368c1.619,2.742,1.703,5.689,0.189,6.582c-1.514,0.891-4.051-0.607-5.67-3.35
					c-1.617-2.742-1.703-5.688-0.189-6.58S18.59,23.626,20.207,26.368z"/>
				
					<linearGradient id="SVGID_10_" gradientUnits="userSpaceOnUse" x1="153.8789" y1="355.4766" x2="158.0753" y2="347.1967" gradientTransform="matrix(0.8612 -0.5082 0.5082 0.8612 -295.2305 -196.5173)">
					<stop  offset="0" style="stop-color:#F396BF"/>
					<stop  offset="0.2995" style="stop-color:#F5AACB"/>
					<stop  offset="0.8577" style="stop-color:#FAD9E7"/>
				</linearGradient>
				<path fill="url(#SVGID_10_)" d="M19.924,26.536c1.471,2.49,1.023,4.086-0.092,4.744s-2.475,0.129-3.945-2.361
					c-1.473-2.494-1.895-4.854-0.777-5.512C16.223,22.749,18.453,24.042,19.924,26.536z"/>
				<path fill="#FFFFFF" d="M18.227,33.196c-1.381-0.295-2.947-1.551-4.043-3.406c-1.357-2.301-1.561-4.785-0.605-6.037
					c-0.693,1.383-0.371,3.713,0.957,5.961C15.564,31.456,16.936,32.704,18.227,33.196L18.227,33.196z"/>
			</g>
			<g>
				
					<linearGradient id="SVGID_11_" gradientUnits="userSpaceOnUse" x1="-96.4966" y1="-109.2866" x2="-96.4966" y2="-120.1519" gradientTransform="matrix(0.9683 0.2496 -0.2496 0.9683 87.113 162.9993)">
					<stop  offset="0" style="stop-color:#F7BCD6"/>
					<stop  offset="0.7232" style="stop-color:#F9D0E2"/>
					<stop  offset="1" style="stop-color:#FAD9E7"/>
				</linearGradient>
				<path fill="url(#SVGID_11_)" d="M27.041,29.05c-0.75,2.906-3.477,4.717-6.088,4.041c-2.613-0.672-4.125-3.572-3.375-6.48
					c0.748-2.906,3.475-4.715,6.086-4.041C26.277,23.243,27.789,26.146,27.041,29.05z"/>
				
					<linearGradient id="SVGID_12_" gradientUnits="userSpaceOnUse" x1="-95.895" y1="-109.2866" x2="-95.895" y2="-119.9399" gradientTransform="matrix(0.9683 0.2496 -0.2496 0.9683 87.113 162.9993)">
					<stop  offset="0" style="stop-color:#F182B3"/>
					<stop  offset="0.3446" style="stop-color:#F396BF"/>
					<stop  offset="1" style="stop-color:#F8C6DC"/>
				</linearGradient>
				<path fill="url(#SVGID_12_)" d="M27.125,29.183c-0.734,2.848-3.236,4.666-5.59,4.059c-2.354-0.605-3.664-3.406-2.93-6.256
					c0.734-2.848,3.236-4.666,5.588-4.061C26.547,23.532,27.859,26.333,27.125,29.183z"/>
				
					<linearGradient id="SVGID_13_" gradientUnits="userSpaceOnUse" x1="-96.9639" y1="-111.436" x2="-92.922" y2="-119.411" gradientTransform="matrix(0.9683 0.2496 -0.2496 0.9683 87.113 162.9993)">
					<stop  offset="0" style="stop-color:#F396BF"/>
					<stop  offset="0.2995" style="stop-color:#F5AACB"/>
					<stop  offset="0.8577" style="stop-color:#FAD9E7"/>
				</linearGradient>
				<path fill="url(#SVGID_13_)" d="M26.686,29.069c-0.668,2.59-2.535,3.201-4.27,2.754s-2.678-1.783-2.012-4.373
					c0.668-2.59,2.309-4.312,4.041-3.865C26.18,24.032,27.354,26.479,26.686,29.069z"/>
				<path fill="#FFFFFF" d="M19.07,31.757c-1.174-1.213-1.691-3.139-1.193-5.068c0.615-2.389,2.59-4.021,4.678-4.047
					c-1.934,0.299-3.645,1.93-4.248,4.268C17.84,28.72,18.164,30.493,19.07,31.757L19.07,31.757z"/>
			</g>
			<g>
				
					<linearGradient id="SVGID_14_" gradientUnits="userSpaceOnUse" x1="-590.7554" y1="-246.9839" x2="-590.7554" y2="-258.7451" gradientTransform="matrix(0.5082 0.8612 -0.8612 0.5082 109.3151 667.8418)">
					<stop  offset="0" style="stop-color:#F7BCD6"/>
					<stop  offset="0.7232" style="stop-color:#F9D0E2"/>
					<stop  offset="1" style="stop-color:#FAD9E7"/>
				</linearGradient>
				<path fill="url(#SVGID_14_)" d="M28.656,33.62c-2.797,1.652-5.867,1.627-6.859-0.053c-0.99-1.682,0.473-4.379,3.27-6.031
					c2.797-1.648,5.867-1.623,6.859,0.055C32.916,29.272,31.453,31.97,28.656,33.62z"/>
				
					<linearGradient id="SVGID_15_" gradientUnits="userSpaceOnUse" x1="-590.3188" y1="-246.9834" x2="-590.3188" y2="-258.5137" gradientTransform="matrix(0.5082 0.8612 -0.8612 0.5082 109.3151 667.8418)">
					<stop  offset="0" style="stop-color:#F182B3"/>
					<stop  offset="0.3446" style="stop-color:#F396BF"/>
					<stop  offset="1" style="stop-color:#F8C6DC"/>
				</linearGradient>
				<path fill="url(#SVGID_15_)" d="M28.6,33.753c-2.742,1.619-5.689,1.701-6.582,0.189s0.607-4.051,3.35-5.67
					c2.742-1.617,5.689-1.703,6.58-0.189C32.84,29.597,31.342,32.134,28.6,33.753z"/>
				
					<linearGradient id="SVGID_16_" gradientUnits="userSpaceOnUse" x1="-591.6509" y1="-249.5522" x2="-587.454" y2="-257.8331" gradientTransform="matrix(0.5082 0.8612 -0.8612 0.5082 109.3151 667.8418)">
					<stop  offset="0" style="stop-color:#F396BF"/>
					<stop  offset="0.2995" style="stop-color:#F5AACB"/>
					<stop  offset="0.8577" style="stop-color:#FAD9E7"/>
				</linearGradient>
				<path fill="url(#SVGID_16_)" d="M28.434,33.47c-2.492,1.471-4.088,1.023-4.746-0.094c-0.658-1.113-0.129-2.473,2.363-3.945
					c2.492-1.471,4.854-1.893,5.512-0.777C32.219,29.769,30.926,31.999,28.434,33.47z"/>
				<path fill="#FFFFFF" d="M21.773,31.772c0.291-1.381,1.549-2.947,3.406-4.043c2.299-1.357,4.785-1.562,6.033-0.605
					c-1.381-0.695-3.711-0.371-5.959,0.957C23.512,29.108,22.264,30.483,21.773,31.772L21.773,31.772z"/>
			</g>
			<g>
				
					<linearGradient id="SVGID_17_" gradientUnits="userSpaceOnUse" x1="-1037.3594" y1="5.5254" x2="-1037.3594" y2="-5.4131" gradientTransform="matrix(-0.2496 0.9683 -0.9683 -0.2496 -231.6916 1040.3533)">
					<stop  offset="0" style="stop-color:#F7BCD6"/>
					<stop  offset="0.7232" style="stop-color:#F9D0E2"/>
					<stop  offset="1" style="stop-color:#FAD9E7"/>
				</linearGradient>
				<path fill="url(#SVGID_17_)" d="M25.959,40.595c-2.924-0.754-4.75-3.482-4.076-6.094c0.674-2.615,3.59-4.121,6.516-3.369
					c2.924,0.754,4.75,3.484,4.076,6.1C31.801,39.843,28.885,41.349,25.959,40.595z"/>
				
					<linearGradient id="SVGID_18_" gradientUnits="userSpaceOnUse" x1="-1036.7563" y1="5.5264" x2="-1036.7563" y2="-5.1982" gradientTransform="matrix(-0.2496 0.9683 -0.9683 -0.2496 -231.6916 1040.3533)">
					<stop  offset="0" style="stop-color:#F182B3"/>
					<stop  offset="0.3446" style="stop-color:#F396BF"/>
					<stop  offset="1" style="stop-color:#F8C6DC"/>
				</linearGradient>
				<path fill="url(#SVGID_18_)" d="M25.828,40.681c-2.867-0.74-4.701-3.246-4.096-5.598c0.607-2.354,3.422-3.662,6.291-2.922
					c2.867,0.738,4.699,3.244,4.094,5.598C31.51,40.112,28.695,41.419,25.828,40.681z"/>
				
					<linearGradient id="SVGID_19_" gradientUnits="userSpaceOnUse" x1="-1037.8335" y1="3.3545" x2="-1033.7692" y2="-4.6648" gradientTransform="matrix(-0.2496 0.9683 -0.9683 -0.2496 -231.6916 1040.3533)">
					<stop  offset="0" style="stop-color:#F396BF"/>
					<stop  offset="0.2995" style="stop-color:#F5AACB"/>
					<stop  offset="0.8577" style="stop-color:#FAD9E7"/>
				</linearGradient>
				<path fill="url(#SVGID_19_)" d="M25.939,40.241c-2.605-0.672-3.225-2.541-2.777-4.275s1.791-2.676,4.396-2.004
					c2.607,0.672,4.342,2.312,3.895,4.049C31.008,39.743,28.547,40.913,25.939,40.241z"/>
				<path fill="#FFFFFF" d="M23.223,32.618c1.221-1.172,3.156-1.688,5.098-1.186c2.404,0.619,4.051,2.598,4.08,4.686
					c-0.305-1.936-1.949-3.65-4.301-4.256C26.277,31.392,24.492,31.716,23.223,32.618L23.223,32.618z"/>
			</g>
			<g>
				
					<linearGradient id="SVGID_20_" gradientUnits="userSpaceOnUse" x1="-1174.8418" y1="499.4844" x2="-1174.8418" y2="487.7266" gradientTransform="matrix(-0.8612 0.5082 -0.5082 -0.8612 -736.5332 1062.5554)">
					<stop  offset="0" style="stop-color:#F7BCD6"/>
					<stop  offset="0.7232" style="stop-color:#F9D0E2"/>
					<stop  offset="1" style="stop-color:#FAD9E7"/>
				</linearGradient>
				<path fill="url(#SVGID_20_)" d="M21.346,42.202c-1.65-2.797-1.625-5.869,0.055-6.857c1.68-0.994,4.381,0.469,6.031,3.266
					s1.625,5.869-0.055,6.859C25.695,46.462,22.996,44.999,21.346,42.202z"/>
				
					<linearGradient id="SVGID_21_" gradientUnits="userSpaceOnUse" x1="-1174.4048" y1="499.4873" x2="-1174.4048" y2="487.9561" gradientTransform="matrix(-0.8612 0.5082 -0.5082 -0.8612 -736.5332 1062.5554)">
					<stop  offset="0" style="stop-color:#F182B3"/>
					<stop  offset="0.3446" style="stop-color:#F396BF"/>
					<stop  offset="1" style="stop-color:#F8C6DC"/>
				</linearGradient>
				<path fill="url(#SVGID_21_)" d="M21.215,42.146c-1.617-2.742-1.703-5.688-0.189-6.582c1.514-0.891,4.051,0.607,5.668,3.35
					c1.619,2.742,1.705,5.688,0.191,6.582C25.371,46.386,22.834,44.888,21.215,42.146z"/>
				
					<linearGradient id="SVGID_22_" gradientUnits="userSpaceOnUse" x1="-1175.7407" y1="496.9219" x2="-1171.543" y2="488.6394" gradientTransform="matrix(-0.8612 0.5082 -0.5082 -0.8612 -736.5332 1062.5554)">
					<stop  offset="0" style="stop-color:#F396BF"/>
					<stop  offset="0.2995" style="stop-color:#F5AACB"/>
					<stop  offset="0.8577" style="stop-color:#FAD9E7"/>
				</linearGradient>
				<path fill="url(#SVGID_22_)" d="M21.498,41.978c-1.471-2.49-1.021-4.088,0.092-4.746c1.117-0.656,2.475-0.129,3.947,2.363
					c1.471,2.494,1.893,4.854,0.777,5.514C25.199,45.765,22.969,44.472,21.498,41.978z"/>
				<path fill="#FFFFFF" d="M23.195,35.317c1.381,0.295,2.947,1.549,4.045,3.408c1.355,2.297,1.559,4.783,0.605,6.035
					c0.693-1.381,0.367-3.713-0.959-5.961C25.859,37.056,24.486,35.81,23.195,35.317L23.195,35.317z"/>
			</g>
			<g>
				
					<linearGradient id="SVGID_23_" gradientUnits="userSpaceOnUse" x1="-923.4775" y1="967.333" x2="-923.4775" y2="956.4668" gradientTransform="matrix(-0.9683 -0.2496 0.2496 -0.9683 -1115.1775 741.5916)">
					<stop  offset="0" style="stop-color:#F7BCD6"/>
					<stop  offset="0.7232" style="stop-color:#F9D0E2"/>
					<stop  offset="1" style="stop-color:#FAD9E7"/>
				</linearGradient>
				<path fill="url(#SVGID_23_)" d="M14.385,39.464c0.748-2.906,3.473-4.717,6.086-4.041c2.613,0.672,4.125,3.572,3.375,6.48
					c-0.75,2.904-3.475,4.715-6.088,4.041C15.146,45.271,13.635,42.37,14.385,39.464z"/>
				
					<linearGradient id="SVGID_24_" gradientUnits="userSpaceOnUse" x1="-922.8755" y1="967.3359" x2="-922.8755" y2="956.6797" gradientTransform="matrix(-0.9683 -0.2496 0.2496 -0.9683 -1115.1775 741.5916)">
					<stop  offset="0" style="stop-color:#F182B3"/>
					<stop  offset="0.3446" style="stop-color:#F396BF"/>
					<stop  offset="1" style="stop-color:#F8C6DC"/>
				</linearGradient>
				<path fill="url(#SVGID_24_)" d="M14.299,39.331c0.734-2.848,3.236-4.666,5.59-4.061c2.352,0.607,3.664,3.408,2.93,6.258
					s-3.238,4.668-5.59,4.061S13.564,42.181,14.299,39.331z"/>
				
					<linearGradient id="SVGID_25_" gradientUnits="userSpaceOnUse" x1="-923.9429" y1="965.1836" x2="-919.9008" y2="957.2081" gradientTransform="matrix(-0.9683 -0.2496 0.2496 -0.9683 -1115.1775 741.5916)">
					<stop  offset="0" style="stop-color:#F396BF"/>
					<stop  offset="0.2995" style="stop-color:#F5AACB"/>
					<stop  offset="0.8577" style="stop-color:#FAD9E7"/>
				</linearGradient>
				<path fill="url(#SVGID_25_)" d="M14.738,39.444c0.668-2.588,2.535-3.201,4.27-2.754s2.678,1.783,2.01,4.373
					s-2.307,4.312-4.041,3.865C15.244,44.481,14.07,42.034,14.738,39.444z"/>
				<path fill="#FFFFFF" d="M22.354,36.757c1.174,1.213,1.691,3.139,1.193,5.068c-0.615,2.389-2.59,4.021-4.678,4.047
					c1.934-0.299,3.645-1.93,4.248-4.268C23.584,39.794,23.258,38.021,22.354,36.757L22.354,36.757z"/>
			</g>
			<g>
				
					<linearGradient id="SVGID_26_" gradientUnits="userSpaceOnUse" x1="-429.3101" y1="1104.5137" x2="-429.3101" y2="1092.7539" gradientTransform="matrix(-0.5082 -0.8612 0.8612 -0.5082 -1149.7563 226.5391)">
					<stop  offset="0" style="stop-color:#F7BCD6"/>
					<stop  offset="0.7232" style="stop-color:#F9D0E2"/>
					<stop  offset="1" style="stop-color:#FAD9E7"/>
				</linearGradient>
				<path fill="url(#SVGID_26_)" d="M12.766,34.892c2.799-1.65,5.869-1.627,6.859,0.055c0.992,1.68-0.471,4.379-3.268,6.031
					c-2.797,1.65-5.869,1.623-6.859-0.055C8.506,39.241,9.969,36.542,12.766,34.892z"/>
				
					<linearGradient id="SVGID_27_" gradientUnits="userSpaceOnUse" x1="-428.874" y1="1104.5137" x2="-428.874" y2="1092.9844" gradientTransform="matrix(-0.5082 -0.8612 0.8612 -0.5082 -1149.7563 226.5391)">
					<stop  offset="0" style="stop-color:#F182B3"/>
					<stop  offset="0.3446" style="stop-color:#F396BF"/>
					<stop  offset="1" style="stop-color:#F8C6DC"/>
				</linearGradient>
				<path fill="url(#SVGID_27_)" d="M12.822,34.761c2.742-1.619,5.689-1.703,6.582-0.189s-0.607,4.051-3.348,5.668
					c-2.744,1.621-5.689,1.705-6.582,0.191S10.08,36.38,12.822,34.761z"/>
				
					<linearGradient id="SVGID_28_" gradientUnits="userSpaceOnUse" x1="-430.207" y1="1101.9453" x2="-426.0098" y2="1093.6638" gradientTransform="matrix(-0.5082 -0.8612 0.8612 -0.5082 -1149.7563 226.5391)">
					<stop  offset="0" style="stop-color:#F396BF"/>
					<stop  offset="0.2995" style="stop-color:#F5AACB"/>
					<stop  offset="0.8577" style="stop-color:#FAD9E7"/>
				</linearGradient>
				<path fill="url(#SVGID_28_)" d="M12.99,35.044c2.49-1.469,4.088-1.021,4.746,0.094c0.656,1.115,0.127,2.475-2.363,3.945
					c-2.492,1.471-4.855,1.893-5.512,0.777C9.201,38.745,10.496,36.515,12.99,35.044z"/>
				<path fill="#FFFFFF" d="M19.65,36.741c-0.291,1.381-1.549,2.947-3.406,4.043c-2.299,1.357-4.785,1.561-6.033,0.605
					c1.379,0.695,3.709,0.371,5.957-0.957C17.91,39.405,19.158,38.032,19.65,36.741L19.65,36.741z"/>
			</g>
			<g>
				
					<linearGradient id="SVGID_29_" gradientUnits="userSpaceOnUse" x1="17.3823" y1="852.5068" x2="17.3823" y2="841.5703" gradientTransform="matrix(0.2496 -0.9683 0.9683 0.2496 -810.281 -161.9401)">
					<stop  offset="0" style="stop-color:#F7BCD6"/>
					<stop  offset="0.7232" style="stop-color:#F9D0E2"/>
					<stop  offset="1" style="stop-color:#FAD9E7"/>
				</linearGradient>
				<path fill="url(#SVGID_29_)" d="M15.463,27.919c2.926,0.754,4.75,3.482,4.076,6.096c-0.674,2.611-3.59,4.119-6.514,3.365
					c-2.926-0.754-4.75-3.482-4.076-6.098C9.623,28.673,12.539,27.165,15.463,27.919z"/>
				
					<linearGradient id="SVGID_30_" gradientUnits="userSpaceOnUse" x1="17.9839" y1="852.5049" x2="17.9839" y2="841.7822" gradientTransform="matrix(0.2496 -0.9683 0.9683 0.2496 -810.281 -161.9401)">
					<stop  offset="0" style="stop-color:#F182B3"/>
					<stop  offset="0.3446" style="stop-color:#F396BF"/>
					<stop  offset="1" style="stop-color:#F8C6DC"/>
				</linearGradient>
				<path fill="url(#SVGID_30_)" d="M15.596,27.833c2.867,0.738,4.699,3.246,4.092,5.598c-0.605,2.352-3.422,3.662-6.289,2.922
					s-4.699-3.246-4.094-5.598C9.912,28.401,12.729,27.093,15.596,27.833z"/>
				
					<linearGradient id="SVGID_31_" gradientUnits="userSpaceOnUse" x1="16.9072" y1="850.3379" x2="20.9718" y2="842.3181" gradientTransform="matrix(0.2496 -0.9683 0.9683 0.2496 -810.281 -161.9401)">
					<stop  offset="0" style="stop-color:#F396BF"/>
					<stop  offset="0.2995" style="stop-color:#F5AACB"/>
					<stop  offset="0.8577" style="stop-color:#FAD9E7"/>
				</linearGradient>
				<path fill="url(#SVGID_31_)" d="M15.482,28.272c2.605,0.672,3.225,2.541,2.779,4.275c-0.447,1.732-1.791,2.676-4.398,2.004
					s-4.344-2.314-3.895-4.049C10.416,28.771,12.877,27.601,15.482,28.272z"/>
				<path fill="#FFFFFF" d="M18.199,35.896c-1.219,1.172-3.156,1.688-5.098,1.186c-2.404-0.619-4.051-2.598-4.08-4.686
					c0.305,1.936,1.949,3.65,4.301,4.256C15.145,37.122,16.93,36.798,18.199,35.896L18.199,35.896z"/>
			</g>
			<g>
				<defs>
					<path id="SVGID_316_" d="M22.018,33.942c-0.035-0.061-0.045-0.135-0.072-0.199c-0.047-0.062-0.109-0.109-0.148-0.176
						c-0.99-1.682,0.473-4.379,3.27-6.031c1.002-0.592,2.037-0.959,3.002-1.119c-0.24-1.377-0.896-2.596-1.914-3.402
						c-0.678-0.627-1.443-1.055-2.277-1.27c-0.432-0.111-0.875-0.168-1.32-0.168c-1.48,0-2.857,0.617-3.928,1.635
						c-0.906-0.734-1.861-1.191-2.736-1.268c-0.227-0.039-0.449-0.059-0.668-0.059c-0.592,0-1.135,0.143-1.609,0.424
						c-1.082,0.637-1.684,1.873-1.697,3.479c-0.01,1.447,0.465,3.062,1.342,4.547c1.432,2.428,3.619,3.996,5.572,3.996h0.002
						c0.592,0,1.139-0.145,1.617-0.426c0.033-0.02,0.051-0.037,0.078-0.057c0.07,0.02,0.137,0.047,0.207,0.064
						c0.129,0.035,0.258,0.061,0.385,0.082c0.064,0.027,0.129,0.051,0.201,0.07c0.299,0.076,0.605,0.115,0.914,0.131
						C22.164,34.112,22.076,34.04,22.018,33.942z"/>
				</defs>
				<clipPath id="SVGID_32_">
					<use xlink:href="#SVGID_316_"  overflow="visible"/>
				</clipPath>
				<g clip-path="url(#SVGID_32_)">
					<g>
						
							<linearGradient id="SVGID_33_" gradientUnits="userSpaceOnUse" x1="154.7773" y1="358.043" x2="154.7773" y2="346.2832" gradientTransform="matrix(0.8612 -0.5082 0.5082 0.8612 -295.2305 -196.5173)">
							<stop  offset="0" style="stop-color:#F7BCD6"/>
							<stop  offset="0.7232" style="stop-color:#F9D0E2"/>
							<stop  offset="1" style="stop-color:#FAD9E7"/>
						</linearGradient>
						<path fill="url(#SVGID_33_)" d="M20.076,26.312c1.65,2.797,1.625,5.867-0.055,6.859s-4.379-0.471-6.029-3.268
							c-1.65-2.799-1.627-5.869,0.055-6.861C15.725,22.052,18.426,23.515,20.076,26.312z"/>
						
							<linearGradient id="SVGID_34_" gradientUnits="userSpaceOnUse" x1="155.2129" y1="358.043" x2="155.2129" y2="346.5137" gradientTransform="matrix(0.8612 -0.5082 0.5082 0.8612 -295.2305 -196.5173)">
							<stop  offset="0" style="stop-color:#F182B3"/>
							<stop  offset="0.3446" style="stop-color:#F396BF"/>
							<stop  offset="1" style="stop-color:#F8C6DC"/>
						</linearGradient>
						<path fill="url(#SVGID_34_)" d="M20.207,26.368c1.619,2.742,1.703,5.689,0.189,6.582c-1.514,0.891-4.051-0.607-5.67-3.35
							c-1.617-2.742-1.703-5.688-0.189-6.58S18.59,23.626,20.207,26.368z"/>
						
							<linearGradient id="SVGID_35_" gradientUnits="userSpaceOnUse" x1="153.8789" y1="355.4766" x2="158.0753" y2="347.1967" gradientTransform="matrix(0.8612 -0.5082 0.5082 0.8612 -295.2305 -196.5173)">
							<stop  offset="0" style="stop-color:#F396BF"/>
							<stop  offset="0.2995" style="stop-color:#F5AACB"/>
							<stop  offset="0.8577" style="stop-color:#FAD9E7"/>
						</linearGradient>
						<path fill="url(#SVGID_35_)" d="M19.924,26.536c1.471,2.49,1.023,4.086-0.092,4.744s-2.475,0.129-3.945-2.361
							c-1.473-2.494-1.895-4.854-0.777-5.512C16.223,22.749,18.453,24.042,19.924,26.536z"/>
						<path fill="#FFFFFF" d="M18.227,33.196c-1.381-0.295-2.947-1.551-4.043-3.406c-1.357-2.301-1.561-4.785-0.605-6.037
							c-0.693,1.383-0.371,3.713,0.957,5.961C15.564,31.456,16.936,32.704,18.227,33.196L18.227,33.196z"/>
					</g>
					<g>
						
							<linearGradient id="SVGID_36_" gradientUnits="userSpaceOnUse" x1="-96.4966" y1="-109.2866" x2="-96.4966" y2="-120.1519" gradientTransform="matrix(0.9683 0.2496 -0.2496 0.9683 87.113 162.9993)">
							<stop  offset="0" style="stop-color:#F7BCD6"/>
							<stop  offset="0.7232" style="stop-color:#F9D0E2"/>
							<stop  offset="1" style="stop-color:#FAD9E7"/>
						</linearGradient>
						<path fill="url(#SVGID_36_)" d="M27.041,29.05c-0.75,2.906-3.477,4.717-6.088,4.041c-2.613-0.672-4.125-3.572-3.375-6.48
							c0.748-2.906,3.475-4.715,6.086-4.041C26.277,23.243,27.789,26.146,27.041,29.05z"/>
						
							<linearGradient id="SVGID_37_" gradientUnits="userSpaceOnUse" x1="-95.895" y1="-109.2866" x2="-95.895" y2="-119.9399" gradientTransform="matrix(0.9683 0.2496 -0.2496 0.9683 87.113 162.9993)">
							<stop  offset="0" style="stop-color:#F182B3"/>
							<stop  offset="0.3446" style="stop-color:#F396BF"/>
							<stop  offset="1" style="stop-color:#F8C6DC"/>
						</linearGradient>
						<path fill="url(#SVGID_37_)" d="M27.125,29.183c-0.734,2.848-3.236,4.666-5.59,4.059c-2.354-0.605-3.664-3.406-2.93-6.256
							c0.734-2.848,3.236-4.666,5.588-4.061C26.547,23.532,27.859,26.333,27.125,29.183z"/>
						
							<linearGradient id="SVGID_38_" gradientUnits="userSpaceOnUse" x1="-96.9639" y1="-111.436" x2="-92.922" y2="-119.411" gradientTransform="matrix(0.9683 0.2496 -0.2496 0.9683 87.113 162.9993)">
							<stop  offset="0" style="stop-color:#F396BF"/>
							<stop  offset="0.2995" style="stop-color:#F5AACB"/>
							<stop  offset="0.8577" style="stop-color:#FAD9E7"/>
						</linearGradient>
						<path fill="url(#SVGID_38_)" d="M26.686,29.069c-0.668,2.59-2.535,3.201-4.27,2.754s-2.678-1.783-2.012-4.373
							c0.668-2.59,2.309-4.312,4.041-3.865C26.18,24.032,27.354,26.479,26.686,29.069z"/>
						<path fill="#FFFFFF" d="M19.07,31.757c-1.174-1.213-1.691-3.139-1.193-5.068c0.615-2.389,2.59-4.021,4.678-4.047
							c-1.934,0.299-3.645,1.93-4.248,4.268C17.84,28.72,18.164,30.493,19.07,31.757L19.07,31.757z"/>
					</g>
				</g>
			</g>
			<g>
				<g>
					<path fill="#FFFFFF" d="M24.912,35.253c-0.58,2.25-2.871,3.604-5.119,3.023c-2.248-0.578-3.6-2.871-3.021-5.121
						c0.58-2.246,2.871-3.598,5.119-3.02C24.139,30.716,25.49,33.007,24.912,35.253z"/>
					
						<linearGradient id="SVGID_39_" gradientUnits="userSpaceOnUse" x1="-96.3262" y1="-104.3501" x2="-96.3262" y2="-112.0073" gradientTransform="matrix(0.9683 0.2496 -0.2496 0.9683 87.113 162.9993)">
						<stop  offset="0" style="stop-color:#F6921E"/>
						<stop  offset="1" style="stop-color:#FFCE62"/>
					</linearGradient>
					<path fill="url(#SVGID_39_)" d="M19.887,37.913c-2.045-0.527-3.277-2.617-2.752-4.662c0.527-2.043,2.619-3.277,4.662-2.752
						c2.043,0.527,3.277,2.619,2.752,4.662C24.021,37.204,21.93,38.438,19.887,37.913L19.887,37.913z"/>
				</g>
				<g>
					<path fill="#FFFFFF" d="M19.791,32.573c-0.035,0.139-0.176,0.223-0.316,0.188c-0.139-0.037-0.223-0.178-0.186-0.318
						c0.035-0.137,0.178-0.221,0.316-0.186C19.744,32.294,19.826,32.435,19.791,32.573z"/>
					<circle fill="#FFFFFF" cx="20.509" cy="33.863" r="0.259"/>
					<circle fill="#FFFFFF" cx="21.966" cy="33.786" r="0.259"/>
					<circle fill="#FFFFFF" cx="21.825" cy="32.578" r="0.259"/>
					<circle fill="#FFFFFF" cx="19.148" cy="34.284" r="0.26"/>
					<circle fill="#FFFFFF" cx="20.622" cy="35.489" r="0.259"/>
					<circle fill="#FFFFFF" cx="21.693" cy="35.153" r="0.26"/>
					<circle fill="#FFFFFF" cx="22.053" cy="36.444" r="0.26"/>
					<circle fill="#FFFFFF" cx="20.211" cy="36.98" r="0.26"/>
					<circle fill="#FFFFFF" cx="19.186" cy="36.104" r="0.26"/>
					<circle fill="#FFFFFF" cx="18.08" cy="35.128" r="0.26"/>
					<circle fill="#FFFFFF" cx="18.531" cy="33.38" r="0.26"/>
					<circle fill="#FFFFFF" cx="18.44" cy="31.866" r="0.259"/>
					<circle fill="#FFFFFF" cx="20.484" cy="31.274" r="0.26"/>
					<circle fill="#FFFFFF" cx="20.792" cy="32.765" r="0.259"/>
					<circle fill="#FFFFFF" cx="23.984" cy="34.731" r="0.26"/>
					<circle fill="#FFFFFF" cx="23.146" cy="36.54" r="0.26"/>
					<circle fill="#FFFFFF" cx="22.751" cy="34.868" r="0.259"/>
					<path fill="#FFFFFF" d="M24.158,32.728c-0.037,0.139-0.178,0.223-0.316,0.188s-0.223-0.178-0.188-0.318
						c0.037-0.137,0.178-0.221,0.316-0.186C24.109,32.448,24.193,32.589,24.158,32.728z"/>
					<circle fill="#FFFFFF" cx="22.102" cy="31.611" r="0.26"/>
					<circle fill="#FFFFFF" cx="23.147" cy="33.851" r="0.259"/>
					<circle fill="#FFFFFF" cx="21.344" cy="37.645" r="0.26"/>
					<circle fill="#FFFFFF" cx="18.936" cy="36.972" r="0.26"/>
					<circle fill="#FFFFFF" cx="17.831" cy="34.13" r="0.259"/>
					<circle fill="#FFFFFF" cx="19.674" cy="35.139" r="0.26"/>
					<circle fill="#FFFFFF" cx="21.086" cy="34.518" r="0.26"/>
					<circle fill="#FFFFFF" cx="19.806" cy="33.389" r="0.259"/>
					<circle fill="#FFFFFF" cx="21.157" cy="36.612" r="0.259"/>
					<circle fill="#FFFFFF" cx="23.284" cy="35.59" r="0.259"/>
					<circle fill="#FFFFFF" cx="22.889" cy="32.373" r="0.26"/>
					<circle fill="#FFFFFF" cx="19.4" cy="31.448" r="0.26"/>
					<circle fill="#FFFFFF" cx="17.921" cy="32.85" r="0.259"/>
					<circle fill="#FFFFFF" cx="21.268" cy="33.499" r="0.26"/>
				</g>
			</g>
		</g>
	</g>
	<g>
		<linearGradient id="SVGID_40_" gradientUnits="userSpaceOnUse" x1="7.3369" y1="13.5293" x2="7.3369" y2="5.6084">
			<stop  offset="0" style="stop-color:#E0E0E0"/>
			<stop  offset="0.288" style="stop-color:#F0F0F0"/>
			<stop  offset="0.6289" style="stop-color:#FBFBFB"/>
			<stop  offset="1" style="stop-color:#FFFFFF"/>
		</linearGradient>
		<path fill="url(#SVGID_40_)" d="M4.352,6.664c0-0.803,0.396-1.056,1.002-1.056h4.017c0.502,0,0.867,0.153,0.867,0.726
			S9.873,7.061,9.371,7.061H6.065v1.716h2.9c0.449,0,0.805,0.132,0.805,0.693s-0.355,0.693-0.805,0.693h-2.9v1.914h3.39
			c0.502,0,0.867,0.154,0.867,0.726c0,0.572-0.365,0.727-0.867,0.727H5.354c-0.606,0-1.002-0.253-1.002-1.056V6.664z"/>
		<linearGradient id="SVGID_41_" gradientUnits="userSpaceOnUse" x1="14.3105" y1="13.6719" x2="14.3105" y2="5.6084">
			<stop  offset="0" style="stop-color:#E0E0E0"/>
			<stop  offset="0.288" style="stop-color:#F0F0F0"/>
			<stop  offset="0.6289" style="stop-color:#FBFBFB"/>
			<stop  offset="1" style="stop-color:#FFFFFF"/>
		</linearGradient>
		<path fill="url(#SVGID_41_)" d="M11.201,6.664c0-0.803,0.396-1.056,1.002-1.056h2.619c1.439,0,2.598,0.748,2.598,2.508
			c0,1.441-0.949,2.509-2.609,2.509h-1.898v2.146c0,0.539-0.334,0.901-0.855,0.901s-0.855-0.362-0.855-0.901V6.664z M12.912,9.238
			h1.596c0.689,0,1.201-0.439,1.201-1.122c0-0.792-0.533-1.122-1.377-1.122h-1.42V9.238z"/>
		<linearGradient id="SVGID_42_" gradientUnits="userSpaceOnUse" x1="21.0708" y1="13.7168" x2="21.0708" y2="5.4209">
			<stop  offset="0" style="stop-color:#E0E0E0"/>
			<stop  offset="0.288" style="stop-color:#F0F0F0"/>
			<stop  offset="0.6289" style="stop-color:#FBFBFB"/>
			<stop  offset="1" style="stop-color:#FFFFFF"/>
		</linearGradient>
		<path fill="url(#SVGID_42_)" d="M22.223,8.941c1.566,0.374,1.963,1.354,1.963,2.277c0,1.431-1.023,2.498-3.09,2.498
			c-2.17,0-3.141-1.145-3.141-2.003c0-0.439,0.303-0.748,0.719-0.748c0.93,0,0.689,1.431,2.422,1.431
			c0.887,0,1.379-0.518,1.379-1.046c0-0.318-0.146-0.671-0.73-0.825l-1.932-0.517c-1.555-0.418-1.838-1.32-1.838-2.167
			c0-1.761,1.545-2.421,2.996-2.421c1.336,0,2.912,0.792,2.912,1.849c0,0.451-0.365,0.715-0.783,0.715
			c-0.793,0-0.646-1.177-2.244-1.177c-0.793,0-1.23,0.385-1.23,0.935c0,0.551,0.625,0.727,1.168,0.858L22.223,8.941z"/>
	</g>
</g>
</svg>
