<?xml version="1.0" encoding="utf-8"?>
<!-- Generator: Adobe Illustrator 16.0.3, SVG Export Plug-In . SVG Version: 6.00 Build 0)  -->
<!DOCTYPE svg PUBLIC "-//W3C//DTD SVG 1.1//EN" "http://www.w3.org/Graphics/SVG/1.1/DTD/svg11.dtd">
<svg version="1.1" id="Layer_1" xmlns="http://www.w3.org/2000/svg" xmlns:xlink="http://www.w3.org/1999/xlink" x="0px" y="0px"
	 width="51px" height="51px" viewBox="0 0 51 51" enable-background="new 0 0 51 51" xml:space="preserve">
<g id="layer2">
	<g id="path4196">
		<path fill="#AAAAAA" d="M47.545,43.298H3.515c-1.843,0-3.033-1.177-3.033-2.997V29.282c0-1.431,0.32-2.334,0.356-2.432
			L8.227,7.315c0.503-1.12,1.393-1.701,2.531-1.701h29.544c1.174,0.028,2.039,1.005,2.359,1.9l7.66,19.604
			c0.286,0.773,0.221,1.666,0.185,1.983v10.948C50.506,41.963,49.288,43.298,47.545,43.298z M2.977,27.652
			c0,0-0.212,0.622-0.212,1.63v11.019c0,0.483,0.112,0.714,0.75,0.714h44.03c0.186,0,0.678,0,0.678-0.964V29.032
			c0-0.053,0.004-0.104,0.011-0.157c0.031-0.241,0.039-0.713-0.047-0.945L40.522,8.313c-0.088-0.243-0.242-0.398-0.307-0.426
			l-29.458,0.01c-0.216,0-0.302,0.024-0.422,0.291L2.977,27.652L2.977,27.652z"/>
	</g>
	<g id="path4170">
		<g>
			<defs>
				<path id="SVGID_485_"  d="M1.609,28.489l0.873-0.79l42.944,0.071l3.952,0.362v11.918
					c0,1.285-0.692,2.105-1.817,2.105H3.508c-1.14,0-1.898-0.62-1.898-1.855V28.489z"/>
			</defs>
			<clipPath id="SVGID_1_">
				<use xlink:href="#SVGID_485_"  overflow="visible"/>
			</clipPath>
			<polygon clip-path="url(#SVGID_1_)" fill="#BBBBBB" points="7.637,28 1.961,41.523 1.961,28 			"/>
			<polygon clip-path="url(#SVGID_1_)" fill="#BBBBBB" points="9.023,28 2.719,42 1.961,42 1.961,41.523 7.637,28 			"/>
			<polygon clip-path="url(#SVGID_1_)" fill="#BABABA" points="10.414,28 4.109,42 2.719,42 9.023,28 			"/>
			<polygon clip-path="url(#SVGID_1_)" fill="#B9B9B9" points="11.797,28 5.492,42 4.109,42 10.414,28 			"/>
			<polygon clip-path="url(#SVGID_1_)" fill="#B8B8B8" points="13.188,28 6.883,42 5.492,42 11.797,28 			"/>
			<polygon clip-path="url(#SVGID_1_)" fill="#B7B7B7" points="14.574,28 8.27,42 6.883,42 13.188,28 			"/>
			<polygon clip-path="url(#SVGID_1_)" fill="#B6B6B6" points="15.961,28 9.656,42 8.27,42 14.574,28 			"/>
			<polygon clip-path="url(#SVGID_1_)" fill="#B5B5B5" points="17.348,28 11.043,42 9.656,42 15.961,28 			"/>
			<polygon clip-path="url(#SVGID_1_)" fill="#B4B4B4" points="18.734,28 12.43,42 11.043,42 17.348,28 			"/>
			<polygon clip-path="url(#SVGID_1_)" fill="#B3B3B3" points="20.121,28 13.816,42 12.43,42 18.734,28 			"/>
			<polygon clip-path="url(#SVGID_1_)" fill="#B2B2B2" points="21.508,28 15.203,42 13.816,42 20.121,28 			"/>
			<polygon clip-path="url(#SVGID_1_)" fill="#B1B1B1" points="22.895,28 16.59,42 15.203,42 21.508,28 			"/>
			<polygon clip-path="url(#SVGID_1_)" fill="#B0B0B0" points="24.281,28 17.977,42 16.59,42 22.895,28 			"/>
			<polygon clip-path="url(#SVGID_1_)" fill="#AFAFAF" points="25.668,28 19.363,42 17.977,42 24.281,28 			"/>
			<polygon clip-path="url(#SVGID_1_)" fill="#AEAEAE" points="27.055,28 20.75,42 19.363,42 25.668,28 			"/>
			<polygon clip-path="url(#SVGID_1_)" fill="#ACACAC" points="28.441,28 22.141,42 20.75,42 27.055,28 			"/>
			<polygon clip-path="url(#SVGID_1_)" fill="#ABABAB" points="29.828,28 23.523,42 22.141,42 28.441,28 			"/>
			<polygon clip-path="url(#SVGID_1_)" fill="#AAAAAA" points="31.219,28 24.914,42 23.523,42 29.828,28 			"/>
			<polygon clip-path="url(#SVGID_1_)" fill="#A9A9A9" points="32.602,28 26.301,42 24.914,42 31.219,28 			"/>
			<polygon clip-path="url(#SVGID_1_)" fill="#A8A8A8" points="33.992,28 27.688,42 26.301,42 32.602,28 			"/>
			<polygon clip-path="url(#SVGID_1_)" fill="#A7A7A7" points="35.379,28 29.074,42 27.688,42 33.992,28 			"/>
			<polygon clip-path="url(#SVGID_1_)" fill="#A6A6A6" points="36.766,28 30.461,42 29.074,42 35.379,28 			"/>
			<polygon clip-path="url(#SVGID_1_)" fill="#A5A5A5" points="38.152,28 31.848,42 30.461,42 36.766,28 			"/>
			<polygon clip-path="url(#SVGID_1_)" fill="#A4A4A4" points="39.539,28 33.234,42 31.848,42 38.152,28 			"/>
			<polygon clip-path="url(#SVGID_1_)" fill="#A3A3A3" points="40.926,28 34.621,42 33.234,42 39.539,28 			"/>
			<polygon clip-path="url(#SVGID_1_)" fill="#A2A2A2" points="42.312,28 36.008,42 34.621,42 40.926,28 			"/>
			<polygon clip-path="url(#SVGID_1_)" fill="#A1A1A1" points="43.699,28 37.395,42 36.008,42 42.312,28 			"/>
			<polygon clip-path="url(#SVGID_1_)" fill="#A0A0A0" points="45.086,28 38.781,42 37.395,42 43.699,28 			"/>
			<polygon clip-path="url(#SVGID_1_)" fill="#9F9F9F" points="46.473,28 40.172,42 38.781,42 45.086,28 			"/>
			<polygon clip-path="url(#SVGID_1_)" fill="#9F9F9F" points="40.172,42 46.477,28 48.961,28 48.961,42 			"/>
		</g>
	</g>

		<radialGradient id="path3093_1_" cx="7.0371" cy="-493.459" r="23.9052" gradientTransform="matrix(1.2862 0.7817 0.7108 -1.1696 357.3397 -572.6846)" gradientUnits="userSpaceOnUse">
		<stop  offset="0" style="stop-color:#E4E4E4"/>
		<stop  offset="1" style="stop-color:#D3D3D3"/>
	</radialGradient>
	<path id="path3093"  fill="url(#path3093_1_)" d="M1.924,27.253c-0.814,1.673,0,2.731,1.184,2.731
		h44.53c1.276-0.026,2.106-1.155,1.631-2.446L41.602,7.887c-0.21-0.584-0.747-1.127-1.305-1.142H10.773
		c-0.714,0-1.183,0.348-1.468,0.979L1.924,27.253z"/>
	<g id="rect4174">
		<g>
			<defs>
				<rect id="SVGID_487_" x="6.844" y="33.259" width="20.124" height="6.351"/>
			</defs>
			<clipPath id="SVGID_2_">
				<use xlink:href="#SVGID_487_"  overflow="visible"/>
			</clipPath>
			<path clip-path="url(#SVGID_2_)" fill="#838383" d="M6.961,33.258v6.352V33.258z"/>
			<rect x="6.961" y="33" clip-path="url(#SVGID_2_)" fill="#838383" width="0" height="7"/>
			<rect x="6.961" y="33" clip-path="url(#SVGID_2_)" fill="#848484" width="1" height="7"/>
			<rect x="7.961" y="33" clip-path="url(#SVGID_2_)" fill="#858585" width="0" height="7"/>
			<rect x="7.961" y="33" clip-path="url(#SVGID_2_)" fill="#868686" width="0" height="7"/>
			<rect x="7.961" y="33" clip-path="url(#SVGID_2_)" fill="#878787" width="1" height="7"/>
			<rect x="8.961" y="33" clip-path="url(#SVGID_2_)" fill="#888888" width="0" height="7"/>
			<rect x="8.961" y="33" clip-path="url(#SVGID_2_)" fill="#898989" width="0" height="7"/>
			<rect x="8.961" y="33" clip-path="url(#SVGID_2_)" fill="#8A8A8A" width="1" height="7"/>
			<rect x="9.961" y="33" clip-path="url(#SVGID_2_)" fill="#8B8B8B" width="0" height="7"/>
			<rect x="9.961" y="33" clip-path="url(#SVGID_2_)" fill="#8C8C8C" width="0" height="7"/>
			<rect x="9.961" y="33" clip-path="url(#SVGID_2_)" fill="#8D8D8D" width="1" height="7"/>
			<rect x="10.961" y="33" clip-path="url(#SVGID_2_)" fill="#8E8E8E" width="0" height="7"/>
			<rect x="10.961" y="33" clip-path="url(#SVGID_2_)" fill="#8F8F8F" width="1" height="7"/>
			<rect x="11.961" y="33" clip-path="url(#SVGID_2_)" fill="#909090" width="0" height="7"/>
			<rect x="11.961" y="33" clip-path="url(#SVGID_2_)" fill="#919191" width="0" height="7"/>
			<rect x="11.961" y="33" clip-path="url(#SVGID_2_)" fill="#929292" width="1" height="7"/>
			<rect x="12.961" y="33" clip-path="url(#SVGID_2_)" fill="#939393" width="0" height="7"/>
			<rect x="12.961" y="33" clip-path="url(#SVGID_2_)" fill="#949494" width="0" height="7"/>
			<rect x="12.961" y="33" clip-path="url(#SVGID_2_)" fill="#959595" width="1" height="7"/>
			<rect x="13.961" y="33" clip-path="url(#SVGID_2_)" fill="#969696" width="0" height="7"/>
			<rect x="13.961" y="33" clip-path="url(#SVGID_2_)" fill="#979797" width="0" height="7"/>
			<rect x="13.961" y="33" clip-path="url(#SVGID_2_)" fill="#989898" width="1" height="7"/>
			<rect x="14.961" y="33" clip-path="url(#SVGID_2_)" fill="#999999" width="0" height="7"/>
			<rect x="14.961" y="33" clip-path="url(#SVGID_2_)" fill="#9A9A9A" width="1" height="7"/>
			<rect x="15.961" y="33" clip-path="url(#SVGID_2_)" fill="#9B9B9B" width="0" height="7"/>
			<rect x="15.961" y="33" clip-path="url(#SVGID_2_)" fill="#9C9C9C" width="0" height="7"/>
			<rect x="15.961" y="33" clip-path="url(#SVGID_2_)" fill="#9D9D9D" width="1" height="7"/>
			<rect x="16.961" y="33" clip-path="url(#SVGID_2_)" fill="#9E9E9E" width="0" height="7"/>
			<rect x="16.961" y="33" clip-path="url(#SVGID_2_)" fill="#A0A0A0" width="0" height="7"/>
			<rect x="16.961" y="33" clip-path="url(#SVGID_2_)" fill="#A1A1A1" width="1" height="7"/>
			<rect x="17.961" y="33" clip-path="url(#SVGID_2_)" fill="#A2A2A2" width="0" height="7"/>
			<rect x="17.961" y="33" clip-path="url(#SVGID_2_)" fill="#A3A3A3" width="0" height="7"/>
			<rect x="17.961" y="33" clip-path="url(#SVGID_2_)" fill="#A4A4A4" width="1" height="7"/>
			<rect x="18.961" y="33" clip-path="url(#SVGID_2_)" fill="#A5A5A5" width="0" height="7"/>
			<rect x="18.961" y="33" clip-path="url(#SVGID_2_)" fill="#A6A6A6" width="0" height="7"/>
			<rect x="18.961" y="33" clip-path="url(#SVGID_2_)" fill="#A7A7A7" width="1" height="7"/>
			<rect x="19.961" y="33" clip-path="url(#SVGID_2_)" fill="#A8A8A8" width="0" height="7"/>
			<rect x="19.961" y="33" clip-path="url(#SVGID_2_)" fill="#A9A9A9" width="1" height="7"/>
			<rect x="20.961" y="33" clip-path="url(#SVGID_2_)" fill="#AAAAAA" width="0" height="7"/>
			<rect x="20.961" y="33" clip-path="url(#SVGID_2_)" fill="#ABABAB" width="0" height="7"/>
			<rect x="20.961" y="33" clip-path="url(#SVGID_2_)" fill="#ACACAC" width="1" height="7"/>
			<rect x="21.961" y="33" clip-path="url(#SVGID_2_)" fill="#ADADAD" width="0" height="7"/>
			<rect x="21.961" y="33" clip-path="url(#SVGID_2_)" fill="#AEAEAE" width="0" height="7"/>
			<rect x="21.961" y="33" clip-path="url(#SVGID_2_)" fill="#AFAFAF" width="1" height="7"/>
			<rect x="22.961" y="33" clip-path="url(#SVGID_2_)" fill="#B0B0B0" width="0" height="7"/>
			<rect x="22.961" y="33" clip-path="url(#SVGID_2_)" fill="#B1B1B1" width="0" height="7"/>
			<rect x="22.961" y="33" clip-path="url(#SVGID_2_)" fill="#B2B2B2" width="1" height="7"/>
			<rect x="23.961" y="33" clip-path="url(#SVGID_2_)" fill="#B3B3B3" width="0" height="7"/>
			<rect x="23.961" y="33" clip-path="url(#SVGID_2_)" fill="#B4B4B4" width="0" height="7"/>
			<rect x="23.961" y="33" clip-path="url(#SVGID_2_)" fill="#B5B5B5" width="1" height="7"/>
			<rect x="24.961" y="33" clip-path="url(#SVGID_2_)" fill="#B6B6B6" width="0" height="7"/>
			<rect x="24.961" y="33" clip-path="url(#SVGID_2_)" fill="#B7B7B7" width="1" height="7"/>
			<rect x="25.961" y="33" clip-path="url(#SVGID_2_)" fill="#B8B8B8" width="0" height="7"/>
			<rect x="25.961" y="33" clip-path="url(#SVGID_2_)" fill="#B9B9B9" width="0" height="7"/>
			<rect x="25.961" y="33" clip-path="url(#SVGID_2_)" fill="#BABABA" width="1" height="7"/>
			<rect x="26.961" y="33" clip-path="url(#SVGID_2_)" fill="#BBBBBB" width="0" height="7"/>
			<path clip-path="url(#SVGID_2_)" fill="#BBBBBB" d="M26.961,39.609v-6.352V39.609z"/>
		</g>
	</g>
	<g id="path4194" opacity="0.8114" enable-background="new    ">
		<g>
			<defs>
				<path id="SVGID_489_" d="M6.844,39.609v-4.58c2.097,3.63,9.474,4.58,14.772,4.58H6.844z"/>
			</defs>
			<clipPath id="SVGID_3_">
				<use xlink:href="#SVGID_489_"  overflow="visible"/>
			</clipPath>
			<polygon clip-path="url(#SVGID_3_)" fill="#EEEEEE" points="6.961,36.289 21.961,36.051 21.961,40 6.961,40 			"/>
			<polygon clip-path="url(#SVGID_3_)" fill="#EEEEEE" points="21.961,36.051 6.961,36.289 6.961,35 21.961,35 			"/>
		</g>
	</g>
	<g id="path4201">
		<path  fill="#FFFFFF" d="M49.021,26.927c0.071,1.428-0.473,2.645-1.51,2.677H3.987
			c-1.472,0-2.132-0.371-2.38-0.991c0.105,1.078,0.943,1.883,2.38,1.883h43.524c1.228-0.038,2-1.626,1.543-3.42L49.021,26.927z"/>
	</g>
	<g id="path4211" opacity="0.6914" enable-background="new    ">
		<g>
			<defs>
				<path id="SVGID_491_" d="M10.396,9.261c-0.053,0.229-0.214,0.441-0.214,0.678c0,1.084,0.674,2.043,1.534,2.962
					c0.274-0.177,0.417-0.405,0.713-0.571C11.356,11.396,10.657,10.369,10.396,9.261z M40.832,9.261
					c-0.261,1.107-0.961,2.139-2.033,3.068c0.312,0.175,0.461,0.42,0.749,0.606c0.865-0.921,1.499-1.91,1.499-2.997
					C41.047,9.702,40.885,9.489,40.832,9.261z M43.33,18.895c-0.7,4.613-8.334,8.278-17.733,8.278
					c-9.378,0-16.968-3.646-17.698-8.243c-0.036,0.226-0.143,0.448-0.143,0.679c0,4.931,7.98,8.956,17.841,8.956
					s17.876-4.025,17.876-8.956C43.473,19.365,43.371,19.131,43.33,18.895z"/>
			</defs>
			<clipPath id="SVGID_4_">
				<use xlink:href="#SVGID_491_"  overflow="visible"/>
			</clipPath>
			<rect x="7.961" y="19" clip-path="url(#SVGID_4_)" fill="#FFFFFF" width="36" height="9"/>
			<rect x="7.961" y="28" clip-path="url(#SVGID_4_)" fill="#FFFFFF" width="36" height="1"/>
			<rect x="38.961" y="9" clip-path="url(#SVGID_4_)" fill="#FFFFFF" width="2" height="2"/>
			<rect x="38.961" y="11" clip-path="url(#SVGID_4_)" fill="#FFFFFF" width="2" height="2"/>
			<rect x="9.961" y="9" clip-path="url(#SVGID_4_)" fill="#FFFFFF" width="2" height="2"/>
			<rect x="9.961" y="11" clip-path="url(#SVGID_4_)" fill="#FFFFFF" width="2" height="2"/>
		</g>
	</g>
	<g id="path4224" opacity="0.4576">
		<path fill="#FFFFFF" d="M7.763,27.089c0,0.642-0.7,1.161-1.563,1.161c-0.864,0-1.565-0.519-1.565-1.16v-0.001
			c0-0.642,0.7-1.161,1.563-1.161C7.062,25.927,7.763,26.446,7.763,27.089C7.763,27.088,7.763,27.088,7.763,27.089z"/>
	</g>
	<g id="path4226" opacity="0.4576">
		<path fill="#FFFFFF" d="M46.445,26.987c0,0.642-0.7,1.162-1.563,1.162c-0.864,0-1.565-0.52-1.565-1.16c0-0.001,0-0.002,0-0.002
			c0-0.64,0.699-1.161,1.563-1.161C45.744,25.825,46.444,26.345,46.445,26.987C46.445,26.987,46.445,26.987,46.445,26.987z"/>
	</g>
	<g id="path4252">

			<linearGradient id="SVGID_5_" gradientUnits="userSpaceOnUse" x1="-64.0664" y1="-987.7246" x2="-27.8593" y2="-1037.0249" gradientTransform="matrix(1 0 0 -1 72 -982)">
			<stop  offset="0" style="stop-color:#FFFFFF"/>
			<stop  offset="1" style="stop-color:#FFFFFF;stop-opacity:0"/>
		</linearGradient>
		<path fill="url(#SVGID_5_)" d="M47.01,42.139H3.979c-1.477,0-2.392-0.406-2.392-2.429V29.102c0-1.308,0.298-2.123,0.311-2.157
			L9.226,7.995c0.386-0.855,1.053-1.293,1.94-1.293h28.799c0.766,0.02,1.412,0.531,1.702,1.335l7.521,19.174
			c0.266,0.72,0.15,1.627,0.137,1.728l0.006,10.53C49.331,41.314,48.995,42.139,47.01,42.139z M2.965,27.35
			c0,0-0.235,0.668-0.235,1.752V39.71c0,1.184,0.204,1.286,1.249,1.286H47.01c1.09,0,1.179,0,1.179-1.527V28.86
			c0.032-0.274,0.071-0.869-0.066-1.244L40.599,8.438c-0.067-0.186-0.254-0.584-0.648-0.595L11.166,7.845
			c-0.44,0-0.697,0.171-0.888,0.592L2.965,27.35L2.965,27.35z"/>
	</g>
	<g id="path4282" opacity="0.4237">
		<rect x="43.544" y="32.979" fill="#FFFFFF" width="1.143" height="6.875"/>
	</g>
	<g id="path4284" opacity="0.4237">
		<rect x="41.26" y="33.046" fill="#FFFFFF" width="1.143" height="6.876"/>
	</g>
	<g id="path4286" opacity="0.4237">
		<rect x="38.977" y="33.046" fill="#FFFFFF" width="1.143" height="6.876"/>
	</g>
	<g id="path4288" opacity="0.4237">
		<rect x="36.693" y="33.046" fill="#FFFFFF" width="1.143" height="6.876"/>
	</g>
	<g id="path4290" opacity="0.4237">
		<rect x="34.409" y="33.046" fill="#FFFFFF" width="1.143" height="6.876"/>
	</g>
	<g id="path4292" opacity="0.4237">
		<rect x="32.126" y="33.046" fill="#FFFFFF" width="1.143" height="6.876"/>
	</g>
	<g id="path4294" opacity="0.0971" enable-background="new    ">
		<rect x="42.402" y="33.035" width="1.143" height="6.876"/>
	</g>
	<g id="path4296" opacity="0.0971" enable-background="new    ">
		<rect x="40.118" y="33.104" width="1.143" height="6.875"/>
	</g>
	<g id="path4298" opacity="0.0971" enable-background="new    ">
		<rect x="37.835" y="33.104" width="1.143" height="6.875"/>
	</g>
	<g id="path4300" opacity="0.0971" enable-background="new    ">
		<rect x="35.551" y="33.104" width="1.143" height="6.875"/>
	</g>
	<g id="path4302" opacity="0.0971" enable-background="new    ">
		<rect x="33.268" y="33.104" width="1.143" height="6.875"/>
	</g>
	<g id="path4572" opacity="0.44" enable-background="new    ">
		<path fill="#FFFFFF" d="M6.864,33.274v6.315h14.344L7.257,39.197L6.864,33.274z"/>
	</g>
	<g id="path2545" opacity="0.2057" enable-background="new    ">
		<g>
			<defs>

					<path id="SVGID_494_" d="
					M43.259,18.966c0,4.474-7.893,8.1-17.627,8.1s-17.626-3.626-17.626-8.1s7.892-8.1,17.626-8.1S43.259,14.492,43.259,18.966z"/>
			</defs>
			<clipPath id="SVGID_6_">
				<use xlink:href="#SVGID_494_"  overflow="visible"/>
			</clipPath>
			<polygon clip-path="url(#SVGID_6_)" fill="#FCFCFC" points="42.906,27.066 43.258,26.855 43.258,27.066 			"/>
			<polygon clip-path="url(#SVGID_6_)" fill="#FBFBFB" points="41.805,27.066 43.258,26.203 43.258,26.855 42.906,27.066 			"/>
			<polygon clip-path="url(#SVGID_6_)" fill="#FAFAFA" points="40.699,27 42.961,25.551 42.961,26.203 41.805,27 			"/>
			<polygon clip-path="url(#SVGID_6_)" fill="#F9F9F9" points="39.598,27 42.961,24.898 42.961,25.551 40.699,27 			"/>
			<polygon clip-path="url(#SVGID_6_)" fill="#F8F8F8" points="38.492,27 42.961,24.246 42.961,24.898 39.598,27 			"/>
			<polygon clip-path="url(#SVGID_6_)" fill="#F7F7F7" points="37.391,27 42.961,23.594 42.961,24.246 38.492,27 			"/>
			<polygon clip-path="url(#SVGID_6_)" fill="#F6F6F6" points="36.289,27 42.961,22.941 42.961,23.594 37.391,27 			"/>
			<polygon clip-path="url(#SVGID_6_)" fill="#F5F5F5" points="35.184,27 42.961,22.289 42.961,22.941 36.289,27 			"/>
			<polygon clip-path="url(#SVGID_6_)" fill="#F4F4F4" points="34.078,27 42.961,21.633 42.961,22.289 35.184,27 			"/>
			<polygon clip-path="url(#SVGID_6_)" fill="#F3F3F3" points="32.977,27 42.961,20.984 42.961,21.633 34.078,27 			"/>
			<polygon clip-path="url(#SVGID_6_)" fill="#F1F1F1" points="31.875,27 42.961,20.328 42.961,20.984 32.977,27 			"/>
			<polygon clip-path="url(#SVGID_6_)" fill="#F0F0F0" points="30.77,27 42.961,19.676 42.961,20.328 31.875,27 			"/>
			<polygon clip-path="url(#SVGID_6_)" fill="#EFEFEF" points="29.668,27 42.961,19.023 42.961,19.676 30.77,27 			"/>
			<polygon clip-path="url(#SVGID_6_)" fill="#EEEEEE" points="28.562,27 42.961,18.371 42.961,19.023 29.668,27 			"/>
			<polygon clip-path="url(#SVGID_6_)" fill="#EDEDED" points="27.461,27 42.961,17.719 42.961,18.371 28.562,27 			"/>
			<polygon clip-path="url(#SVGID_6_)" fill="#ECECEC" points="26.355,27 42.961,17.066 42.961,17.719 27.461,27 			"/>
			<polygon clip-path="url(#SVGID_6_)" fill="#EBEBEB" points="25.254,27 42.961,16.414 42.961,17.066 26.355,27 			"/>
			<polygon clip-path="url(#SVGID_6_)" fill="#EAEAEA" points="24.148,27 42.961,15.762 42.961,16.414 25.254,27 			"/>
			<polygon clip-path="url(#SVGID_6_)" fill="#E9E9E9" points="23.047,27 42.961,15.109 42.961,15.762 24.148,27 			"/>
			<polygon clip-path="url(#SVGID_6_)" fill="#E8E8E8" points="21.945,27 42.961,14.453 42.961,15.109 23.047,27 			"/>
			<polygon clip-path="url(#SVGID_6_)" fill="#E7E7E7" points="20.84,27 42.961,13.805 42.961,14.453 21.945,27 			"/>
			<polygon clip-path="url(#SVGID_6_)" fill="#E6E6E6" points="19.738,27 42.961,13.148 42.961,13.805 20.84,27 			"/>
			<polygon clip-path="url(#SVGID_6_)" fill="#E6E6E6" points="19.188,27 42.961,12.824 42.961,13.148 19.738,27 			"/>
			<polygon clip-path="url(#SVGID_6_)" fill="#E7E7E7" points="18.633,27 42.961,12.496 42.961,12.824 19.188,27 			"/>
			<polygon clip-path="url(#SVGID_6_)" fill="#E8E8E8" points="18.082,27 42.961,12.172 42.961,12.496 18.633,27 			"/>
			<polygon clip-path="url(#SVGID_6_)" fill="#E9E9E9" points="17.531,27 42.961,11.844 42.961,12.172 18.082,27 			"/>
			<polygon clip-path="url(#SVGID_6_)" fill="#EAEAEA" points="16.977,27 42.961,11.516 42.961,11.844 17.531,27 			"/>
			<polygon clip-path="url(#SVGID_6_)" fill="#EBEBEB" points="16.43,27 42.961,11.191 42.961,11.516 16.977,27 			"/>
			<polygon clip-path="url(#SVGID_6_)" fill="#ECECEC" points="15.875,27 42.961,10.867 42.961,11.191 16.43,27 			"/>
			<polygon clip-path="url(#SVGID_6_)" fill="#EDEDED" points="15.324,27 42.703,11 43.258,11 15.875,27 			"/>
			<polygon clip-path="url(#SVGID_6_)" fill="#EEEEEE" points="14.773,27 42.152,11 42.703,11 15.324,27 			"/>
			<polygon clip-path="url(#SVGID_6_)" fill="#EFEFEF" points="14.223,27 41.602,11 42.152,11 14.773,27 			"/>
			<polygon clip-path="url(#SVGID_6_)" fill="#F0F0F0" points="13.668,27 41.051,11 41.602,11 14.223,27 			"/>
			<polygon clip-path="url(#SVGID_6_)" fill="#F1F1F1" points="13.117,27 40.5,11 41.051,11 13.668,27 			"/>
			<polygon clip-path="url(#SVGID_6_)" fill="#F3F3F3" points="12.566,27 39.945,11 40.5,11 13.117,27 			"/>
			<polygon clip-path="url(#SVGID_6_)" fill="#F4F4F4" points="12.016,27 39.395,11 39.945,11 12.566,27 			"/>
			<polygon clip-path="url(#SVGID_6_)" fill="#F5F5F5" points="11.461,27 38.844,11 39.395,11 12.016,27 			"/>
			<polygon clip-path="url(#SVGID_6_)" fill="#F6F6F6" points="10.91,27 38.293,11 38.844,11 11.461,27 			"/>
			<polygon clip-path="url(#SVGID_6_)" fill="#F7F7F7" points="10.359,27 37.742,11 38.293,11 10.91,27 			"/>
			<polygon clip-path="url(#SVGID_6_)" fill="#F8F8F8" points="9.805,27 37.188,11 37.742,11 10.359,27 			"/>
			<polygon clip-path="url(#SVGID_6_)" fill="#F9F9F9" points="9.258,27 36.637,11 37.188,11 9.805,27 			"/>
			<polygon clip-path="url(#SVGID_6_)" fill="#FAFAFA" points="8.703,27 36.086,11 36.637,11 9.258,27 			"/>
			<polygon clip-path="url(#SVGID_6_)" fill="#FBFBFB" points="8.152,27 35.531,11 36.086,11 8.703,27 			"/>
			<polygon clip-path="url(#SVGID_6_)" fill="#FCFCFC" points="7.961,26.828 34.984,11 35.531,11 8.152,27 7.961,27 			"/>
			<polygon clip-path="url(#SVGID_6_)" fill="#FDFDFD" points="7.961,26.5 34.43,11 34.984,11 7.961,26.828 			"/>
			<polygon clip-path="url(#SVGID_6_)" fill="#FEFEFE" points="7.961,26.172 33.879,11 34.43,11 7.961,26.5 			"/>
			<polygon clip-path="url(#SVGID_6_)" fill="#FFFFFF" points="7.961,25.848 33.328,11 33.879,11 7.961,26.172 			"/>
			<polygon clip-path="url(#SVGID_6_)" fill="#FFFFFF" points="7.961,25.75 33.16,11 33.328,11 7.961,25.848 			"/>
			<polygon clip-path="url(#SVGID_6_)" fill="#FEFEFE" points="7.961,25.648 32.992,11 33.16,11 7.961,25.75 			"/>
			<polygon clip-path="url(#SVGID_6_)" fill="#FDFDFD" points="7.961,25.547 32.82,11 32.992,11 7.961,25.648 			"/>
			<polygon clip-path="url(#SVGID_6_)" fill="#FCFCFC" points="7.961,25.449 32.652,11 32.82,11 7.961,25.547 			"/>
			<polygon clip-path="url(#SVGID_6_)" fill="#FBFBFB" points="7.961,25.348 32.484,11 32.652,11 7.961,25.449 			"/>
			<polygon clip-path="url(#SVGID_6_)" fill="#FAFAFA" points="7.961,25.25 32.316,11 32.484,11 7.961,25.348 			"/>
			<polygon clip-path="url(#SVGID_6_)" fill="#F9F9F9" points="32.148,11 7.961,25.148 7.961,25.25 32.316,11 			"/>
			<polygon clip-path="url(#SVGID_6_)" fill="#F8F8F8" points="7.961,25.051 31.977,11 32.148,11 7.961,25.148 			"/>
			<polygon clip-path="url(#SVGID_6_)" fill="#F7F7F7" points="7.961,24.949 31.812,11 31.977,11 7.961,25.051 			"/>
			<polygon clip-path="url(#SVGID_6_)" fill="#F6F6F6" points="31.641,11 7.961,24.852 7.961,24.949 31.812,11 			"/>
			<polygon clip-path="url(#SVGID_6_)" fill="#F5F5F5" points="31.477,11 7.961,24.75 7.961,24.852 31.641,11 			"/>
			<polygon clip-path="url(#SVGID_6_)" fill="#F4F4F4" points="31.305,11 7.961,24.648 7.961,24.75 31.477,11 			"/>
			<polygon clip-path="url(#SVGID_6_)" fill="#F3F3F3" points="31.137,11 7.961,24.551 7.961,24.648 31.305,11 			"/>
			<polygon clip-path="url(#SVGID_6_)" fill="#F2F2F2" points="7.961,24.453 30.969,11 31.137,11 7.961,24.551 			"/>
			<polygon clip-path="url(#SVGID_6_)" fill="#F1F1F1" points="30.801,11 7.961,24.352 7.961,24.453 30.969,11 			"/>
			<polygon clip-path="url(#SVGID_6_)" fill="#EFEFEF" points="30.629,11 7.961,24.25 7.961,24.352 30.801,11 			"/>
			<polygon clip-path="url(#SVGID_6_)" fill="#EEEEEE" points="7.961,24.152 30.461,11 30.629,11 7.961,24.25 			"/>
			<polygon clip-path="url(#SVGID_6_)" fill="#EDEDED" points="30.293,11 7.961,24.051 7.961,24.152 30.461,11 			"/>
			<polygon clip-path="url(#SVGID_6_)" fill="#ECECEC" points="30.125,11 7.961,23.953 7.961,24.051 30.293,11 			"/>
			<polygon clip-path="url(#SVGID_6_)" fill="#EBEBEB" points="7.961,23.852 29.957,11 30.125,11 7.961,23.953 			"/>
			<polygon clip-path="url(#SVGID_6_)" fill="#EAEAEA" points="29.789,11 7.961,23.754 7.961,23.852 29.957,11 			"/>
			<polygon clip-path="url(#SVGID_6_)" fill="#E9E9E9" points="29.617,11 7.961,23.652 7.961,23.754 29.789,11 			"/>
			<polygon clip-path="url(#SVGID_6_)" fill="#E8E8E8" points="7.961,23.555 29.453,11 29.617,11 7.961,23.652 			"/>
			<polygon clip-path="url(#SVGID_6_)" fill="#E7E7E7" points="29.281,11 7.961,23.453 7.961,23.555 29.453,11 			"/>
			<polygon clip-path="url(#SVGID_6_)" fill="#E6E6E6" points="29.113,11 7.961,23.355 7.961,23.453 29.281,11 			"/>
			<polygon clip-path="url(#SVGID_6_)" fill="#E5E5E5" points="7.961,23.254 28.945,11 29.113,11 7.961,23.355 			"/>
			<polygon clip-path="url(#SVGID_6_)" fill="#E4E4E4" points="28.777,11 7.961,23.156 7.961,23.254 28.945,11 			"/>
			<polygon clip-path="url(#SVGID_6_)" fill="#E3E3E3" points="7.961,23.055 28.609,11 28.777,11 7.961,23.156 			"/>
			<polygon clip-path="url(#SVGID_6_)" fill="#E2E2E2" points="7.961,22.953 28.438,11 28.609,11 7.961,23.055 			"/>
			<polygon clip-path="url(#SVGID_6_)" fill="#E1E1E1" points="7.961,22.855 28.27,11 28.438,11 7.961,22.953 			"/>
			<polygon clip-path="url(#SVGID_6_)" fill="#E1E1E1" points="7.961,22.684 27.977,11 28.27,11 7.961,22.855 			"/>
			<polygon clip-path="url(#SVGID_6_)" fill="#E2E2E2" points="7.961,22.512 27.688,11 27.977,11 7.961,22.684 			"/>
			<polygon clip-path="url(#SVGID_6_)" fill="#E3E3E3" points="7.961,22.34 27.398,11 27.688,11 7.961,22.512 			"/>
			<polygon clip-path="url(#SVGID_6_)" fill="#E4E4E4" points="7.961,22.164 27.105,11 27.398,11 7.961,22.34 			"/>
			<polygon clip-path="url(#SVGID_6_)" fill="#E5E5E5" points="7.961,21.992 26.812,11 27.105,11 7.961,22.164 			"/>
			<polygon clip-path="url(#SVGID_6_)" fill="#E6E6E6" points="7.961,21.82 26.523,11 26.812,11 7.961,21.992 			"/>
			<polygon clip-path="url(#SVGID_6_)" fill="#E7E7E7" points="7.961,21.648 26.23,11 26.523,11 7.961,21.82 			"/>
			<polygon clip-path="url(#SVGID_6_)" fill="#E8E8E8" points="7.961,21.477 25.941,11 26.23,11 7.961,21.648 			"/>
			<polygon clip-path="url(#SVGID_6_)" fill="#E9E9E9" points="7.961,21.305 25.648,11 25.941,11 7.961,21.477 			"/>
			<polygon clip-path="url(#SVGID_6_)" fill="#EAEAEA" points="7.961,21.133 25.359,11 25.648,11 7.961,21.305 			"/>
			<polygon clip-path="url(#SVGID_6_)" fill="#EBEBEB" points="7.961,20.961 25.066,11 25.359,11 7.961,21.133 			"/>
			<polygon clip-path="url(#SVGID_6_)" fill="#ECECEC" points="24.777,11 7.961,20.789 7.961,20.961 25.066,11 			"/>
			<polygon clip-path="url(#SVGID_6_)" fill="#EDEDED" points="7.961,20.617 24.484,11 24.777,11 7.961,20.789 			"/>
			<polygon clip-path="url(#SVGID_6_)" fill="#EEEEEE" points="7.961,20.445 24.195,11 24.484,11 7.961,20.617 			"/>
			<polygon clip-path="url(#SVGID_6_)" fill="#EFEFEF" points="7.961,20.27 23.902,11 24.195,11 7.961,20.445 			"/>
			<polygon clip-path="url(#SVGID_6_)" fill="#F1F1F1" points="7.961,20.098 23.609,11 23.902,11 7.961,20.27 			"/>
			<polygon clip-path="url(#SVGID_6_)" fill="#F2F2F2" points="7.961,19.926 23.32,11 23.609,11 7.961,20.098 			"/>
			<polygon clip-path="url(#SVGID_6_)" fill="#F3F3F3" points="7.961,19.754 23.031,11 23.32,11 7.961,19.926 			"/>
			<polygon clip-path="url(#SVGID_6_)" fill="#F4F4F4" points="7.961,19.582 22.738,11 23.031,11 7.961,19.754 			"/>
			<polygon clip-path="url(#SVGID_6_)" fill="#F5F5F5" points="7.961,19.41 22.445,11 22.738,11 7.961,19.582 			"/>
			<polygon clip-path="url(#SVGID_6_)" fill="#F6F6F6" points="7.961,19.238 22.156,11 22.445,11 7.961,19.41 			"/>
			<polygon clip-path="url(#SVGID_6_)" fill="#F7F7F7" points="7.961,19.066 21.867,11 22.156,11 7.961,19.238 			"/>
			<polygon clip-path="url(#SVGID_6_)" fill="#F8F8F8" points="21.57,11 7.961,18.891 7.961,19.066 21.867,11 			"/>
			<polygon clip-path="url(#SVGID_6_)" fill="#F9F9F9" points="7.961,18.719 21.281,11 21.57,11 7.961,18.891 			"/>
			<polygon clip-path="url(#SVGID_6_)" fill="#FAFAFA" points="7.961,18.547 20.992,11 21.281,11 7.961,18.719 			"/>
			<polygon clip-path="url(#SVGID_6_)" fill="#FBFBFB" points="7.961,18.375 20.699,11 20.992,11 7.961,18.547 			"/>
			<polygon clip-path="url(#SVGID_6_)" fill="#FCFCFC" points="20.41,11 7.961,18.203 7.961,18.375 20.699,11 			"/>
			<polygon clip-path="url(#SVGID_6_)" fill="#FDFDFD" points="7.961,18.031 20.117,11 20.41,11 7.961,18.203 			"/>
			<polygon clip-path="url(#SVGID_6_)" fill="#FEFEFE" points="7.961,17.859 19.828,11 20.117,11 7.961,18.031 			"/>
			<polygon clip-path="url(#SVGID_6_)" fill="#FFFFFF" points="7.961,17.688 19.535,11 19.828,11 7.961,17.859 			"/>
			<polygon clip-path="url(#SVGID_6_)" fill="#FFFFFF" points="19.539,11 7.961,17.688 7.961,11 			"/>
		</g>
	</g>
</g>
</svg>
