<?xml version="1.0" encoding="utf-8"?>
<!-- Generator: Adobe Illustrator 16.0.3, SVG Export Plug-In . SVG Version: 6.00 Build 0)  -->
<!DOCTYPE svg PUBLIC "-//W3C//DTD SVG 1.1//EN" "http://www.w3.org/Graphics/SVG/1.1/DTD/svg11.dtd">
<svg version="1.1" id="Layer_1" xmlns="http://www.w3.org/2000/svg" xmlns:xlink="http://www.w3.org/1999/xlink" x="0px" y="0px"
	 width="43px" height="51px" viewBox="0 0 43 51" enable-background="new 0 0 43 51" xml:space="preserve">
<g>
	<g>
		<linearGradient id="SVGID_1_" gradientUnits="userSpaceOnUse" x1="21.2939" y1="50.7656" x2="21.2939" y2="0">
			<stop  offset="0" style="stop-color:#CCCCCC"/>
			<stop  offset="0.3187" style="stop-color:#C7C7C7"/>
			<stop  offset="1" style="stop-color:#BFBFBF"/>
		</linearGradient>
		<path fill="url(#SVGID_1_)" d="M3.401,50.766C1.53,50.766,0,49.234,0,47.363V3.402C0,1.531,1.53,0,3.401,0c0,0,14.453,0,20.763,0
			c2.458,0,3.122,0.49,4.446,1.568c1.779,1.451,3.999,3.809,6.208,5.984c3.728,3.672,7.77,7.324,7.77,10.871
			c0,7.213,0,28.939,0,28.939c-0.001,1.871-1.531,3.402-3.402,3.402H3.401z"/>
		<linearGradient id="SVGID_2_" gradientUnits="userSpaceOnUse" x1="21.2935" y1="49.9141" x2="21.2935" y2="0.8516">
			<stop  offset="0" style="stop-color:#FFFFFF"/>
			<stop  offset="0.3735" style="stop-color:#F8F8F8"/>
			<stop  offset="0.9283" style="stop-color:#E4E4E4"/>
			<stop  offset="1" style="stop-color:#E0E0E0"/>
		</linearGradient>
		<path fill="url(#SVGID_2_)" d="M38.902,16.238h-8.219c-1.559,0-2.834-1.275-2.834-2.836V3.162c0-1.559-1.275-2.311-2.835-2.311
			H3.685c-1.559,0-2.834,1.275-2.834,2.834V47.08c0,1.559,1.275,2.834,2.834,2.834h35.218c1.559,0,2.834-1.275,2.834-2.834V18.459
			C41.736,16.584,40.047,16.238,38.902,16.238z"/>
		<g>
			<linearGradient id="SVGID_3_" gradientUnits="userSpaceOnUse" x1="21.2871" y1="18.2236" x2="21.2871" y2="0">
				<stop  offset="0" style="stop-color:#AB206C"/>
				<stop  offset="1" style="stop-color:#CA207D"/>
			</linearGradient>
			<path fill="url(#SVGID_3_)" d="M42.574,18.224c-0.148-3.484-4.098-7.068-7.756-10.671C32.609,5.377,30.39,3.02,28.61,1.568
				C27.286,0.49,26.622,0,24.164,0C17.854,0,3.401,0,3.401,0C1.53,0,0,1.531,0,3.402v14.821H42.574z"/>
			<g>
				<linearGradient id="SVGID_4_" gradientUnits="userSpaceOnUse" x1="28.7168" y1="13.8701" x2="34.8254" y2="7.7615">
					<stop  offset="0" style="stop-color:#F9D3E3"/>
					<stop  offset="0.8834" style="stop-color:#F2B6D2"/>
					<stop  offset="1" style="stop-color:#DE3A94"/>
				</linearGradient>
				<path fill="url(#SVGID_4_)" d="M42.574,17.973c-0.061-1.941-0.529-3.271-1.861-4.871c-2.948-3.539-8.281-8.176-11.894-11.578
					c-1.426-1.34-2.665-1.516-4.56-1.521C24.202,0,24.164,0,24.164,0c2.027,0,3.686,0.447,3.686,2.475v9.428
					c0,1.561,1.275,2.836,2.834,2.836h8.219c2.019,0,3.669,1.645,3.683,3.66c0,0.008,0.002,0.016,0.002,0.023
					c0-0.002,0-0.004,0-0.004c0,0.002,0,0.004,0,0.006C42.587,18.424,42.593,18.25,42.574,17.973z"/>
				<linearGradient id="SVGID_5_" gradientUnits="userSpaceOnUse" x1="29.0566" y1="13.5303" x2="34.8461" y2="7.7408">
					<stop  offset="0.2577" style="stop-color:#EA72AB"/>
					<stop  offset="0.4538" style="stop-color:#E96EA9"/>
					<stop  offset="0.6546" style="stop-color:#E662A4"/>
					<stop  offset="0.8569" style="stop-color:#E24D9C"/>
					<stop  offset="1" style="stop-color:#DE3A94"/>
				</linearGradient>
				<path fill="url(#SVGID_5_)" d="M42.574,17.973c-0.061-1.941-0.529-3.271-1.861-4.871c-2.948-3.539-8.281-8.176-11.894-11.578
					c-1.426-1.34-2.665-1.516-4.56-1.521C24.202,0,24.164,0,24.164,0c2.027,0,4.27,0.521,4.27,2.834v9.068
					c0,1.561,1.483,2.836,3.042,2.836h7.427c2.019,0,3.669,1.645,3.683,3.66c0,0.008,0.002,0.016,0.002,0.023
					c0-0.002,0-0.004,0-0.004c0,0.002,0,0.004,0,0.006C42.587,18.424,42.593,18.25,42.574,17.973z"/>
			</g>
			<linearGradient id="SVGID_6_" gradientUnits="userSpaceOnUse" x1="21.2798" y1="18.2236" x2="21.2798" y2="0.8516">
				<stop  offset="0" style="stop-color:#CA207D"/>
				<stop  offset="1" style="stop-color:#E1519C"/>
			</linearGradient>
			<path fill="url(#SVGID_6_)" d="M41.709,18.224c-0.146-1.655-1.715-1.985-2.807-1.985h-8.219c-1.559,0-2.834-1.275-2.834-2.836
				V3.162c0-1.559-1.275-2.311-2.835-2.311H3.685c-1.559,0-2.834,1.275-2.834,2.834v14.538H41.709z"/>
		</g>
		<g>
			
				<linearGradient id="SVGID_7_" gradientUnits="userSpaceOnUse" x1="131.3188" y1="219.6504" x2="131.3188" y2="199.0762" gradientTransform="matrix(0.937 -0.3494 0.3494 0.937 -178.2438 -114.6089)">
				<stop  offset="0" style="stop-color:#E0E0E0"/>
				<stop  offset="0.0717" style="stop-color:#E4E4E4"/>
				<stop  offset="0.6265" style="stop-color:#F8F8F8"/>
				<stop  offset="1" style="stop-color:#FFFFFF"/>
			</linearGradient>
			<path fill="url(#SVGID_7_)" d="M24.128,22.4L4.59,29.685c-1.373,0.514-2.078,2.057-1.566,3.43L8.35,47.396
				c0.512,1.373,2.056,2.079,3.428,1.565l19.539-7.284c1.373-0.512,2.079-2.054,1.566-3.428l-5.325-14.284
				C27.045,22.594,25.502,21.889,24.128,22.4z"/>
			<linearGradient id="SVGID_8_" gradientUnits="userSpaceOnUse" x1="17.9536" y1="46.4629" x2="17.9536" y2="24.8994">
				<stop  offset="0" style="stop-color:#FFFFFF"/>
				<stop  offset="0.3735" style="stop-color:#F8F8F8"/>
				<stop  offset="0.9283" style="stop-color:#E4E4E4"/>
				<stop  offset="1" style="stop-color:#E0E0E0"/>
			</linearGradient>
			<polygon fill="url(#SVGID_8_)" points="10.846,46.463 5.523,32.182 25.061,24.899 30.384,39.179 			"/>
			<linearGradient id="SVGID_9_" gradientUnits="userSpaceOnUse" x1="17.9536" y1="45.3691" x2="17.9536" y2="25.9932">
				<stop  offset="0" style="stop-color:#AB206C"/>
				<stop  offset="1" style="stop-color:#CA207D"/>
			</linearGradient>
			<polygon fill="url(#SVGID_9_)" points="6.617,32.682 24.561,25.993 29.29,38.679 11.346,45.369 			"/>
		</g>
		<linearGradient id="SVGID_10_" gradientUnits="userSpaceOnUse" x1="25.2261" y1="42.7588" x2="25.2261" y2="22.1836">
			<stop  offset="0" style="stop-color:#E0E0E0"/>
			<stop  offset="0.0717" style="stop-color:#E4E4E4"/>
			<stop  offset="0.6265" style="stop-color:#F8F8F8"/>
			<stop  offset="1" style="stop-color:#FFFFFF"/>
		</linearGradient>
		<path fill="url(#SVGID_10_)" d="M35.651,22.184H14.801c-1.467,0-2.666,1.201-2.666,2.667v15.242c0,1.466,1.199,2.666,2.666,2.666
			h20.851c1.466,0,2.666-1.2,2.666-2.666V24.851C38.317,23.385,37.117,22.184,35.651,22.184z"/>
		<linearGradient id="SVGID_11_" gradientUnits="userSpaceOnUse" x1="25.2261" y1="40.0928" x2="25.2261" y2="24.8506">
			<stop  offset="0" style="stop-color:#FFFFFF"/>
			<stop  offset="0.3735" style="stop-color:#F8F8F8"/>
			<stop  offset="0.9283" style="stop-color:#E4E4E4"/>
			<stop  offset="1" style="stop-color:#E0E0E0"/>
		</linearGradient>
		<rect x="14.801" y="24.851" fill="url(#SVGID_11_)" width="20.851" height="15.242"/>
		<g>
			<g>
				
					<radialGradient id="SVGID_12_" cx="79.9727" cy="-145.458" r="33.676" gradientTransform="matrix(0.5418 0 0 0.5057 -14.2036 108.4949)" gradientUnits="userSpaceOnUse">
					<stop  offset="0.1044" style="stop-color:#FFFFFF"/>
					<stop  offset="0.2967" style="stop-color:#A9CDEC"/>
					<stop  offset="1" style="stop-color:#426FB5"/>
				</radialGradient>
				<rect x="15.654" y="25.702" fill="url(#SVGID_12_)" width="19.145" height="12.953"/>
				
					<radialGradient id="SVGID_13_" cx="80.5918" cy="-32.6338" r="13.8977" gradientTransform="matrix(0.5418 0 0 0.4683 -14.21 49.4749)" gradientUnits="userSpaceOnUse">
					<stop  offset="0.2088" style="stop-color:#AAC9E9"/>
					<stop  offset="1" style="stop-color:#5171B6"/>
				</radialGradient>
				<rect x="15.654" y="34.136" fill="url(#SVGID_13_)" width="19.146" height="5.105"/>
				<path fill="#174178" d="M33.607,36.429c-2.33,0.493-5.906,1.014-8.283,0.403c-0.98-0.252-2.049-0.525-2.871-1.088
					c-1.164-0.802-1.951-0.661-3.375-0.793c-0.906-0.082-0.93-0.431-1.59-0.953c-0.488-0.389-1.199-0.368-1.836-0.413l0.002,5.657
					c0.785,0,1.625-0.001,2.41,0c3.395,0.001,6.789,0,10.186-0.001c2.127,0,4.424-0.001,6.551,0
					C34.801,36.048,34.373,36.265,33.607,36.429z"/>
				<path fill="#174178" d="M22.303,27.794c-0.191,0.084-0.301,0.372-0.346,0.548c-0.148,0.6-0.35,1.192-0.57,1.774
					c-0.445,1.162-1.004,2.289-1.705,3.34c-0.604,0.91-1.426,1.577-2.26,2.299c-0.514,0.447-1.174,0.566-1.77,0.837l0.002,2.063
					l0.492-0.003c0.197-0.152,0.389-0.312,0.578-0.416c0.277-0.158,0.424-0.25,0.6-0.488c0.244-0.323,0.598-0.523,0.91-0.789
					c0.578-0.485,1.012-1.08,1.432-1.687c0.496-0.717,1.014-1.435,1.402-2.215c0.404-0.815,0.713-1.667,1.021-2.518
					c0.199-0.558,0.432-1.093,0.654-1.641c0.086-0.213,0.318-0.603,0.207-0.829C22.859,27.885,22.506,27.704,22.303,27.794z"/>
				<path fill="#174178" d="M26.383,30.951c-0.061-0.294-0.23-0.505-0.375-0.771c0.094,0.048,0.176,0.032,0.271,0.052
					c-0.139-0.291-0.568-0.562-0.623-0.862c0.094,0.005,0.174-0.026,0.273-0.001c-0.129-0.222-0.414-0.42-0.646-0.515
					c0.057-0.097,0-0.117,0.164-0.14c-0.305-0.191-0.746-0.215-1.053-0.392c0.08-0.068,0.195-0.116,0.289-0.169
					c-0.209-0.151-0.523-0.091-0.766-0.184c0.051-0.043,0.059-0.105,0.098-0.145c-0.084,0.003-0.305,0.052-0.541,0.128
					c0.043-0.033,0.092-0.062,0.141-0.081c-0.084-0.08-0.18-0.132-0.293-0.161c0.088-0.087,0.209-0.157,0.273-0.267
					c-0.287-0.205-0.791-0.212-1.105-0.1c0.006-0.042-0.008-0.104,0.002-0.149c-0.115,0.025-0.271,0.207-0.367,0.213
					c-0.104,0.005-0.318-0.173-0.426-0.204c-0.01,0.105,0.027,0.208,0.045,0.312c-0.203-0.157-0.438-0.348-0.68-0.35
					c0.029,0.049,0.023,0.111,0.037,0.149c-0.26,0.085-0.412-0.117-0.646-0.151c0.072,0.062,0.1,0.16,0.15,0.23
					c-0.201,0.054-0.48-0.058-0.713-0.018c0.094,0.058,0.182,0.13,0.248,0.213c-0.232,0.046-0.43,0.119-0.639,0.212
					c0.102,0.001,0.172,0.042,0.266,0.063c-0.203,0.087-0.428,0.152-0.594,0.294c0.109,0.033,0.225,0.029,0.324-0.009
					c-0.16,0.118-0.307,0.261-0.393,0.432c-0.189,0.077-0.379,0.161-0.561,0.262c0.156,0.02,0.322-0.033,0.459,0.049
					c-0.422,0.077-0.842,0.201-1.205,0.425c0.195,0.101,0.439,0.005,0.654,0.043c-0.369,0.179-0.93,0.547-1.096,0.92
					c0.184-0.041,0.379-0.105,0.57-0.084c-0.188,0.144-0.371,0.351-0.477,0.564c0.123-0.053,0.264-0.128,0.416-0.131
					c-0.129,0.328-0.256,0.735-0.41,1.043c0.123-0.105,0.238-0.235,0.377-0.33c0.082,0.29,0.014,0.587,0.135,0.867
					c0.137-0.36,0.152-0.769,0.254-1.134c0.152,0.134,0.197,0.357,0.295,0.524c0.127-0.297,0.109-0.627,0.158-0.941
					c0.15,0.102,0.127,0.3,0.275,0.387c0.049-0.268,0.127-0.545,0.209-0.803c0.072,0.094,0.096,0.231,0.125,0.345
					c0.191-0.208,0.297-0.582,0.434-0.838c0.01,0.119,0.002,0.248,0.029,0.366c0.172-0.278,0.283-0.58,0.486-0.837
					c-0.01,0.086-0.018,0.173-0.025,0.258c-0.102,0.128-0.195,0.231-0.232,0.237c0.105-0.013,0.158,0.043,0.236,0.059
					c-0.088,0.157-0.252,0.274-0.373,0.413c0.072-0.003,0.164,0.038,0.24,0.036c-0.09,0.107-0.176,0.23-0.219,0.37
					c0.051-0.019,0.17-0.012,0.221-0.031c-0.023,0.152-0.117,0.308-0.156,0.443c0.1-0.04,0.193-0.105,0.285-0.146
					c0.035,0.08,0.113,0.146,0.152,0.224c0.121-0.045,0.15-0.185,0.186-0.308c0.018,0.033,0.039,0.066,0.057,0.095
					c0.148-0.147,0.09-0.389,0.215-0.561c0.082,0.127,0.217,0.078,0.361-0.042c-0.098,0.162-0.162,0.334-0.244,0.506
					c0.133-0.014,0.238-0.104,0.336-0.197c-0.039,0.396-0.184,0.842-0.166,1.234c0.117-0.102,0.219-0.247,0.342-0.327
					c-0.064,0.251-0.084,0.532-0.088,0.793c0.051-0.065,0.131-0.155,0.197-0.227c0.016,0.349,0.045,0.688,0.152,1.011
					c0.213-0.375,0.447,0.076,0.611,0.28c0.055-0.103,0.084-0.221,0.143-0.289c0.053,0.148,0.168,0.262,0.307,0.329
					c0.098-0.329,0.078-0.804,0.002-1.13c0.062,0.041,0.172,0.094,0.232,0.167c0.008-0.285-0.148-0.619-0.309-0.81
					c0.109,0.066,0.215,0.134,0.33,0.19c-0.031-0.33-0.367-0.622-0.395-0.928c0.033,0.032,0.1,0.059,0.143,0.095
					c0.01-0.292-0.094-0.61-0.172-0.897c0.049,0.062,0.129,0.092,0.182,0.143c-0.021-0.02-0.031-0.129-0.035-0.266
					c0.039-0.022,0.09-0.051,0.111-0.079c-0.066,0.211-0.037,0.444-0.08,0.667c0.055-0.04,0.115-0.04,0.166-0.087
					c0.02,0.138,0.006,0.296,0.043,0.418c0.043-0.047,0.096-0.063,0.141-0.127c0.07,0.175,0.072,0.427,0.188,0.597
					c0.066-0.126,0.066-0.263,0.074-0.404c0.062,0.118,0.143,0.231,0.262,0.294c0.006-0.221-0.023-0.425-0.092-0.655
					c0.064,0.118,0.193,0.189,0.322,0.215c-0.006-0.219-0.084-0.458-0.186-0.664c0.094,0.047,0.191,0.079,0.287,0.119
					c-0.025-0.32-0.244-0.506-0.326-0.804c0.008,0.017,0.057,0.025,0.109,0.033c0.014,0.033,0.029,0.066,0.037,0.101
					c0.039-0.021,0.064-0.053,0.086-0.09c0.027,0,0.051,0.001,0.061,0.001c-0.006-0.036-0.016-0.076-0.025-0.118
					c0.004-0.03,0.002-0.06-0.002-0.088c0.166,0.204,0.242,0.411,0.264,0.671c0.055-0.07,0.145-0.088,0.207-0.145
					c0.088,0.238,0.055,0.494-0.002,0.733c0.074-0.06,0.186-0.083,0.264-0.122c0.111,0.218,0.043,0.605-0.035,0.825
					c0.139,0.024,0.244-0.045,0.268-0.18c0.076,0.316-0.002,0.63-0.008,0.945c0.15-0.128,0.35-0.197,0.451-0.373
					c0.092,0.217,0.145,0.51,0.217,0.758c0.102-0.081,0.135-0.222,0.188-0.344c0.092,0.126,0.15,0.33,0.246,0.449
					c-0.043-0.359,0.002-0.817,0.041-1.185c0.029,0.122,0.076,0.256,0.156,0.346c0.182-0.316,0.012-0.674-0.189-0.943
					C26.111,30.846,26.242,30.894,26.383,30.951z"/>
			</g>
		</g>
	</g>
</g>
</svg>
