<?xml version="1.0" encoding="utf-8"?>
<!-- Generator: Adobe Illustrator 16.0.3, SVG Export Plug-In . SVG Version: 6.00 Build 0)  -->
<!DOCTYPE svg PUBLIC "-//W3C//DTD SVG 1.1//EN" "http://www.w3.org/Graphics/SVG/1.1/DTD/svg11.dtd">
<svg version="1.1" id="Layer_1" xmlns="http://www.w3.org/2000/svg" xmlns:xlink="http://www.w3.org/1999/xlink" x="0px" y="0px"
	 width="43px" height="51px" viewBox="0 0 43 51" enable-background="new 0 0 43 51" xml:space="preserve">
<g>
	<g>
		<linearGradient id="SVGID_1_" gradientUnits="userSpaceOnUse" x1="21.3301" y1="50.7656" x2="21.3301" y2="0">
			<stop  offset="0" style="stop-color:#CCCCCC"/>
			<stop  offset="0.3187" style="stop-color:#C7C7C7"/>
			<stop  offset="1" style="stop-color:#BFBFBF"/>
		</linearGradient>
		<path fill="url(#SVGID_1_)" d="M3.437,50.766c-1.871,0-3.401-1.531-3.401-3.402V3.402C0.036,1.531,1.566,0,3.437,0
			c0,0,14.453,0,20.763,0c2.457,0,3.121,0.49,4.445,1.568c1.779,1.451,4,3.809,6.209,5.984c3.727,3.672,7.77,7.324,7.77,10.871
			c0,7.213,0,28.939,0,28.939c-0.002,1.871-1.531,3.402-3.402,3.402H3.437z"/>
		<linearGradient id="SVGID_2_" gradientUnits="userSpaceOnUse" x1="21.3296" y1="49.9141" x2="21.3296" y2="0.8516">
			<stop  offset="0" style="stop-color:#FFFFFF"/>
			<stop  offset="0.3735" style="stop-color:#F8F8F8"/>
			<stop  offset="0.9283" style="stop-color:#E4E4E4"/>
			<stop  offset="1" style="stop-color:#E0E0E0"/>
		</linearGradient>
		<path fill="url(#SVGID_2_)" d="M38.938,16.238H30.72c-1.559,0-2.834-1.275-2.834-2.836V3.162c0-1.559-1.275-2.311-2.836-2.311
			H3.72c-1.559,0-2.834,1.275-2.834,2.834V47.08c0,1.559,1.275,2.834,2.834,2.834h35.218c1.559,0,2.834-1.275,2.834-2.834V18.459
			C41.772,16.584,40.083,16.238,38.938,16.238z"/>
		<g>
			<linearGradient id="SVGID_3_" gradientUnits="userSpaceOnUse" x1="21.3232" y1="18.2236" x2="21.3232" y2="0">
				<stop  offset="0" style="stop-color:#AB206C"/>
				<stop  offset="1" style="stop-color:#CA207D"/>
			</linearGradient>
			<path fill="url(#SVGID_3_)" d="M42.61,18.224c-0.148-3.484-4.098-7.068-7.756-10.671c-2.209-2.176-4.43-4.533-6.209-5.984
				C27.321,0.49,26.657,0,24.2,0C17.89,0,3.437,0,3.437,0C1.566,0,0.036,1.531,0.036,3.402v14.821H42.61z"/>
			<g>
				<linearGradient id="SVGID_4_" gradientUnits="userSpaceOnUse" x1="28.7539" y1="13.8711" x2="34.8625" y2="7.7625">
					<stop  offset="0" style="stop-color:#F9D3E3"/>
					<stop  offset="0.8834" style="stop-color:#F2B6D2"/>
					<stop  offset="1" style="stop-color:#DE3A94"/>
				</linearGradient>
				<path fill="url(#SVGID_4_)" d="M42.61,17.973c-0.061-1.941-0.529-3.271-1.861-4.871C37.8,9.562,32.468,4.926,28.854,1.523
					c-1.426-1.34-2.664-1.516-4.559-1.521C24.237,0,24.2,0,24.2,0c2.027,0,3.686,0.447,3.686,2.475v9.428
					c0,1.561,1.275,2.836,2.834,2.836h8.219c2.018,0,3.668,1.645,3.682,3.66c0,0.008,0.002,0.016,0.002,0.023
					c0-0.002,0-0.004,0-0.004c0,0.002,0,0.004,0,0.006C42.622,18.424,42.628,18.25,42.61,17.973z"/>
				<linearGradient id="SVGID_5_" gradientUnits="userSpaceOnUse" x1="29.0938" y1="13.5312" x2="34.8833" y2="7.7417">
					<stop  offset="0.2577" style="stop-color:#EA72AB"/>
					<stop  offset="0.4538" style="stop-color:#E96EA9"/>
					<stop  offset="0.6546" style="stop-color:#E662A4"/>
					<stop  offset="0.8569" style="stop-color:#E24D9C"/>
					<stop  offset="1" style="stop-color:#DE3A94"/>
				</linearGradient>
				<path fill="url(#SVGID_5_)" d="M42.61,17.973c-0.061-1.941-0.529-3.271-1.861-4.871C37.8,9.562,32.468,4.926,28.854,1.523
					c-1.426-1.34-2.664-1.516-4.559-1.521C24.237,0,24.2,0,24.2,0c2.027,0,4.27,0.521,4.27,2.834v9.068
					c0,1.561,1.482,2.836,3.041,2.836h7.428c2.018,0,3.668,1.645,3.682,3.66c0,0.008,0.002,0.016,0.002,0.023
					c0-0.002,0-0.004,0-0.004c0,0.002,0,0.004,0,0.006C42.622,18.424,42.628,18.25,42.61,17.973z"/>
			</g>
			<linearGradient id="SVGID_6_" gradientUnits="userSpaceOnUse" x1="21.3159" y1="18.2236" x2="21.3159" y2="0.8516">
				<stop  offset="0" style="stop-color:#CA207D"/>
				<stop  offset="1" style="stop-color:#E1519C"/>
			</linearGradient>
			<path fill="url(#SVGID_6_)" d="M41.745,18.224c-0.146-1.655-1.715-1.985-2.807-1.985H30.72c-1.559,0-2.834-1.275-2.834-2.836
				V3.162c0-1.559-1.275-2.311-2.836-2.311H3.72c-1.559,0-2.834,1.275-2.834,2.834v14.538H41.745z"/>
		</g>
	</g>
</g>
<g>
	<linearGradient id="SVGID_7_" gradientUnits="userSpaceOnUse" x1="3.9224" y1="13.793" x2="3.9224" y2="6.3906">
		<stop  offset="0" style="stop-color:#E0E0E0"/>
		<stop  offset="0.288" style="stop-color:#F0F0F0"/>
		<stop  offset="0.6289" style="stop-color:#FBFBFB"/>
		<stop  offset="1" style="stop-color:#FFFFFF"/>
	</linearGradient>
	<path fill="url(#SVGID_7_)" d="M3.197,12.909V7.27c0-0.293,0.067-0.513,0.2-0.659s0.306-0.22,0.518-0.22
		c0.218,0,0.395,0.072,0.53,0.218C4.58,6.753,4.647,6.974,4.647,7.27v5.64c0,0.297-0.067,0.518-0.203,0.664s-0.312,0.22-0.53,0.22
		c-0.208,0-0.38-0.074-0.515-0.222C3.265,13.423,3.197,13.202,3.197,12.909z"/>
	<linearGradient id="SVGID_8_" gradientUnits="userSpaceOnUse" x1="9.1865" y1="13.793" x2="9.1865" y2="6.3906">
		<stop  offset="0" style="stop-color:#E0E0E0"/>
		<stop  offset="0.288" style="stop-color:#F0F0F0"/>
		<stop  offset="0.6289" style="stop-color:#FBFBFB"/>
		<stop  offset="1" style="stop-color:#FFFFFF"/>
	</linearGradient>
	<path fill="url(#SVGID_8_)" d="M8.061,7.26l2.788,4.219V7.221c0-0.276,0.06-0.484,0.178-0.622c0.119-0.139,0.279-0.208,0.481-0.208
		c0.208,0,0.373,0.069,0.493,0.208c0.121,0.138,0.181,0.346,0.181,0.622v5.63c0,0.629-0.26,0.942-0.781,0.942
		c-0.13,0-0.248-0.019-0.352-0.056c-0.104-0.038-0.202-0.097-0.293-0.179c-0.091-0.081-0.176-0.177-0.254-0.285
		c-0.078-0.109-0.156-0.221-0.234-0.335l-2.72-4.17v4.194c0,0.273-0.063,0.48-0.19,0.62c-0.127,0.141-0.29,0.21-0.488,0.21
		c-0.205,0-0.37-0.07-0.493-0.212s-0.186-0.348-0.186-0.618V7.44c0-0.234,0.026-0.418,0.078-0.552
		C6.331,6.742,6.434,6.623,6.577,6.53s0.298-0.14,0.464-0.14c0.13,0,0.242,0.021,0.334,0.063c0.093,0.043,0.174,0.1,0.244,0.171
		c0.07,0.072,0.142,0.165,0.215,0.278C7.907,7.018,7.983,7.137,8.061,7.26z"/>
	<linearGradient id="SVGID_9_" gradientUnits="userSpaceOnUse" x1="16.4771" y1="13.6709" x2="16.4771" y2="6.5127">
		<stop  offset="0" style="stop-color:#E0E0E0"/>
		<stop  offset="0.288" style="stop-color:#F0F0F0"/>
		<stop  offset="0.6289" style="stop-color:#FBFBFB"/>
		<stop  offset="1" style="stop-color:#FFFFFF"/>
	</linearGradient>
	<path fill="url(#SVGID_9_)" d="M14.307,6.513h1.89c0.492,0,0.913,0.046,1.265,0.137c0.352,0.092,0.67,0.263,0.957,0.513
		c0.746,0.639,1.118,1.608,1.118,2.91c0,0.43-0.038,0.822-0.112,1.177c-0.075,0.355-0.19,0.675-0.347,0.96
		c-0.156,0.284-0.356,0.539-0.601,0.764c-0.192,0.173-0.402,0.312-0.63,0.415c-0.228,0.104-0.473,0.178-0.735,0.22
		c-0.262,0.043-0.558,0.063-0.886,0.063h-1.89c-0.264,0-0.462-0.04-0.596-0.119c-0.133-0.08-0.221-0.192-0.261-0.337
		c-0.041-0.146-0.061-0.333-0.061-0.564V7.401c0-0.312,0.07-0.538,0.21-0.679C13.768,6.583,13.994,6.513,14.307,6.513z M14.868,7.66
		v4.858h1.099c0.241,0,0.43-0.006,0.566-0.02c0.137-0.013,0.278-0.045,0.425-0.098c0.146-0.052,0.273-0.125,0.381-0.22
		c0.485-0.41,0.728-1.116,0.728-2.119c0-0.706-0.106-1.235-0.32-1.587S17.271,7.9,16.958,7.805c-0.312-0.097-0.69-0.145-1.133-0.145
		H14.868z"/>
	<linearGradient id="SVGID_10_" gradientUnits="userSpaceOnUse" x1="23.3867" y1="13.6709" x2="23.3867" y2="6.5127">
		<stop  offset="0" style="stop-color:#E0E0E0"/>
		<stop  offset="0.288" style="stop-color:#F0F0F0"/>
		<stop  offset="0.6289" style="stop-color:#FBFBFB"/>
		<stop  offset="1" style="stop-color:#FFFFFF"/>
	</linearGradient>
	<path fill="url(#SVGID_10_)" d="M21.217,6.513h1.889c0.492,0,0.913,0.046,1.265,0.137c0.352,0.092,0.671,0.263,0.957,0.513
		c0.746,0.639,1.118,1.608,1.118,2.91c0,0.43-0.037,0.822-0.112,1.177c-0.074,0.355-0.19,0.675-0.347,0.96
		c-0.156,0.284-0.356,0.539-0.601,0.764c-0.191,0.173-0.401,0.312-0.63,0.415c-0.228,0.104-0.473,0.178-0.734,0.22
		c-0.263,0.043-0.558,0.063-0.887,0.063h-1.889c-0.264,0-0.462-0.04-0.596-0.119c-0.133-0.08-0.221-0.192-0.261-0.337
		c-0.041-0.146-0.061-0.333-0.061-0.564V7.401c0-0.312,0.07-0.538,0.21-0.679C20.679,6.583,20.905,6.513,21.217,6.513z M21.779,7.66
		v4.858h1.098c0.241,0,0.43-0.006,0.566-0.02c0.137-0.013,0.278-0.045,0.425-0.098c0.146-0.052,0.273-0.125,0.381-0.22
		c0.485-0.41,0.728-1.116,0.728-2.119c0-0.706-0.106-1.235-0.319-1.587c-0.214-0.352-0.477-0.575-0.789-0.671
		c-0.312-0.097-0.689-0.145-1.133-0.145H21.779z"/>
</g>
</svg>
