<?xml version="1.0" encoding="utf-8"?>
<!-- Generator: Adobe Illustrator 16.0.3, SVG Export Plug-In . SVG Version: 6.00 Build 0)  -->
<!DOCTYPE svg PUBLIC "-//W3C//DTD SVG 1.1//EN" "http://www.w3.org/Graphics/SVG/1.1/DTD/svg11.dtd">
<svg version="1.1" id="Layer_1" xmlns="http://www.w3.org/2000/svg" xmlns:xlink="http://www.w3.org/1999/xlink" x="0px" y="0px"
	 width="43px" height="51px" viewBox="0 0 43 51" enable-background="new 0 0 43 51" xml:space="preserve">
<g>
	<g>
		<linearGradient id="SVGID_1_" gradientUnits="userSpaceOnUse" x1="21.2935" y1="50.7656" x2="21.2935" y2="0">
			<stop  offset="0" style="stop-color:#CCCCCC"/>
			<stop  offset="0.3187" style="stop-color:#C7C7C7"/>
			<stop  offset="1" style="stop-color:#BFBFBF"/>
		</linearGradient>
		<path fill="url(#SVGID_1_)" d="M3.4,50.766c-1.871,0-3.4-1.531-3.4-3.402V3.402C0,1.531,1.529,0,3.4,0c0,0,14.453,0,20.764,0
			c2.457,0,3.121,0.49,4.445,1.568c1.779,1.451,4,3.809,6.209,5.984c3.726,3.672,7.769,7.324,7.769,10.871
			c0,7.213,0,28.939,0,28.939c-0.002,1.871-1.531,3.402-3.402,3.402H3.4z"/>
		<linearGradient id="SVGID_2_" gradientUnits="userSpaceOnUse" x1="21.2925" y1="49.9141" x2="21.2925" y2="0.8516">
			<stop  offset="0" style="stop-color:#FFFFFF"/>
			<stop  offset="0.3735" style="stop-color:#F8F8F8"/>
			<stop  offset="0.9283" style="stop-color:#E4E4E4"/>
			<stop  offset="1" style="stop-color:#E0E0E0"/>
		</linearGradient>
		<path fill="url(#SVGID_2_)" d="M38.902,16.238h-8.218c-1.559,0-2.834-1.275-2.834-2.836V3.162c0-1.559-1.275-2.311-2.836-2.311
			H3.684c-1.559,0-2.834,1.275-2.834,2.834V47.08c0,1.559,1.275,2.834,2.834,2.834h35.218c1.559,0,2.834-1.275,2.834-2.834V18.459
			C41.736,16.584,40.046,16.238,38.902,16.238z"/>
		<g>
			<linearGradient id="SVGID_3_" gradientUnits="userSpaceOnUse" x1="21.2866" y1="18.2236" x2="21.2866" y2="0">
				<stop  offset="0" style="stop-color:#333333"/>
				<stop  offset="0.4314" style="stop-color:#3B3B3B"/>
				<stop  offset="1" style="stop-color:#4D4D4D"/>
			</linearGradient>
			<path fill="url(#SVGID_3_)" d="M42.574,18.224c-0.148-3.484-4.1-7.068-7.755-10.671c-2.209-2.176-4.43-4.533-6.209-5.984
				C27.285,0.49,26.621,0,24.164,0C17.854,0,3.4,0,3.4,0C1.529,0,0,1.531,0,3.402v14.821H42.574z"/>
			<g>
				<linearGradient id="SVGID_4_" gradientUnits="userSpaceOnUse" x1="28.7163" y1="13.8711" x2="34.8243" y2="7.7631">
					<stop  offset="0" style="stop-color:#BFBFBF"/>
					<stop  offset="0.8834" style="stop-color:#999999"/>
					<stop  offset="1" style="stop-color:#4D4D4D"/>
				</linearGradient>
				<path fill="url(#SVGID_4_)" d="M42.574,17.973c-0.061-1.941-0.529-3.271-1.861-4.871c-2.949-3.539-8.281-8.176-11.894-11.578
					c-1.426-1.34-2.664-1.516-4.559-1.521C24.201,0,24.164,0,24.164,0c2.027,0,3.686,0.447,3.686,2.475v9.428
					c0,1.561,1.275,2.836,2.834,2.836h8.218c2.018,0,3.668,1.645,3.682,3.66c0,0.008,0.002,0.016,0.002,0.023
					c0-0.002,0-0.004,0-0.004c0,0.002,0,0.004,0,0.006C42.585,18.424,42.591,18.25,42.574,17.973z"/>
				<linearGradient id="SVGID_5_" gradientUnits="userSpaceOnUse" x1="29.0562" y1="13.5312" x2="34.8452" y2="7.7422">
					<stop  offset="0.2577" style="stop-color:#999999"/>
					<stop  offset="0.4634" style="stop-color:#959595"/>
					<stop  offset="0.674" style="stop-color:#898989"/>
					<stop  offset="0.8861" style="stop-color:#747474"/>
					<stop  offset="1" style="stop-color:#666666"/>
				</linearGradient>
				<path fill="url(#SVGID_5_)" d="M42.574,17.973c-0.061-1.941-0.529-3.271-1.861-4.871c-2.949-3.539-8.281-8.176-11.894-11.578
					c-1.426-1.34-2.664-1.516-4.559-1.521C24.201,0,24.164,0,24.164,0c2.027,0,4.27,0.521,4.27,2.834v9.068
					c0,1.561,1.482,2.836,3.041,2.836h7.427c2.018,0,3.668,1.645,3.682,3.66c0,0.008,0.002,0.016,0.002,0.023
					c0-0.002,0-0.004,0-0.004c0,0.002,0,0.004,0,0.006C42.585,18.424,42.591,18.25,42.574,17.973z"/>
			</g>
			<linearGradient id="SVGID_6_" gradientUnits="userSpaceOnUse" x1="21.2778" y1="18.2236" x2="21.2778" y2="0.8516">
				<stop  offset="0" style="stop-color:#595959"/>
				<stop  offset="0.3249" style="stop-color:#616161"/>
				<stop  offset="0.8191" style="stop-color:#767676"/>
				<stop  offset="1" style="stop-color:#808080"/>
			</linearGradient>
			<path fill="url(#SVGID_6_)" d="M41.707,18.224c-0.145-1.655-1.715-1.985-2.805-1.985h-8.218c-1.559,0-2.834-1.275-2.834-2.836
				V3.162c0-1.559-1.275-2.311-2.836-2.311H3.684c-1.559,0-2.834,1.275-2.834,2.834v14.538H41.707z"/>
		</g>
		<g>
			<linearGradient id="SVGID_7_" gradientUnits="userSpaceOnUse" x1="11.7334" y1="43.665" x2="11.7334" y2="26.2764">
				<stop  offset="0" style="stop-color:#81A3B2"/>
				<stop  offset="1" style="stop-color:#ABC0CD"/>
			</linearGradient>
			<path fill="url(#SVGID_7_)" d="M12.773,33.009c0,1.75-1.277,1.885-1.916,1.943v0.038c0.639,0.058,1.916,0.192,1.916,1.943v3.846
				c0,0.809,0.348,1.155,0.859,1.155h0.455c0.475,0,0.822,0.27,0.822,0.865c0,0.558-0.348,0.865-0.822,0.865h-1.35
				c-1.588,0-2.373-0.788-2.373-2.558v-3.925c0-1.173-0.477-1.288-0.932-1.288c-0.604,0-0.877-0.462-0.877-0.924
				s0.273-0.923,0.877-0.923c0.455,0,0.932-0.115,0.932-1.289v-3.924c0-1.77,0.785-2.559,2.373-2.559h1.35
				c0.475,0,0.822,0.309,0.822,0.866c0,0.596-0.348,0.865-0.822,0.865h-0.455c-0.512,0-0.859,0.347-0.859,1.154V33.009z"/>
			<linearGradient id="SVGID_8_" gradientUnits="userSpaceOnUse" x1="17.7393" y1="40.2607" x2="17.7393" y2="37.1064">
				<stop  offset="0" style="stop-color:#81A3B2"/>
				<stop  offset="1" style="stop-color:#ABC0CD"/>
			</linearGradient>
			<path fill="url(#SVGID_8_)" d="M17.74,37.106c0.82,0,1.496,0.712,1.496,1.577s-0.676,1.577-1.496,1.577
				c-0.822,0-1.498-0.712-1.498-1.577S16.918,37.106,17.74,37.106z"/>
			<linearGradient id="SVGID_9_" gradientUnits="userSpaceOnUse" x1="23.3252" y1="40.2607" x2="23.3252" y2="37.1064">
				<stop  offset="0" style="stop-color:#81A3B2"/>
				<stop  offset="1" style="stop-color:#ABC0CD"/>
			</linearGradient>
			<path fill="url(#SVGID_9_)" d="M23.326,37.106c0.82,0,1.496,0.712,1.496,1.577s-0.676,1.577-1.496,1.577
				c-0.822,0-1.498-0.712-1.498-1.577S22.504,37.106,23.326,37.106z"/>
			<linearGradient id="SVGID_10_" gradientUnits="userSpaceOnUse" x1="29.333" y1="43.665" x2="29.333" y2="26.2764">
				<stop  offset="0" style="stop-color:#81A3B2"/>
				<stop  offset="1" style="stop-color:#ABC0CD"/>
			</linearGradient>
			<path fill="url(#SVGID_10_)" d="M28.291,36.934c0-1.751,1.279-1.886,1.918-1.943v-0.038c-0.639-0.059-1.918-0.193-1.918-1.943
				v-3.847c0-0.808-0.346-1.154-0.857-1.154h-0.457c-0.475,0-0.82-0.27-0.82-0.865c0-0.558,0.346-0.866,0.82-0.866h1.352
				c1.588,0,2.373,0.789,2.373,2.559v3.924c0,1.174,0.475,1.289,0.932,1.289c0.602,0,0.877,0.461,0.877,0.923
				s-0.275,0.924-0.877,0.924c-0.457,0-0.932,0.115-0.932,1.288v3.925c0,1.77-0.785,2.558-2.373,2.558h-1.352
				c-0.475,0-0.82-0.308-0.82-0.865c0-0.596,0.346-0.865,0.82-0.865h0.457c0.512,0,0.857-0.347,0.857-1.155V36.934z"/>
		</g>
		<g>
			<linearGradient id="SVGID_11_" gradientUnits="userSpaceOnUse" x1="21.2866" y1="18.2236" x2="21.2866" y2="0">
				<stop  offset="0" style="stop-color:#6D8996"/>
				<stop  offset="1" style="stop-color:#81A3B2"/>
			</linearGradient>
			<path fill="url(#SVGID_11_)" d="M42.574,18.224c-0.148-3.484-4.1-7.068-7.755-10.671c-2.209-2.176-4.43-4.533-6.209-5.984
				C27.285,0.49,26.621,0,24.164,0C17.854,0,3.4,0,3.4,0C1.529,0,0,1.531,0,3.402v14.821H42.574z"/>
			<g>
				<linearGradient id="SVGID_12_" gradientUnits="userSpaceOnUse" x1="28.7163" y1="13.8711" x2="34.8243" y2="7.7631">
					<stop  offset="0" style="stop-color:#EBE9E9"/>
					<stop  offset="0.8834" style="stop-color:#DCDFE1"/>
					<stop  offset="1" style="stop-color:#9FBAC9"/>
				</linearGradient>
				<path fill="url(#SVGID_12_)" d="M42.574,17.973c-0.061-1.941-0.529-3.271-1.861-4.871c-2.949-3.539-8.281-8.176-11.894-11.578
					c-1.426-1.34-2.664-1.516-4.559-1.521C24.201,0,24.164,0,24.164,0c2.027,0,3.686,0.447,3.686,2.475v9.428
					c0,1.561,1.275,2.836,2.834,2.836h8.218c2.018,0,3.668,1.645,3.682,3.66c0,0.008,0.002,0.016,0.002,0.023
					c0-0.002,0-0.004,0-0.004c0,0.002,0,0.004,0,0.006C42.585,18.424,42.591,18.25,42.574,17.973z"/>
				<linearGradient id="SVGID_13_" gradientUnits="userSpaceOnUse" x1="29.0562" y1="13.5312" x2="34.8452" y2="7.7422">
					<stop  offset="0.2577" style="stop-color:#BDCCD6"/>
					<stop  offset="0.5272" style="stop-color:#B9CAD4"/>
					<stop  offset="0.8028" style="stop-color:#ADC2CF"/>
					<stop  offset="1" style="stop-color:#9FBAC9"/>
				</linearGradient>
				<path fill="url(#SVGID_13_)" d="M42.574,17.973c-0.061-1.941-0.529-3.271-1.861-4.871c-2.949-3.539-8.281-8.176-11.894-11.578
					c-1.426-1.34-2.664-1.516-4.559-1.521C24.201,0,24.164,0,24.164,0c2.027,0,4.27,0.521,4.27,2.834v9.068
					c0,1.561,1.482,2.836,3.041,2.836h7.427c2.018,0,3.668,1.645,3.682,3.66c0,0.008,0.002,0.016,0.002,0.023
					c0-0.002,0-0.004,0-0.004c0,0.002,0,0.004,0,0.006C42.585,18.424,42.591,18.25,42.574,17.973z"/>
			</g>
			<linearGradient id="SVGID_14_" gradientUnits="userSpaceOnUse" x1="21.2778" y1="18.2236" x2="21.2778" y2="0.8516">
				<stop  offset="0" style="stop-color:#81A3B2"/>
				<stop  offset="1" style="stop-color:#ABC0CD"/>
			</linearGradient>
			<path fill="url(#SVGID_14_)" d="M41.707,18.224c-0.145-1.655-1.715-1.985-2.805-1.985h-8.218c-1.559,0-2.834-1.275-2.834-2.836
				V3.162c0-1.559-1.275-2.311-2.836-2.311H3.684c-1.559,0-2.834,1.275-2.834,2.834v14.538H41.707z"/>
		</g>
	</g>
</g>
<g>
	<linearGradient id="SVGID_15_" gradientUnits="userSpaceOnUse" x1="8.4229" y1="13.8555" x2="8.4229" y2="5.4902">
		<stop  offset="0" style="stop-color:#E0E0E0"/>
		<stop  offset="0.288" style="stop-color:#F0F0F0"/>
		<stop  offset="0.6289" style="stop-color:#FBFBFB"/>
		<stop  offset="1" style="stop-color:#FFFFFF"/>
	</linearGradient>
	<path fill="url(#SVGID_15_)" d="M11.107,6.484v4.236c0,0.368-0.017,0.682-0.047,0.938c-0.032,0.257-0.104,0.519-0.213,0.784
		c-0.184,0.444-0.488,0.791-0.91,1.039c-0.424,0.248-0.938,0.373-1.545,0.373c-0.549,0-1.006-0.087-1.371-0.26
		c-0.367-0.173-0.662-0.452-0.887-0.838c-0.117-0.207-0.213-0.443-0.286-0.713c-0.073-0.268-0.11-0.523-0.11-0.767
		c0-0.257,0.072-0.454,0.215-0.591c0.144-0.135,0.328-0.203,0.552-0.203c0.218,0,0.381,0.062,0.491,0.188s0.195,0.32,0.254,0.584
		c0.062,0.283,0.125,0.51,0.188,0.68c0.062,0.169,0.168,0.314,0.314,0.436s0.357,0.182,0.629,0.182c0.725,0,1.088-0.531,1.088-1.594
		V6.484c0-0.332,0.072-0.58,0.217-0.746c0.146-0.165,0.344-0.248,0.594-0.248c0.254,0,0.455,0.083,0.604,0.248
		C11.032,5.904,11.107,6.152,11.107,6.484z"/>
	<linearGradient id="SVGID_16_" gradientUnits="userSpaceOnUse" x1="15.3643" y1="13.8555" x2="15.3643" y2="5.4902">
		<stop  offset="0" style="stop-color:#E0E0E0"/>
		<stop  offset="0.288" style="stop-color:#F0F0F0"/>
		<stop  offset="0.6289" style="stop-color:#FBFBFB"/>
		<stop  offset="1" style="stop-color:#FFFFFF"/>
	</linearGradient>
	<path fill="url(#SVGID_16_)" d="M18.578,11.289c0,0.49-0.127,0.93-0.379,1.319s-0.62,0.694-1.105,0.915
		c-0.486,0.221-1.062,0.332-1.727,0.332c-0.799,0-1.457-0.15-1.977-0.453c-0.367-0.217-0.666-0.506-0.896-0.869
		c-0.229-0.361-0.344-0.714-0.344-1.057c0-0.198,0.068-0.368,0.206-0.51s0.313-0.213,0.527-0.213c0.173,0,0.319,0.056,0.438,0.166
		s0.222,0.273,0.307,0.491c0.103,0.257,0.214,0.473,0.334,0.646c0.119,0.173,0.287,0.315,0.504,0.428
		c0.217,0.111,0.502,0.168,0.855,0.168c0.486,0,0.881-0.113,1.184-0.34c0.304-0.226,0.455-0.508,0.455-0.846
		c0-0.27-0.082-0.487-0.246-0.654c-0.163-0.168-0.375-0.295-0.634-0.384s-0.606-0.183-1.04-0.281
		c-0.581-0.136-1.068-0.296-1.459-0.478c-0.393-0.182-0.703-0.43-0.934-0.744c-0.229-0.314-0.344-0.706-0.344-1.173
		c0-0.445,0.121-0.841,0.363-1.187c0.243-0.346,0.594-0.611,1.055-0.797c0.459-0.186,1-0.279,1.621-0.279
		c0.497,0,0.927,0.062,1.289,0.186s0.663,0.287,0.902,0.49c0.238,0.205,0.414,0.419,0.523,0.643
		c0.111,0.225,0.166,0.443,0.166,0.657c0,0.194-0.068,0.37-0.207,0.526c-0.138,0.157-0.31,0.234-0.516,0.234
		c-0.188,0-0.33-0.047-0.428-0.141s-0.203-0.246-0.317-0.46c-0.147-0.306-0.323-0.544-0.53-0.715
		c-0.205-0.171-0.537-0.257-0.992-0.257c-0.424,0-0.765,0.094-1.023,0.279c-0.26,0.186-0.389,0.409-0.389,0.67
		c0,0.162,0.043,0.302,0.132,0.42c0.089,0.117,0.21,0.219,0.364,0.303c0.154,0.085,0.311,0.151,0.469,0.199s0.42,0.117,0.783,0.209
		c0.457,0.107,0.869,0.225,1.239,0.354s0.685,0.285,0.943,0.469c0.259,0.185,0.462,0.417,0.606,0.698
		C18.505,10.537,18.578,10.881,18.578,11.289z"/>
</g>
</svg>
