<?xml version="1.0" encoding="utf-8"?>
<!-- Generator: Adobe Illustrator 16.0.3, SVG Export Plug-In . SVG Version: 6.00 Build 0)  -->
<!DOCTYPE svg PUBLIC "-//W3C//DTD SVG 1.1//EN" "http://www.w3.org/Graphics/SVG/1.1/DTD/svg11.dtd">
<svg version="1.1" id="Layer_1" xmlns="http://www.w3.org/2000/svg" xmlns:xlink="http://www.w3.org/1999/xlink" x="0px" y="0px"
	 width="43px" height="51px" viewBox="0 0 43 51" enable-background="new 0 0 43 51" xml:space="preserve">
<g>
	<g>
		<linearGradient id="SVGID_1_" gradientUnits="userSpaceOnUse" x1="21.2939" y1="50.7656" x2="21.2939" y2="0">
			<stop  offset="0" style="stop-color:#CCCCCC"/>
			<stop  offset="0.3187" style="stop-color:#C7C7C7"/>
			<stop  offset="1" style="stop-color:#BFBFBF"/>
		</linearGradient>
		<path fill="url(#SVGID_1_)" d="M3.402,50.766C1.531,50.766,0,49.234,0,47.363V3.402C0,1.531,1.531,0,3.402,0
			c0,0,14.453,0,20.762,0c2.459,0,3.123,0.49,4.447,1.568c1.779,1.451,3.998,3.809,6.207,5.984c3.729,3.672,7.77,7.324,7.77,10.871
			c0,7.213,0,28.939,0,28.939c0,1.871-1.531,3.402-3.402,3.402H3.402z"/>
		<linearGradient id="SVGID_2_" gradientUnits="userSpaceOnUse" x1="21.2939" y1="49.9141" x2="21.2939" y2="0.8516">
			<stop  offset="0" style="stop-color:#FFFFFF"/>
			<stop  offset="0.3735" style="stop-color:#F8F8F8"/>
			<stop  offset="0.9283" style="stop-color:#E4E4E4"/>
			<stop  offset="1" style="stop-color:#E0E0E0"/>
		</linearGradient>
		<path fill="url(#SVGID_2_)" d="M38.902,16.238h-8.219c-1.559,0-2.834-1.275-2.834-2.836V3.162c0-1.559-1.275-2.311-2.834-2.311
			H3.686c-1.559,0-2.834,1.275-2.834,2.834V47.08c0,1.559,1.275,2.834,2.834,2.834h35.217c1.559,0,2.834-1.275,2.834-2.834V18.459
			C41.736,16.584,40.047,16.238,38.902,16.238z"/>
		<g>
			<linearGradient id="SVGID_3_" gradientUnits="userSpaceOnUse" x1="21.2871" y1="18.2236" x2="21.2871" y2="0">
				<stop  offset="0" style="stop-color:#008C97"/>
				<stop  offset="1" style="stop-color:#00A7B4"/>
			</linearGradient>
			<path fill="url(#SVGID_3_)" d="M42.574,18.224c-0.147-3.484-4.098-7.068-7.756-10.671c-2.209-2.176-4.428-4.533-6.207-5.984
				C27.287,0.49,26.623,0,24.164,0C17.855,0,3.402,0,3.402,0C1.531,0,0,1.531,0,3.402v14.821H42.574z"/>
			<g>
				<linearGradient id="SVGID_4_" gradientUnits="userSpaceOnUse" x1="28.7178" y1="13.8716" x2="34.8261" y2="7.7632">
					<stop  offset="0" style="stop-color:#C1E5EA"/>
					<stop  offset="0.8834" style="stop-color:#A2DAE2"/>
					<stop  offset="1" style="stop-color:#00BACA"/>
				</linearGradient>
				<path fill="url(#SVGID_4_)" d="M42.574,17.973c-0.061-1.941-0.529-3.271-1.861-4.871C37.766,9.562,32.432,4.926,28.82,1.523
					c-1.426-1.34-2.666-1.516-4.561-1.521C24.203,0,24.164,0,24.164,0c2.027,0,3.686,0.447,3.686,2.475v9.428
					c0,1.561,1.275,2.836,2.834,2.836h8.219c2.02,0,3.67,1.645,3.684,3.66c0,0.008,0.002,0.016,0.002,0.023c0-0.002,0-0.004,0-0.004
					c0,0.002,0,0.004,0,0.006C42.588,18.424,42.594,18.25,42.574,17.973z"/>
				<linearGradient id="SVGID_5_" gradientUnits="userSpaceOnUse" x1="29.0576" y1="13.5317" x2="34.8467" y2="7.7426">
					<stop  offset="0.2577" style="stop-color:#52C5D7"/>
					<stop  offset="0.4192" style="stop-color:#4EC4D6"/>
					<stop  offset="0.5846" style="stop-color:#42C3D4"/>
					<stop  offset="0.7518" style="stop-color:#2DC0D1"/>
					<stop  offset="0.9192" style="stop-color:#11BCCD"/>
					<stop  offset="1" style="stop-color:#00BACA"/>
				</linearGradient>
				<path fill="url(#SVGID_5_)" d="M42.574,17.973c-0.061-1.941-0.529-3.271-1.861-4.871C37.766,9.562,32.432,4.926,28.82,1.523
					c-1.426-1.34-2.666-1.516-4.561-1.521C24.203,0,24.164,0,24.164,0c2.027,0,4.27,0.521,4.27,2.834v9.068
					c0,1.561,1.484,2.836,3.043,2.836h7.426c2.02,0,3.67,1.645,3.684,3.66c0,0.008,0.002,0.016,0.002,0.023c0-0.002,0-0.004,0-0.004
					c0,0.002,0,0.004,0,0.006C42.588,18.424,42.594,18.25,42.574,17.973z"/>
			</g>
			<linearGradient id="SVGID_6_" gradientUnits="userSpaceOnUse" x1="21.2803" y1="18.2236" x2="21.2803" y2="0.8516">
				<stop  offset="0" style="stop-color:#00A7B4"/>
				<stop  offset="1" style="stop-color:#13BDCE"/>
			</linearGradient>
			<path fill="url(#SVGID_6_)" d="M41.709,18.224c-0.145-1.655-1.715-1.985-2.807-1.985h-8.219c-1.559,0-2.834-1.275-2.834-2.836
				V3.162c0-1.559-1.275-2.311-2.834-2.311H3.686c-1.559,0-2.834,1.275-2.834,2.834v14.538H41.709z"/>
		</g>
		<g>
			<linearGradient id="SVGID_7_" gradientUnits="userSpaceOnUse" x1="21.2939" y1="45.8301" x2="21.2939" y2="22.8301">
				<stop  offset="0" style="stop-color:#00A7B4"/>
				<stop  offset="1" style="stop-color:#13BDCE"/>
			</linearGradient>
			<path fill="url(#SVGID_7_)" d="M21.294,22.83c-6.352,0-11.5,5.148-11.5,11.5s5.148,11.5,11.5,11.5s11.5-5.148,11.5-11.5
				S27.646,22.83,21.294,22.83z M21.294,43.155c-4.874,0-8.825-3.95-8.825-8.825s3.951-8.825,8.825-8.825s8.825,3.95,8.825,8.825
				S26.168,43.155,21.294,43.155z"/>
			<g>
				<linearGradient id="SVGID_8_" gradientUnits="userSpaceOnUse" x1="21.2939" y1="30.2129" x2="21.2939" y2="23.2549">
					<stop  offset="0" style="stop-color:#13BDCE"/>
					<stop  offset="0.9939" style="stop-color:#BAE3EA"/>
				</linearGradient>
				<path fill="url(#SVGID_8_)" d="M21.294,24.088c4.492,0,8.381,2.5,10.272,6.125c-1.638-4.072-5.621-6.958-10.272-6.958
					s-8.635,2.886-10.272,6.958C12.913,26.588,16.802,24.088,21.294,24.088z"/>
				<linearGradient id="SVGID_9_" gradientUnits="userSpaceOnUse" x1="21.2939" y1="44.4131" x2="21.2939" y2="31.4023">
					<stop  offset="0.0123" style="stop-color:#BAE3EA"/>
					<stop  offset="0.2393" style="stop-color:#8CD3DF"/>
					<stop  offset="0.7853" style="stop-color:#13BDCE"/>
				</linearGradient>
				<path fill="url(#SVGID_9_)" d="M11.688,35.163c0,5.101,4.31,9.25,9.606,9.25s9.606-4.149,9.606-9.25
					c0-1.34-0.304-2.61-0.838-3.761c0.309,0.921,0.482,1.903,0.482,2.928c0,5.101-4.15,9.25-9.251,9.25s-9.251-4.149-9.251-9.25
					c0-1.023,0.174-2.006,0.482-2.928C11.991,32.553,11.688,33.823,11.688,35.163z"/>
			</g>
			
				<linearGradient id="SVGID_10_" gradientUnits="userSpaceOnUse" x1="-1280.6694" y1="-425.9263" x2="-1280.6694" y2="-435.6592" gradientTransform="matrix(0 1 -1 0 -408.5 1315)">
				<stop  offset="0" style="stop-color:#00A7B4"/>
				<stop  offset="1" style="stop-color:#13BDCE"/>
			</linearGradient>
			<path fill="url(#SVGID_10_)" d="M17.426,29.914c0-0.312,0.229-0.454,0.508-0.315l9.016,4.479c0.279,0.139,0.279,0.365,0,0.504
				l-9.016,4.479c-0.279,0.139-0.508-0.003-0.508-0.315V29.914z"/>
			<linearGradient id="SVGID_11_" gradientUnits="userSpaceOnUse" x1="21.8477" y1="34.2471" x2="21.8477" y2="30.0312">
				<stop  offset="0" style="stop-color:#13BDCE"/>
				<stop  offset="0.9939" style="stop-color:#BAE3EA"/>
			</linearGradient>
			<path fill="url(#SVGID_11_)" d="M25.845,34.004l-7.993-3.973l0.001,4.073c1.12,0.088,2.266,0.143,3.441,0.143
				C22.861,34.247,24.381,34.157,25.845,34.004z"/>
		</g>
	</g>
</g>
<g>
	<linearGradient id="SVGID_12_" gradientUnits="userSpaceOnUse" x1="7.7773" y1="13.9404" x2="7.7773" y2="6.1504">
		<stop  offset="0" style="stop-color:#E0E0E0"/>
		<stop  offset="0.288" style="stop-color:#F0F0F0"/>
		<stop  offset="0.6289" style="stop-color:#FBFBFB"/>
		<stop  offset="1" style="stop-color:#FFFFFF"/>
	</linearGradient>
	<path fill="url(#SVGID_12_)" d="M6.738,12.655L5.511,7.775v5.287c0,0.292-0.065,0.512-0.196,0.658s-0.304,0.22-0.52,0.22
		c-0.209,0-0.38-0.073-0.512-0.217c-0.133-0.144-0.199-0.365-0.199-0.661V7.002c0-0.334,0.087-0.56,0.262-0.677
		C4.52,6.208,4.755,6.15,5.051,6.15h0.48c0.289,0,0.499,0.026,0.63,0.078s0.228,0.146,0.29,0.282s0.134,0.357,0.214,0.664
		l1.113,4.195l1.112-4.195c0.08-0.307,0.151-0.528,0.215-0.664c0.062-0.136,0.159-0.23,0.289-0.282
		c0.131-0.052,0.341-0.078,0.63-0.078h0.48c0.296,0,0.531,0.058,0.706,0.175c0.174,0.117,0.261,0.342,0.261,0.677v6.061
		c0,0.292-0.065,0.512-0.196,0.658c-0.13,0.146-0.305,0.22-0.524,0.22c-0.206,0-0.375-0.073-0.507-0.22
		c-0.133-0.146-0.198-0.366-0.198-0.658V7.775l-1.229,4.879c-0.08,0.317-0.146,0.55-0.195,0.698
		c-0.051,0.148-0.144,0.283-0.28,0.405c-0.136,0.122-0.323,0.183-0.563,0.183c-0.182,0-0.335-0.04-0.46-0.118
		c-0.126-0.079-0.223-0.179-0.293-0.3c-0.069-0.122-0.124-0.257-0.164-0.405C6.821,12.969,6.78,12.815,6.738,12.655z"/>
	<linearGradient id="SVGID_13_" gradientUnits="userSpaceOnUse" x1="16.0332" y1="13.9404" x2="16.0332" y2="6.0195">
		<stop  offset="0" style="stop-color:#E0E0E0"/>
		<stop  offset="0.288" style="stop-color:#F0F0F0"/>
		<stop  offset="0.6289" style="stop-color:#FBFBFB"/>
		<stop  offset="1" style="stop-color:#FFFFFF"/>
	</linearGradient>
	<path fill="url(#SVGID_13_)" d="M16.008,6.02c0.794,0,1.476,0.161,2.045,0.483s1.001,0.78,1.293,1.374
		c0.293,0.594,0.439,1.292,0.439,2.093c0,0.592-0.081,1.13-0.241,1.614c-0.16,0.484-0.4,0.904-0.721,1.259
		c-0.32,0.355-0.714,0.627-1.181,0.815c-0.467,0.188-1.001,0.282-1.604,0.282c-0.6,0-1.136-0.097-1.609-0.29
		s-0.869-0.466-1.187-0.818c-0.316-0.352-0.556-0.775-0.718-1.27s-0.243-1.029-0.243-1.604c0-0.588,0.084-1.128,0.253-1.62
		s0.414-0.909,0.734-1.254s0.711-0.608,1.171-0.792C14.899,6.111,15.422,6.02,16.008,6.02z M18.212,9.959
		c0-0.561-0.091-1.046-0.271-1.458s-0.439-0.722-0.775-0.933c-0.337-0.211-0.723-0.316-1.157-0.316c-0.311,0-0.597,0.058-0.86,0.175
		c-0.263,0.117-0.489,0.287-0.679,0.509c-0.19,0.223-0.34,0.508-0.449,0.854c-0.11,0.347-0.165,0.736-0.165,1.167
		c0,0.436,0.055,0.829,0.165,1.181c0.109,0.352,0.265,0.644,0.465,0.875c0.2,0.231,0.43,0.405,0.689,0.52
		c0.26,0.115,0.544,0.172,0.854,0.172c0.397,0,0.762-0.099,1.095-0.298c0.332-0.198,0.597-0.505,0.794-0.919
		C18.113,11.075,18.212,10.565,18.212,9.959z"/>
	<linearGradient id="SVGID_14_" gradientUnits="userSpaceOnUse" x1="23.2461" y1="13.9404" x2="23.2461" y2="6.0195">
		<stop  offset="0" style="stop-color:#E0E0E0"/>
		<stop  offset="0.288" style="stop-color:#F0F0F0"/>
		<stop  offset="0.6289" style="stop-color:#FBFBFB"/>
		<stop  offset="1" style="stop-color:#FFFFFF"/>
	</linearGradient>
	<path fill="url(#SVGID_14_)" d="M21.54,7.039l1.734,5.136l1.74-5.172c0.091-0.271,0.158-0.46,0.204-0.567
		c0.045-0.106,0.12-0.202,0.225-0.288c0.104-0.085,0.247-0.128,0.428-0.128c0.133,0,0.256,0.033,0.369,0.1
		c0.112,0.066,0.201,0.154,0.266,0.264s0.097,0.22,0.097,0.332c0,0.077-0.01,0.16-0.031,0.249c-0.021,0.089-0.047,0.176-0.078,0.261
		s-0.062,0.173-0.094,0.264l-1.855,5.005c-0.065,0.191-0.132,0.374-0.198,0.546s-0.143,0.324-0.229,0.455
		c-0.087,0.13-0.203,0.238-0.348,0.321s-0.321,0.125-0.53,0.125s-0.386-0.041-0.53-0.123c-0.145-0.082-0.262-0.19-0.351-0.324
		c-0.088-0.134-0.166-0.287-0.232-0.458c-0.065-0.17-0.132-0.352-0.198-0.543L20.104,7.53c-0.031-0.091-0.063-0.18-0.097-0.267
		s-0.061-0.181-0.084-0.282C19.9,6.88,19.89,6.795,19.89,6.725c0-0.178,0.071-0.34,0.214-0.486c0.143-0.146,0.322-0.22,0.538-0.22
		c0.265,0,0.452,0.081,0.562,0.243S21.425,6.683,21.54,7.039z"/>
</g>
</svg>
