<?xml version="1.0" encoding="utf-8"?>
<!-- Generator: Adobe Illustrator 16.0.3, SVG Export Plug-In . SVG Version: 6.00 Build 0)  -->
<!DOCTYPE svg PUBLIC "-//W3C//DTD SVG 1.1//EN" "http://www.w3.org/Graphics/SVG/1.1/DTD/svg11.dtd">
<svg version="1.1" id="Layer_1" xmlns="http://www.w3.org/2000/svg" xmlns:xlink="http://www.w3.org/1999/xlink" x="0px" y="0px"
	 width="43px" height="51px" viewBox="0 0 43 51" enable-background="new 0 0 43 51" xml:space="preserve">
<g>
	<g>
		<linearGradient id="SVGID_1_" gradientUnits="userSpaceOnUse" x1="21.2939" y1="51.3887" x2="21.2939" y2="0.623">
			<stop  offset="0" style="stop-color:#CCCCCC"/>
			<stop  offset="0.3187" style="stop-color:#C7C7C7"/>
			<stop  offset="1" style="stop-color:#BFBFBF"/>
		</linearGradient>
		<path fill="url(#SVGID_1_)" d="M3.4,51.389c-1.871,0-3.4-1.531-3.4-3.402V4.025c0-1.871,1.529-3.402,3.4-3.402
			c0,0,14.453,0,20.764,0c2.457,0,3.121,0.49,4.445,1.568c1.779,1.451,4,3.809,6.209,5.984c3.727,3.672,7.77,7.324,7.77,10.871
			c0,7.213,0,28.939,0,28.939c-0.002,1.871-1.531,3.402-3.402,3.402H3.4z"/>
		<linearGradient id="SVGID_2_" gradientUnits="userSpaceOnUse" x1="21.293" y1="50.5371" x2="21.293" y2="1.4746">
			<stop  offset="0" style="stop-color:#FFFFFF"/>
			<stop  offset="0.3735" style="stop-color:#F8F8F8"/>
			<stop  offset="0.9283" style="stop-color:#E4E4E4"/>
			<stop  offset="1" style="stop-color:#E0E0E0"/>
		</linearGradient>
		<path fill="url(#SVGID_2_)" d="M38.902,16.861h-8.219c-1.559,0-2.834-1.275-2.834-2.836V3.785c0-1.559-1.275-2.311-2.836-2.311
			H3.684c-1.559,0-2.834,1.275-2.834,2.834v43.395c0,1.559,1.275,2.834,2.834,2.834h35.219c1.559,0,2.834-1.275,2.834-2.834V19.082
			C41.736,17.207,40.047,16.861,38.902,16.861z"/>
		<g>
			<linearGradient id="SVGID_3_" gradientUnits="userSpaceOnUse" x1="21.2871" y1="18.8467" x2="21.2871" y2="0.623">
				<stop  offset="0" style="stop-color:#82541C"/>
				<stop  offset="1" style="stop-color:#A96D2B"/>
			</linearGradient>
			<path fill="url(#SVGID_3_)" d="M42.574,18.847c-0.148-3.484-4.099-7.068-7.756-10.671C32.609,6,30.389,3.643,28.609,2.191
				c-1.324-1.078-1.988-1.568-4.445-1.568c-6.311,0-20.764,0-20.764,0C1.529,0.623,0,2.154,0,4.025v14.821H42.574z"/>
			<g>
				<linearGradient id="SVGID_4_" gradientUnits="userSpaceOnUse" x1="28.7168" y1="14.4941" x2="34.8255" y2="8.3854">
					<stop  offset="0" style="stop-color:#DFBF9B"/>
					<stop  offset="0.8834" style="stop-color:#D1A474"/>
					<stop  offset="1" style="stop-color:#BA7832"/>
				</linearGradient>
				<path fill="url(#SVGID_4_)" d="M42.574,18.596c-0.061-1.941-0.529-3.271-1.861-4.871c-2.949-3.539-8.281-8.176-11.895-11.578
					c-1.426-1.34-2.664-1.516-4.559-1.521c-0.059-0.002-0.096-0.002-0.096-0.002c2.027,0,3.686,0.447,3.686,2.475v9.428
					c0,1.561,1.275,2.836,2.834,2.836h8.219c2.018,0,3.668,1.645,3.682,3.66c0,0.008,0.002,0.016,0.002,0.023
					c0-0.002,0-0.004,0-0.004c0,0.002,0,0.004,0,0.006C42.586,19.047,42.592,18.873,42.574,18.596z"/>
				<linearGradient id="SVGID_5_" gradientUnits="userSpaceOnUse" x1="29.0557" y1="14.1553" x2="34.8454" y2="8.3655">
					<stop  offset="0.2577" style="stop-color:#C58C4F"/>
					<stop  offset="0.5319" style="stop-color:#C3894B"/>
					<stop  offset="0.8122" style="stop-color:#BF813F"/>
					<stop  offset="1" style="stop-color:#BA7832"/>
				</linearGradient>
				<path fill="url(#SVGID_5_)" d="M42.574,18.596c-0.061-1.941-0.529-3.271-1.861-4.871c-2.949-3.539-8.281-8.176-11.895-11.578
					c-1.426-1.34-2.664-1.516-4.559-1.521c-0.059-0.002-0.096-0.002-0.096-0.002c2.027,0,4.27,0.521,4.27,2.834v9.068
					c0,1.561,1.482,2.836,3.041,2.836h7.428c2.018,0,3.668,1.645,3.682,3.66c0,0.008,0.002,0.016,0.002,0.023
					c0-0.002,0-0.004,0-0.004c0,0.002,0,0.004,0,0.006C42.586,19.047,42.592,18.873,42.574,18.596z"/>
			</g>
			<linearGradient id="SVGID_6_" gradientUnits="userSpaceOnUse" x1="21.2793" y1="18.8467" x2="21.2793" y2="1.4746">
				<stop  offset="0" style="stop-color:#A26828"/>
				<stop  offset="1" style="stop-color:#BA7832"/>
			</linearGradient>
			<path fill="url(#SVGID_6_)" d="M41.708,18.847c-0.146-1.655-1.715-1.985-2.806-1.985h-8.219c-1.559,0-2.834-1.275-2.834-2.836
				V3.785c0-1.559-1.275-2.311-2.836-2.311H3.684c-1.559,0-2.834,1.275-2.834,2.834v14.538H41.708z"/>
		</g>
		<g>
			<g>
				<polygon fill="#BBBDBF" points="38.229,39.985 4.357,39.985 4.357,39.835 38.229,39.835 38.229,39.985 				"/>
				<polygon fill="#BBBDBF" points="38.229,46.587 4.357,46.587 4.357,46.437 38.229,46.437 38.229,46.587 				"/>
				<polygon fill="#BBBDBF" points="38.229,23.165 4.357,23.165 4.357,23.015 38.229,23.015 38.229,23.165 				"/>
			</g>
			<g>
				<linearGradient id="SVGID_7_" gradientUnits="userSpaceOnUse" x1="15.2803" y1="39.8994" x2="15.2803" y2="23.082">
					<stop  offset="0" style="stop-color:#1A1A1A"/>
					<stop  offset="0.2656" style="stop-color:#212121"/>
					<stop  offset="0.6695" style="stop-color:#363636"/>
					<stop  offset="1" style="stop-color:#4D4D4D"/>
				</linearGradient>
				<path fill="url(#SVGID_7_)" d="M6.768,39.899v-0.906c1.781,0,2.264-0.847,2.457-1.237l5.312-14.674c0.27,0,1.318,0,1.318,0
					s5.529,14.072,5.807,14.737c0.27,0.648,0.555,1.174,2.131,1.174v0.906h-7.895v-0.906c2.189,0,2.455-0.359,2.143-1.161
					s-1.432-3.751-1.432-3.751h-4.623c0,0-1.137,3.448-1.211,3.668c-0.203,0.609-0.234,1.244,2.01,1.244v0.906H6.768z
					 M12.463,32.729h3.641l-1.889-4.926L12.463,32.729z"/>
				<linearGradient id="SVGID_8_" gradientUnits="userSpaceOnUse" x1="29.8906" y1="46.5342" x2="29.8906" y2="28.5889">
					<stop  offset="0" style="stop-color:#1A1A1A"/>
					<stop  offset="0.2656" style="stop-color:#212121"/>
					<stop  offset="0.6695" style="stop-color:#363636"/>
					<stop  offset="1" style="stop-color:#4D4D4D"/>
				</linearGradient>
				<path fill="url(#SVGID_8_)" d="M30.49,39.376c-0.098,0-0.215,0.004-0.352,0.013c-0.484,0.025-0.771,0.038-0.859,0.038
					c-0.711,0-1.279-0.017-1.709-0.051c-0.111-0.025-0.201-0.043-0.266-0.051c-0.33-0.052-0.566-0.145-0.709-0.281
					c-0.141-0.136-0.211-0.289-0.211-0.459c0-0.188,0.068-0.349,0.205-0.485c0.232-0.237,0.67-0.572,1.213-0.786
					c0.625,0.228,1.311,0.357,2.035,0.357c2.83,0,5.125-1.931,5.125-4.312c0-0.8-0.275-1.54-0.727-2.183
					c0.484-0.131,1.004-0.419,1.252-0.667c0.439-0.438,0.439-1.151,0-1.59c-0.439-0.439-1.152-0.439-1.59-0.001
					c-0.246,0.244-0.529,0.754-0.662,1.234c-0.906-0.681-2.088-1.106-3.398-1.106c-2.83,0-5.125,1.931-5.125,4.312
					c0,1.416,0.822,2.66,2.074,3.447c-1.205,0.351-2.654,1.22-2.654,2.507c0,0.476,0.182,0.907,0.545,1.295
					c0.363,0.387,1.09,0.725,2.18,1.014c-1.309,0.46-2.117,0.854-2.428,1.181c-0.312,0.327-0.467,0.699-0.467,1.116
					c0,0.426,0.186,0.825,0.557,1.199c0.484,0.502,1.152,0.863,2.004,1.085c0.852,0.221,1.814,0.332,2.889,0.332
					c0.992,0,1.924-0.119,2.791-0.357s1.531-0.509,1.992-0.811s0.826-0.693,1.096-1.174s0.406-0.972,0.406-1.474
					c0-0.936-0.385-1.727-1.15-2.373C33.771,39.699,32.42,39.376,30.49,39.376z M29.838,30.124c1.131,0,2.047,1.396,2.047,3.117
					s-0.916,3.117-2.047,3.117s-2.047-1.396-2.047-3.117S28.707,30.124,29.838,30.124z M33.359,44.646
					c-0.662,0.536-1.59,0.876-2.785,1.021c-0.387,0.034-0.678,0.051-0.871,0.051c-0.678,0-1.312-0.085-1.902-0.255
					c-0.588-0.17-1.008-0.401-1.26-0.695c-0.25-0.293-0.375-0.589-0.375-0.887c0-0.562,0.225-1.013,0.672-1.353
					c0.449-0.34,1.326-0.511,2.635-0.511l1.49,0.026c0.678,0,1.223,0.042,1.635,0.127c0.289,0.068,0.551,0.189,0.779,0.364
					c0.23,0.174,0.391,0.351,0.479,0.529c0.09,0.179,0.135,0.361,0.135,0.549C33.99,43.952,33.779,44.297,33.359,44.646z"/>
			</g>
		</g>
		<g>
			<linearGradient id="SVGID_9_" gradientUnits="userSpaceOnUse" x1="21.2871" y1="18.2236" x2="21.2871" y2="0">
				<stop  offset="0" style="stop-color:#986226"/>
				<stop  offset="1" style="stop-color:#B7772A"/>
			</linearGradient>
			<path fill="url(#SVGID_9_)" d="M42.574,18.224c-0.148-3.484-4.099-7.068-7.756-10.671c-2.209-2.176-4.43-4.533-6.209-5.984
				C27.285,0.49,26.621,0,24.164,0C17.854,0,3.4,0,3.4,0C1.529,0,0,1.531,0,3.402v14.821H42.574z"/>
			<g>
				<linearGradient id="SVGID_10_" gradientUnits="userSpaceOnUse" x1="28.7168" y1="13.8711" x2="34.825" y2="7.7629">
					<stop  offset="0" style="stop-color:#EBDCC2"/>
					<stop  offset="0.8834" style="stop-color:#E3CDA6"/>
					<stop  offset="1" style="stop-color:#CC912A"/>
				</linearGradient>
				<path fill="url(#SVGID_10_)" d="M42.574,17.973c-0.061-1.941-0.529-3.271-1.861-4.871c-2.949-3.539-8.281-8.176-11.895-11.578
					c-1.426-1.34-2.664-1.516-4.559-1.521C24.201,0,24.164,0,24.164,0c2.027,0,3.686,0.447,3.686,2.475v9.428
					c0,1.561,1.275,2.836,2.834,2.836h8.219c2.018,0,3.668,1.645,3.682,3.66c0,0.008,0.002,0.016,0.002,0.023
					c0-0.002,0-0.004,0-0.004c0,0.002,0,0.004,0,0.006C42.586,18.424,42.592,18.25,42.574,17.973z"/>
				<linearGradient id="SVGID_11_" gradientUnits="userSpaceOnUse" x1="29.0566" y1="13.5312" x2="34.8459" y2="7.742">
					<stop  offset="0.2577" style="stop-color:#DBB05D"/>
					<stop  offset="0.4634" style="stop-color:#DAAD59"/>
					<stop  offset="0.674" style="stop-color:#D6A64D"/>
					<stop  offset="0.8861" style="stop-color:#D09A38"/>
					<stop  offset="1" style="stop-color:#CC912A"/>
				</linearGradient>
				<path fill="url(#SVGID_11_)" d="M42.574,17.973c-0.061-1.941-0.529-3.271-1.861-4.871c-2.949-3.539-8.281-8.176-11.895-11.578
					c-1.426-1.34-2.664-1.516-4.559-1.521C24.201,0,24.164,0,24.164,0c2.027,0,4.27,0.521,4.27,2.834v9.068
					c0,1.561,1.482,2.836,3.041,2.836h7.428c2.018,0,3.668,1.645,3.682,3.66c0,0.008,0.002,0.016,0.002,0.023
					c0-0.002,0-0.004,0-0.004c0,0.002,0,0.004,0,0.006C42.586,18.424,42.592,18.25,42.574,17.973z"/>
			</g>
			<linearGradient id="SVGID_12_" gradientUnits="userSpaceOnUse" x1="21.2793" y1="18.2236" x2="21.2793" y2="0.8516">
				<stop  offset="0" style="stop-color:#B7772A"/>
				<stop  offset="1" style="stop-color:#D19D33"/>
			</linearGradient>
			<path fill="url(#SVGID_12_)" d="M41.708,18.224c-0.146-1.655-1.715-1.985-2.806-1.985h-8.219c-1.559,0-2.834-1.275-2.834-2.836
				V3.162c0-1.559-1.275-2.311-2.836-2.311H3.684c-1.559,0-2.834,1.275-2.834,2.834v14.538H41.708z"/>
		</g>
	</g>
	<g>
		<linearGradient id="SVGID_13_" gradientUnits="userSpaceOnUse" x1="7.8662" y1="14.3398" x2="7.8662" y2="6.0439">
			<stop  offset="0" style="stop-color:#E0E0E0"/>
			<stop  offset="0.288" style="stop-color:#F0F0F0"/>
			<stop  offset="0.6289" style="stop-color:#FBFBFB"/>
			<stop  offset="1" style="stop-color:#FFFFFF"/>
		</linearGradient>
		<path fill="url(#SVGID_13_)" d="M7.866,6.044c2.464,0,3.8,1.728,3.8,4.049c0,2.233-1.232,4.247-3.8,4.247
			c-2.692,0-3.8-1.849-3.8-4.247C4.066,7.771,5.402,6.044,7.866,6.044z M7.866,12.887c1.556,0,2.087-1.275,2.087-2.794
			S9.265,7.496,7.866,7.496s-2.087,1.078-2.087,2.597S6.259,12.887,7.866,12.887z"/>
		<linearGradient id="SVGID_14_" gradientUnits="userSpaceOnUse" x1="15.0908" y1="14.2949" x2="15.0908" y2="6.2314">
			<stop  offset="0" style="stop-color:#E0E0E0"/>
			<stop  offset="0.288" style="stop-color:#F0F0F0"/>
			<stop  offset="0.6289" style="stop-color:#FBFBFB"/>
			<stop  offset="1" style="stop-color:#FFFFFF"/>
		</linearGradient>
		<path fill="url(#SVGID_14_)" d="M14.234,7.749h-1.617c-0.49,0-0.887-0.264-0.887-0.759s0.396-0.759,0.887-0.759h4.947
			c0.49,0,0.887,0.264,0.887,0.759s-0.396,0.759-0.887,0.759h-1.618v5.645c0,0.539-0.334,0.901-0.856,0.901
			c-0.521,0-0.855-0.362-0.855-0.901V7.749z"/>
		<linearGradient id="SVGID_15_" gradientUnits="userSpaceOnUse" x1="21.9707" y1="14.2949" x2="21.9707" y2="6.2314">
			<stop  offset="0" style="stop-color:#E0E0E0"/>
			<stop  offset="0.288" style="stop-color:#F0F0F0"/>
			<stop  offset="0.6289" style="stop-color:#FBFBFB"/>
			<stop  offset="1" style="stop-color:#FFFFFF"/>
		</linearGradient>
		<path fill="url(#SVGID_15_)" d="M19.152,7.287c0-0.803,0.396-1.056,1.002-1.056h3.768c0.501,0,0.867,0.153,0.867,0.726
			s-0.366,0.727-0.867,0.727h-3.059v1.848h2.59c0.448,0,0.803,0.133,0.803,0.693c0,0.562-0.354,0.693-0.803,0.693h-2.59v2.476
			c0,0.539-0.334,0.901-0.855,0.901s-0.855-0.362-0.855-0.901V7.287z"/>
	</g>
</g>
</svg>
