<?xml version="1.0" encoding="utf-8"?>
<!-- Generator: Adobe Illustrator 16.0.3, SVG Export Plug-In . SVG Version: 6.00 Build 0)  -->
<!DOCTYPE svg PUBLIC "-//W3C//DTD SVG 1.1//EN" "http://www.w3.org/Graphics/SVG/1.1/DTD/svg11.dtd">
<svg version="1.1" id="Layer_1" xmlns="http://www.w3.org/2000/svg" xmlns:xlink="http://www.w3.org/1999/xlink" x="0px" y="0px"
	 width="43px" height="51px" viewBox="0 0 43 51" enable-background="new 0 0 43 51" xml:space="preserve">
<g>
	<g>
		<linearGradient id="SVGID_1_" gradientUnits="userSpaceOnUse" x1="21.2939" y1="50.7656" x2="21.2939" y2="0">
			<stop  offset="0" style="stop-color:#CCCCCC"/>
			<stop  offset="0.3187" style="stop-color:#C7C7C7"/>
			<stop  offset="1" style="stop-color:#BFBFBF"/>
		</linearGradient>
		<path fill="url(#SVGID_1_)" d="M3.401,50.766C1.53,50.766,0,49.234,0,47.363V3.402C0,1.531,1.53,0,3.401,0c0,0,14.453,0,20.763,0
			c2.458,0,3.122,0.49,4.446,1.568c1.779,1.451,3.999,3.809,6.208,5.984c3.728,3.672,7.77,7.324,7.77,10.871
			c0,7.213,0,28.939,0,28.939c-0.001,1.871-1.531,3.402-3.402,3.402H3.401z"/>
		<linearGradient id="SVGID_2_" gradientUnits="userSpaceOnUse" x1="21.293" y1="49.9141" x2="21.293" y2="0.8516">
			<stop  offset="0" style="stop-color:#FFFFFF"/>
			<stop  offset="0.3735" style="stop-color:#F8F8F8"/>
			<stop  offset="0.9283" style="stop-color:#E4E4E4"/>
			<stop  offset="1" style="stop-color:#E0E0E0"/>
		</linearGradient>
		<path fill="url(#SVGID_2_)" d="M38.902,16.238h-8.219c-1.559,0-2.834-1.275-2.834-2.836V3.162c0-1.559-1.275-2.311-2.835-2.311
			H3.685c-1.559,0-2.834,1.275-2.834,2.834V47.08c0,1.559,1.275,2.834,2.834,2.834h35.218c1.559,0,2.834-1.275,2.834-2.834V18.459
			C41.736,16.584,40.047,16.238,38.902,16.238z"/>
		<g>
			<linearGradient id="SVGID_3_" gradientUnits="userSpaceOnUse" x1="21.2871" y1="18.2236" x2="21.2871" y2="0">
				<stop  offset="0" style="stop-color:#C3161C"/>
				<stop  offset="1" style="stop-color:#D71921"/>
			</linearGradient>
			<path fill="url(#SVGID_3_)" d="M42.574,18.224c-0.148-3.484-4.098-7.068-7.756-10.671C32.609,5.377,30.39,3.02,28.61,1.568
				C27.286,0.49,26.622,0,24.164,0C17.854,0,3.401,0,3.401,0C1.53,0,0,1.531,0,3.402v14.821H42.574z"/>
			<g>
				<linearGradient id="SVGID_4_" gradientUnits="userSpaceOnUse" x1="28.7178" y1="13.8711" x2="34.8258" y2="7.763">
					<stop  offset="0" style="stop-color:#FBBC85"/>
					<stop  offset="0.8834" style="stop-color:#F27043"/>
					<stop  offset="1" style="stop-color:#EC1C24"/>
				</linearGradient>
				<path fill="url(#SVGID_4_)" d="M42.574,17.973c-0.061-1.941-0.529-3.271-1.861-4.871c-2.948-3.539-8.281-8.176-11.894-11.578
					c-1.426-1.34-2.665-1.516-4.56-1.521C24.202,0,24.164,0,24.164,0c2.027,0,3.686,0.447,3.686,2.475v9.428
					c0,1.561,1.275,2.836,2.834,2.836h8.219c2.019,0,3.669,1.645,3.683,3.66c0,0.008,0.002,0.016,0.002,0.023
					c0-0.002,0-0.004,0-0.004c0,0.002,0,0.004,0,0.006C42.587,18.424,42.593,18.25,42.574,17.973z"/>
				<linearGradient id="SVGID_5_" gradientUnits="userSpaceOnUse" x1="29.0576" y1="13.5317" x2="34.8464" y2="7.7429">
					<stop  offset="0.2577" style="stop-color:#F27043"/>
					<stop  offset="0.4173" style="stop-color:#F26C41"/>
					<stop  offset="0.5806" style="stop-color:#F1603D"/>
					<stop  offset="0.7457" style="stop-color:#EF4B35"/>
					<stop  offset="0.9111" style="stop-color:#ED2F2B"/>
					<stop  offset="1" style="stop-color:#EC1C24"/>
				</linearGradient>
				<path fill="url(#SVGID_5_)" d="M42.574,17.973c-0.061-1.941-0.529-3.271-1.861-4.871c-2.948-3.539-8.281-8.176-11.894-11.578
					c-1.426-1.34-2.665-1.516-4.56-1.521C24.202,0,24.164,0,24.164,0c2.027,0,4.27,0.521,4.27,2.834v9.068
					c0,1.561,1.483,2.836,3.042,2.836h7.427c2.019,0,3.669,1.645,3.683,3.66c0,0.008,0.002,0.016,0.002,0.023
					c0-0.002,0-0.004,0-0.004c0,0.002,0,0.004,0,0.006C42.587,18.424,42.593,18.25,42.574,17.973z"/>
			</g>
			<linearGradient id="SVGID_6_" gradientUnits="userSpaceOnUse" x1="21.2793" y1="18.2236" x2="21.2793" y2="0.8516">
				<stop  offset="0" style="stop-color:#E01B22"/>
				<stop  offset="1" style="stop-color:#EC1C24"/>
			</linearGradient>
			<path fill="url(#SVGID_6_)" d="M41.709,18.224c-0.146-1.655-1.715-1.985-2.807-1.985h-8.219c-1.559,0-2.834-1.275-2.834-2.836
				V3.162c0-1.559-1.275-2.311-2.835-2.311H3.685c-1.559,0-2.834,1.275-2.834,2.834v14.538H41.709z"/>
		</g>
		<g>
			<rect x="13.752" y="29.913" fill="#CCCCCC" width="0.48" height="0.479"/>
			<rect x="12.474" y="29.913" fill="#CCCCCC" width="0.477" height="0.479"/>
			<rect x="11.192" y="29.913" fill="#CCCCCC" width="0.479" height="0.479"/>
			<rect x="10.563" y="29.913" fill="#CCCCCC" width="0.481" height="0.479"/>
			<rect x="8.632" y="29.913" fill="#CCCCCC" width="0.481" height="0.479"/>
			<rect x="7.992" y="29.913" fill="#CCCCCC" width="0.477" height="0.479"/>
			<rect x="6.71" y="29.913" fill="#CCCCCC" width="0.481" height="0.479"/>
			<rect x="5.432" y="29.913" fill="#CCCCCC" width="0.477" height="0.479"/>
			<rect x="4.789" y="29.913" fill="#CCCCCC" width="0.481" height="0.479"/>
			<rect x="13.752" y="30.55" fill="#CCCCCC" width="0.48" height="0.482"/>
			<rect x="12.474" y="30.55" fill="#CCCCCC" width="0.477" height="0.482"/>
			<rect x="9.871" y="30.55" fill="#CCCCCC" width="0.478" height="0.482"/>
			<rect x="11.83" y="30.55" fill="#CCCCCC" width="0.481" height="0.482"/>
			<rect x="10.554" y="30.55" fill="#CCCCCC" width="0.476" height="0.482"/>
			<rect x="9.271" y="30.55" fill="#CCCCCC" width="0.48" height="0.482"/>
			<rect x="7.349" y="30.55" fill="#CCCCCC" width="0.481" height="0.482"/>
			<rect x="6.066" y="30.55" fill="#CCCCCC" width="0.482" height="0.482"/>
			<rect x="5.432" y="30.55" fill="#CCCCCC" width="0.477" height="0.482"/>
			<rect x="7.996" y="30.55" fill="#CCCCCC" width="0.477" height="0.482"/>
			<rect x="13.123" y="30.55" fill="#CCCCCC" width="0.481" height="0.482"/>
			<rect x="13.752" y="33.898" fill="#CCCCCC" width="0.481" height="0.48"/>
			<rect x="12.476" y="33.898" fill="#CCCCCC" width="0.477" height="0.48"/>
			<rect x="11.192" y="33.898" fill="#CCCCCC" width="0.481" height="0.48"/>
			<rect x="9.914" y="33.898" fill="#CCCCCC" width="0.478" height="0.48"/>
			<rect x="8.632" y="33.898" fill="#CCCCCC" width="0.481" height="0.48"/>
			<rect x="7.993" y="33.898" fill="#CCCCCC" width="0.478" height="0.48"/>
			<rect x="6.712" y="33.898" fill="#CCCCCC" width="0.48" height="0.48"/>
			<rect x="4.789" y="33.898" fill="#CCCCCC" width="0.483" height="0.48"/>
			<rect x="12.476" y="34.532" fill="#CCCCCC" width="0.477" height="0.482"/>
			<rect x="11.83" y="34.532" fill="#CCCCCC" width="0.481" height="0.482"/>
			<rect x="10.553" y="34.532" fill="#CCCCCC" width="0.478" height="0.482"/>
			<rect x="8.642" y="34.532" fill="#CCCCCC" width="0.481" height="0.482"/>
			<rect x="9.271" y="34.532" fill="#CCCCCC" width="0.482" height="0.482"/>
			<rect x="7.35" y="34.532" fill="#CCCCCC" width="0.48" height="0.482"/>
			<rect x="6.068" y="34.532" fill="#CCCCCC" width="0.48" height="0.482"/>
			<rect x="5.434" y="34.532" fill="#CCCCCC" width="0.477" height="0.482"/>
			<rect x="4.798" y="34.532" fill="#CCCCCC" width="0.481" height="0.482"/>
			<rect x="7.996" y="34.532" fill="#CCCCCC" width="0.479" height="0.482"/>
			<rect x="13.123" y="34.532" fill="#CCCCCC" width="0.481" height="0.482"/>
			<rect x="13.751" y="37.879" fill="#CCCCCC" width="0.481" height="0.479"/>
			<rect x="12.473" y="37.879" fill="#CCCCCC" width="0.478" height="0.479"/>
			<rect x="11.19" y="37.879" fill="#CCCCCC" width="0.482" height="0.479"/>
			<rect x="9.912" y="37.879" fill="#CCCCCC" width="0.479" height="0.479"/>
			<rect x="8.631" y="37.879" fill="#CCCCCC" width="0.481" height="0.479"/>
			<rect x="7.992" y="37.879" fill="#CCCCCC" width="0.477" height="0.479"/>
			<rect x="6.709" y="37.879" fill="#CCCCCC" width="0.483" height="0.479"/>
			<rect x="5.432" y="37.879" fill="#CCCCCC" width="0.479" height="0.479"/>
			<rect x="4.789" y="37.879" fill="#CCCCCC" width="0.481" height="0.479"/>
			<rect x="13.751" y="38.52" fill="#CCCCCC" width="0.481" height="0.479"/>
			<rect x="12.473" y="38.52" fill="#CCCCCC" width="0.478" height="0.479"/>
			<rect x="11.83" y="38.52" fill="#CCCCCC" width="0.481" height="0.479"/>
			<rect x="10.552" y="38.52" fill="#CCCCCC" width="0.478" height="0.479"/>
			<rect x="9.922" y="38.52" fill="#CCCCCC" width="0.476" height="0.479"/>
			<rect x="9.271" y="38.52" fill="#CCCCCC" width="0.48" height="0.479"/>
			<rect x="7.35" y="38.52" fill="#CCCCCC" width="0.48" height="0.479"/>
			<rect x="6.068" y="38.52" fill="#CCCCCC" width="0.48" height="0.479"/>
			<rect x="5.432" y="38.52" fill="#CCCCCC" width="0.479" height="0.479"/>
			<rect x="4.796" y="38.52" fill="#CCCCCC" width="0.482" height="0.479"/>
			<rect x="7.994" y="38.52" fill="#CCCCCC" width="0.479" height="0.479"/>
			<rect x="13.123" y="38.52" fill="#CCCCCC" width="0.479" height="0.479"/>
		</g>
		<g>
			<g>
				<g>
					
						<radialGradient id="SVGID_7_" cx="-253.4014" cy="300.0078" r="22.3656" gradientTransform="matrix(0.8543 0 0 0.8883 247.6419 -227.3564)" gradientUnits="userSpaceOnUse">
						<stop  offset="0.1044" style="stop-color:#FFFFFF"/>
						<stop  offset="0.2967" style="stop-color:#F0AEB5"/>
						<stop  offset="1" style="stop-color:#BA4E47"/>
					</radialGradient>
					<rect x="16.453" y="29.368" fill="url(#SVGID_7_)" width="20.903" height="13.71"/>
					
						<radialGradient id="SVGID_8_" cx="-252.9712" cy="431.8047" r="8.6581" gradientTransform="matrix(0.8543 0 0 0.8226 247.6326 -317.0718)" gradientUnits="userSpaceOnUse">
						<stop  offset="0.2088" style="stop-color:#ECAEB2"/>
						<stop  offset="1" style="stop-color:#BB5B54"/>
					</radialGradient>
					<rect x="16.452" y="38.072" fill="url(#SVGID_8_)" width="20.903" height="5.006"/>
					<path fill="#801517" d="M36.889,40.323c-1.718,0.405-8.868,1.947-13.307-0.037c-0.688-0.307-1.552,0.176-2.158-0.286
						c-0.857-0.659-1.87-0.648-2.92-0.757c-0.668-0.067-0.213-0.855-0.699-1.285c-0.361-0.318-0.885-0.302-1.354-0.339l0.041,5.941
						c0.58,0.001,1.158-0.001,1.737,0c2.503,0.001,5.006,0,7.51-0.001c1.567,0,10.089,0,11.657,0
						C37.367,42.563,37.453,40.188,36.889,40.323z"/>
					<path fill="#801517" d="M21.354,32.863c-0.142,0.069-0.222,0.306-0.255,0.45c-0.109,0.492-0.258,0.979-0.42,1.457
						c-0.33,0.954-0.74,1.88-1.258,2.743c-0.445,0.747-1.052,1.295-1.666,1.888c-0.379,0.367-0.865,0.465-1.305,0.688l0.001,2.989
						l0.362-0.001c0.146-0.126,0.287-0.257,0.427-0.343c0.205-0.13,0.313-1.5,0.442-1.695c0.18-0.266,0.439-0.431,0.67-0.648
						c0.428-0.398,0.748-0.887,1.057-1.385c0.365-0.59,0.747-1.179,1.034-1.819c0.298-0.67,0.524-1.37,0.753-2.068
						c0.147-0.458,0.318-0.896,0.482-1.347c0.063-0.175,0.234-0.495,0.152-0.681C21.766,32.938,21.504,32.789,21.354,32.863z"/>
					<path fill="#801517" d="M24.362,35.457c-0.044-0.242-0.17-0.416-0.276-0.634c0.069,0.038,0.129,0.025,0.2,0.042
						c-0.103-0.239-0.419-0.462-0.46-0.709c0.07,0.005,0.129-0.021,0.201,0c-0.094-0.182-0.305-0.345-0.477-0.423
						c0.042-0.079,0.001-0.096,0.122-0.115c-0.226-0.157-0.55-0.176-0.776-0.321c0.059-0.056,0.143-0.095,0.213-0.139
						c-0.154-0.124-0.385-0.074-0.564-0.15c0.037-0.035,0.044-0.087,0.072-0.119c-0.062,0.003-0.226,0.043-0.398,0.105
						c0.031-0.027,0.066-0.052,0.104-0.067c-0.062-0.065-0.133-0.107-0.216-0.132c0.063-0.071,0.153-0.129,0.201-0.219
						c-0.212-0.169-0.584-0.174-0.815-0.082c0.004-0.034-0.006-0.085,0.002-0.122c-0.086,0.021-0.201,0.169-0.271,0.175
						c-0.075,0.003-0.234-0.143-0.312-0.168c-0.008,0.086,0.019,0.171,0.033,0.257c-0.151-0.13-0.324-0.285-0.502-0.287
						c0.021,0.039,0.016,0.091,0.027,0.122c-0.191,0.07-0.305-0.097-0.477-0.124c0.053,0.052,0.072,0.131,0.111,0.188
						c-0.149,0.045-0.355-0.047-0.525-0.014c0.068,0.048,0.133,0.106,0.182,0.175c-0.172,0.037-0.316,0.098-0.471,0.174
						c0.076,0.001,0.127,0.035,0.196,0.052c-0.151,0.071-0.316,0.126-0.438,0.242c0.08,0.026,0.166,0.024,0.24-0.007
						c-0.119,0.097-0.228,0.214-0.291,0.354c-0.139,0.064-0.278,0.133-0.413,0.216c0.116,0.016,0.239-0.028,0.339,0.04
						c-0.311,0.062-0.621,0.165-0.889,0.349c0.145,0.082,0.324,0.004,0.482,0.035c-0.271,0.146-0.686,0.449-0.808,0.756
						c0.136-0.034,0.278-0.087,0.421-0.069c-0.139,0.118-0.273,0.288-0.353,0.464c0.091-0.043,0.194-0.105,0.308-0.107
						c-0.096,0.27-0.189,0.604-0.303,0.856c0.091-0.087,0.176-0.193,0.277-0.271c0.061,0.238,0.012,0.481,0.1,0.712
						c0.102-0.296,0.112-0.632,0.188-0.932c0.113,0.109,0.145,0.293,0.217,0.432c0.095-0.244,0.082-0.516,0.117-0.773
						c0.111,0.083,0.094,0.246,0.203,0.316c0.036-0.219,0.094-0.447,0.154-0.659c0.054,0.078,0.07,0.19,0.092,0.284
						c0.142-0.172,0.219-0.479,0.32-0.688c0.006,0.098,0.002,0.203,0.021,0.301c0.126-0.229,0.208-0.477,0.357-0.688
						c-0.006,0.07-0.012,0.142-0.018,0.212c-0.076,0.104-0.145,0.189-0.172,0.195c0.078-0.012,0.117,0.035,0.174,0.048
						c-0.063,0.129-0.186,0.226-0.274,0.339c0.054-0.002,0.121,0.031,0.177,0.029c-0.066,0.089-0.129,0.19-0.161,0.304
						c0.037-0.015,0.126-0.009,0.163-0.025c-0.017,0.125-0.086,0.253-0.115,0.364c0.074-0.032,0.143-0.086,0.211-0.12
						c0.025,0.065,0.083,0.12,0.111,0.184c0.09-0.037,0.11-0.151,0.137-0.252c0.014,0.026,0.029,0.054,0.043,0.077
						c0.108-0.121,0.065-0.319,0.156-0.461c0.062,0.104,0.161,0.064,0.268-0.034c-0.071,0.133-0.119,0.274-0.18,0.416
						c0.098-0.012,0.176-0.086,0.248-0.162c-0.029,0.325-0.136,0.691-0.123,1.014c0.086-0.084,0.162-0.203,0.252-0.269
						c-0.047,0.206-0.062,0.438-0.065,0.651c0.038-0.054,0.098-0.128,0.146-0.187c0.012,0.287,0.034,0.564,0.113,0.83
						c0.157-0.308,0.329,0.062,0.451,0.23c0.039-0.084,0.062-0.182,0.105-0.237c0.037,0.122,0.123,0.215,0.225,0.27
						c0.072-0.27,0.059-0.659,0.001-0.927c0.046,0.033,0.127,0.076,0.172,0.137c0.006-0.234-0.108-0.508-0.228-0.665
						c0.08,0.055,0.158,0.109,0.244,0.156c-0.022-0.271-0.271-0.511-0.291-0.762c0.025,0.026,0.074,0.048,0.105,0.078
						c0.006-0.24-0.07-0.502-0.128-0.737c0.036,0.05,0.095,0.075,0.135,0.117c-0.017-0.017-0.022-0.105-0.026-0.219
						c0.029-0.019,0.066-0.042,0.083-0.064c-0.05,0.174-0.028,0.365-0.06,0.547c0.039-0.032,0.084-0.032,0.122-0.07
						c0.015,0.112,0.005,0.243,0.031,0.343c0.032-0.038,0.071-0.052,0.104-0.104c0.051,0.145,0.053,0.352,0.139,0.49
						c0.048-0.103,0.049-0.215,0.055-0.332c0.046,0.097,0.104,0.19,0.191,0.242c0.006-0.182-0.016-0.35-0.066-0.539
						c0.048,0.098,0.143,0.156,0.237,0.177c-0.004-0.18-0.062-0.376-0.138-0.546c0.069,0.039,0.143,0.065,0.213,0.099
						c-0.019-0.264-0.181-0.416-0.24-0.661c0.005,0.015,0.041,0.021,0.08,0.028c0.011,0.027,0.021,0.055,0.027,0.083
						c0.028-0.019,0.047-0.044,0.064-0.074c0.02,0,0.037,0,0.043,0c-0.004-0.029-0.012-0.062-0.018-0.097
						c0.002-0.024,0-0.049-0.002-0.072c0.121,0.168,0.178,0.338,0.194,0.552c0.04-0.059,0.106-0.072,0.152-0.119
						c0.065,0.195,0.04,0.406-0.001,0.602c0.055-0.049,0.137-0.067,0.194-0.1c0.083,0.179,0.031,0.498-0.025,0.678
						c0.102,0.021,0.18-0.036,0.196-0.147c0.057,0.26-0.001,0.518-0.006,0.776c0.111-0.105,0.258-0.162,0.334-0.307
						c0.066,0.178,0.105,0.419,0.16,0.622c0.074-0.065,0.099-0.182,0.137-0.281c0.068,0.104,0.111,0.271,0.183,0.369
						c-0.033-0.296,0.001-0.672,0.029-0.974c0.021,0.101,0.057,0.21,0.116,0.284c0.133-0.26,0.008-0.554-0.141-0.775
						C24.162,35.37,24.26,35.409,24.362,35.457z"/>
				</g>
			</g>
			<g>
				<polygon fill="#E8E6E5" points="36.896,29.911 36.896,43.048 37.528,43.681 37.529,29.278 				"/>
				<polygon fill="#CAC5C5" points="36.896,29.91 37.529,29.278 16.175,29.278 16.807,29.91 				"/>
				<polygon fill="#E8E6E5" points="16.175,29.278 16.175,43.681 16.807,43.049 16.807,29.91 				"/>
				<polygon fill="#F9F8F7" points="36.896,43.048 16.807,43.049 16.175,43.681 37.528,43.681 				"/>
			</g>
		</g>
		<g>
			<g>
				<rect x="15.229" y="25.485" fill="#808080" width="0.511" height="0.514"/>
				<rect x="14.539" y="25.485" fill="#808080" width="0.518" height="0.514"/>
				<rect x="16.61" y="25.485" fill="#808080" width="0.518" height="0.514"/>
				<rect x="13.17" y="25.485" fill="#808080" width="0.512" height="0.514"/>
				<rect x="11.797" y="25.485" fill="#808080" width="0.514" height="0.514"/>
				<rect x="10.426" y="25.485" fill="#808080" width="0.51" height="0.514"/>
				<rect x="9.051" y="25.485" fill="#808080" width="0.514" height="0.514"/>
				<rect x="8.365" y="25.485" fill="#808080" width="0.512" height="0.514"/>
				<rect x="6.992" y="25.485" fill="#808080" width="0.514" height="0.514"/>
				<rect x="5.621" y="25.485" fill="#808080" width="0.511" height="0.514"/>
				<rect x="4.93" y="25.485" fill="#808080" width="0.518" height="0.514"/>
				<rect x="16.6" y="24.799" fill="#808080" width="0.516" height="0.514"/>
				<rect x="15.914" y="24.799" fill="#808080" width="0.512" height="0.514"/>
				<rect x="14.539" y="24.799" fill="#808080" width="0.518" height="0.514"/>
				<rect x="13.17" y="24.799" fill="#808080" width="0.512" height="0.514"/>
				<rect x="12.48" y="24.799" fill="#808080" width="0.514" height="0.514"/>
				<rect x="11.109" y="24.799" fill="#808080" width="0.512" height="0.514"/>
				<rect x="10.432" y="24.799" fill="#808080" width="0.511" height="0.514"/>
				<rect x="9.736" y="24.799" fill="#808080" width="0.515" height="0.514"/>
				<rect x="7.677" y="24.799" fill="#808080" width="0.514" height="0.514"/>
				<rect x="6.301" y="24.799" fill="#808080" width="0.516" height="0.514"/>
				<rect x="5.621" y="24.799" fill="#808080" width="0.511" height="0.514"/>
				<rect x="4.938" y="24.799" fill="#808080" width="0.516" height="0.514"/>
				<rect x="8.369" y="24.799" fill="#808080" width="0.512" height="0.514"/>
				<rect x="19.42" y="25.485" fill="#808080" width="0.516" height="0.514"/>
				<rect x="18.045" y="25.485" fill="#808080" width="0.52" height="0.514"/>
				<rect x="17.359" y="25.485" fill="#808080" width="0.518" height="0.514"/>
				<rect x="19.428" y="24.799" fill="#808080" width="0.515" height="0.514"/>
				<rect x="18.733" y="24.799" fill="#808080" width="0.513" height="0.514"/>
				<rect x="17.363" y="24.799" fill="#808080" width="0.517" height="0.514"/>
				<rect x="13.865" y="24.799" fill="#808080" width="0.518" height="0.514"/>
				<rect x="28.277" y="25.485" fill="#808080" width="0.512" height="0.514"/>
				<rect x="26.904" y="25.485" fill="#808080" width="0.514" height="0.514"/>
				<rect x="25.533" y="25.485" fill="#808080" width="0.51" height="0.514"/>
				<rect x="24.158" y="25.485" fill="#808080" width="0.514" height="0.514"/>
				<rect x="23.473" y="25.485" fill="#808080" width="0.512" height="0.514"/>
				<rect x="28.277" y="24.799" fill="#808080" width="0.512" height="0.514"/>
				<rect x="27.588" y="24.799" fill="#808080" width="0.514" height="0.514"/>
				<rect x="26.217" y="24.799" fill="#808080" width="0.512" height="0.514"/>
				<rect x="25.539" y="24.799" fill="#808080" width="0.511" height="0.514"/>
				<rect x="24.844" y="24.799" fill="#808080" width="0.515" height="0.514"/>
				<rect x="22.784" y="24.799" fill="#808080" width="0.514" height="0.514"/>
				<rect x="23.477" y="24.799" fill="#808080" width="0.512" height="0.514"/>
				<rect x="28.973" y="24.799" fill="#808080" width="0.518" height="0.514"/>
			</g>
			<g>
				<g>
					<rect x="15.023" y="22.098" fill="#808080" width="0.514" height="0.514"/>
					<rect x="14.335" y="22.098" fill="#808080" width="0.516" height="0.514"/>
					<rect x="16.406" y="22.098" fill="#808080" width="0.516" height="0.514"/>
					<rect x="12.965" y="22.098" fill="#808080" width="0.512" height="0.514"/>
					<rect x="11.59" y="22.098" fill="#808080" width="0.516" height="0.514"/>
					<rect x="10.219" y="22.098" fill="#808080" width="0.514" height="0.514"/>
					<rect x="8.845" y="22.098" fill="#808080" width="0.516" height="0.514"/>
					<rect x="8.16" y="22.098" fill="#808080" width="0.511" height="0.514"/>
					<rect x="6.786" y="22.098" fill="#808080" width="0.514" height="0.514"/>
					<rect x="5.415" y="22.098" fill="#808080" width="0.511" height="0.514"/>
					<rect x="4.727" y="22.098" fill="#808080" width="0.514" height="0.514"/>
					<rect x="16.395" y="21.411" fill="#808080" width="0.517" height="0.518"/>
					<rect x="15.709" y="21.411" fill="#808080" width="0.513" height="0.518"/>
					<rect x="14.335" y="21.411" fill="#808080" width="0.516" height="0.518"/>
					<rect x="12.965" y="21.411" fill="#808080" width="0.512" height="0.518"/>
					<rect x="12.274" y="21.411" fill="#808080" width="0.518" height="0.518"/>
					<rect x="10.905" y="21.411" fill="#808080" width="0.511" height="0.518"/>
					<rect x="10.228" y="21.411" fill="#808080" width="0.513" height="0.518"/>
					<rect x="9.531" y="21.411" fill="#808080" width="0.516" height="0.518"/>
					<rect x="7.471" y="21.411" fill="#808080" width="0.516" height="0.518"/>
					<rect x="6.096" y="21.411" fill="#808080" width="0.516" height="0.518"/>
					<rect x="5.415" y="21.411" fill="#808080" width="0.511" height="0.518"/>
					<rect x="4.734" y="21.411" fill="#808080" width="0.516" height="0.518"/>
					<rect x="8.164" y="21.411" fill="#808080" width="0.51" height="0.518"/>
					<rect x="19.214" y="22.098" fill="#808080" width="0.515" height="0.514"/>
					<rect x="17.84" y="22.098" fill="#808080" width="0.52" height="0.514"/>
					<rect x="17.154" y="22.098" fill="#808080" width="0.516" height="0.514"/>
					<rect x="19.223" y="21.411" fill="#808080" width="0.516" height="0.518"/>
					<rect x="18.529" y="21.411" fill="#808080" width="0.512" height="0.518"/>
					<rect x="17.158" y="21.411" fill="#808080" width="0.516" height="0.518"/>
					<rect x="13.66" y="21.411" fill="#808080" width="0.516" height="0.518"/>
				</g>
				<g>
					<rect x="30.446" y="22.098" fill="#808080" width="0.513" height="0.514"/>
					<rect x="29.756" y="22.098" fill="#808080" width="0.516" height="0.514"/>
					<rect x="31.829" y="22.098" fill="#808080" width="0.514" height="0.514"/>
					<rect x="28.386" y="22.098" fill="#808080" width="0.513" height="0.514"/>
					<rect x="27.012" y="22.098" fill="#808080" width="0.516" height="0.514"/>
					<rect x="25.641" y="22.098" fill="#808080" width="0.514" height="0.514"/>
					<rect x="24.266" y="22.098" fill="#808080" width="0.518" height="0.514"/>
					<rect x="23.582" y="22.098" fill="#808080" width="0.512" height="0.514"/>
					<rect x="22.207" y="22.098" fill="#808080" width="0.516" height="0.514"/>
					<rect x="20.836" y="22.098" fill="#808080" width="0.513" height="0.514"/>
					<rect x="20.148" y="22.098" fill="#808080" width="0.516" height="0.514"/>
					<rect x="31.815" y="21.411" fill="#808080" width="0.517" height="0.518"/>
					<rect x="31.133" y="21.411" fill="#808080" width="0.51" height="0.518"/>
					<rect x="29.756" y="21.411" fill="#808080" width="0.516" height="0.518"/>
					<rect x="28.386" y="21.411" fill="#808080" width="0.513" height="0.518"/>
					<rect x="27.697" y="21.411" fill="#808080" width="0.516" height="0.518"/>
					<rect x="26.326" y="21.411" fill="#808080" width="0.513" height="0.518"/>
					<rect x="25.648" y="21.411" fill="#808080" width="0.513" height="0.518"/>
					<rect x="24.953" y="21.411" fill="#808080" width="0.516" height="0.518"/>
					<rect x="22.893" y="21.411" fill="#808080" width="0.517" height="0.518"/>
					<rect x="21.518" y="21.411" fill="#808080" width="0.518" height="0.518"/>
					<rect x="20.836" y="21.411" fill="#808080" width="0.513" height="0.518"/>
					<rect x="20.155" y="21.411" fill="#808080" width="0.516" height="0.518"/>
					<rect x="23.585" y="21.411" fill="#808080" width="0.513" height="0.518"/>
					<rect x="34.637" y="22.098" fill="#808080" width="0.516" height="0.514"/>
					<rect x="33.262" y="22.098" fill="#808080" width="0.521" height="0.514"/>
					<rect x="32.578" y="22.098" fill="#808080" width="0.516" height="0.514"/>
					<rect x="34.644" y="21.411" fill="#808080" width="0.517" height="0.518"/>
					<rect x="33.952" y="21.411" fill="#808080" width="0.513" height="0.518"/>
					<rect x="32.581" y="21.411" fill="#808080" width="0.516" height="0.518"/>
					<rect x="29.084" y="21.411" fill="#808080" width="0.514" height="0.518"/>
				</g>
			</g>
		</g>
		<rect x="13.752" y="42.507" fill="#CCCCCC" width="0.48" height="0.479"/>
		<rect x="12.474" y="42.507" fill="#CCCCCC" width="0.477" height="0.479"/>
		<rect x="11.192" y="42.507" fill="#CCCCCC" width="0.479" height="0.479"/>
		<rect x="10.563" y="42.507" fill="#CCCCCC" width="0.481" height="0.479"/>
		<rect x="8.632" y="42.507" fill="#CCCCCC" width="0.481" height="0.479"/>
		<rect x="7.992" y="42.507" fill="#CCCCCC" width="0.477" height="0.479"/>
		<rect x="6.71" y="42.507" fill="#CCCCCC" width="0.481" height="0.479"/>
		<rect x="5.432" y="42.507" fill="#CCCCCC" width="0.477" height="0.479"/>
		<rect x="4.789" y="42.507" fill="#CCCCCC" width="0.481" height="0.479"/>
		<rect x="13.752" y="41.864" fill="#CCCCCC" width="0.48" height="0.482"/>
		<rect x="12.474" y="41.864" fill="#CCCCCC" width="0.477" height="0.482"/>
		<rect x="9.871" y="41.864" fill="#CCCCCC" width="0.478" height="0.482"/>
		<rect x="11.83" y="41.864" fill="#CCCCCC" width="0.481" height="0.482"/>
		<rect x="10.554" y="41.864" fill="#CCCCCC" width="0.476" height="0.482"/>
		<rect x="9.271" y="41.864" fill="#CCCCCC" width="0.48" height="0.482"/>
		<rect x="7.349" y="41.864" fill="#CCCCCC" width="0.481" height="0.482"/>
		<rect x="6.066" y="41.864" fill="#CCCCCC" width="0.482" height="0.482"/>
		<rect x="5.432" y="41.864" fill="#CCCCCC" width="0.477" height="0.482"/>
		<rect x="7.996" y="41.864" fill="#CCCCCC" width="0.477" height="0.482"/>
		<rect x="13.123" y="41.864" fill="#CCCCCC" width="0.481" height="0.482"/>
	</g>
	<g>
		<linearGradient id="SVGID_9_" gradientUnits="userSpaceOnUse" x1="7.5117" y1="13.6719" x2="7.5117" y2="5.6084">
			<stop  offset="0" style="stop-color:#E0E0E0"/>
			<stop  offset="0.288" style="stop-color:#F0F0F0"/>
			<stop  offset="0.6289" style="stop-color:#FBFBFB"/>
			<stop  offset="1" style="stop-color:#FFFFFF"/>
		</linearGradient>
		<path fill="url(#SVGID_9_)" d="M4.401,6.664c0-0.803,0.397-1.056,1.002-1.056h2.62c1.439,0,2.599,0.748,2.599,2.508
			c0,1.441-0.95,2.509-2.609,2.509H6.113v2.146c0,0.539-0.334,0.901-0.855,0.901c-0.522,0-0.856-0.362-0.856-0.901V6.664z
			 M6.113,9.238H7.71c0.688,0,1.2-0.439,1.2-1.122c0-0.792-0.532-1.122-1.377-1.122h-1.42V9.238z"/>
		<linearGradient id="SVGID_10_" gradientUnits="userSpaceOnUse" x1="14.8242" y1="13.5293" x2="14.8242" y2="5.6084">
			<stop  offset="0" style="stop-color:#E0E0E0"/>
			<stop  offset="0.288" style="stop-color:#F0F0F0"/>
			<stop  offset="0.6289" style="stop-color:#FBFBFB"/>
			<stop  offset="1" style="stop-color:#FFFFFF"/>
		</linearGradient>
		<path fill="url(#SVGID_10_)" d="M11.49,6.664c0-0.803,0.396-1.056,1.002-1.056h2.087c1.868,0,3.58,0.857,3.58,3.96
			c0,2.509-1.325,3.961-3.611,3.961h-2.056c-0.605,0-1.002-0.253-1.002-1.056V6.664z M13.201,12.077h1.441
			c1.367,0,1.805-1.287,1.805-2.509c0-1.562-0.563-2.508-1.816-2.508h-1.43V12.077z"/>
		<linearGradient id="SVGID_11_" gradientUnits="userSpaceOnUse" x1="22.0117" y1="13.6719" x2="22.0117" y2="5.6084">
			<stop  offset="0" style="stop-color:#E0E0E0"/>
			<stop  offset="0.288" style="stop-color:#F0F0F0"/>
			<stop  offset="0.6289" style="stop-color:#FBFBFB"/>
			<stop  offset="1" style="stop-color:#FFFFFF"/>
		</linearGradient>
		<path fill="url(#SVGID_11_)" d="M19.194,6.664c0-0.803,0.396-1.056,1.002-1.056h3.768c0.501,0,0.866,0.153,0.866,0.726
			s-0.365,0.727-0.866,0.727h-3.058v1.848h2.588c0.449,0,0.804,0.133,0.804,0.693c0,0.562-0.354,0.693-0.804,0.693h-2.588v2.476
			c0,0.539-0.334,0.901-0.855,0.901c-0.522,0-0.856-0.362-0.856-0.901V6.664z"/>
	</g>
</g>
</svg>
