<?xml version="1.0" encoding="utf-8"?>
<!-- Generator: Adobe Illustrator 16.0.3, SVG Export Plug-In . SVG Version: 6.00 Build 0)  -->
<!DOCTYPE svg PUBLIC "-//W3C//DTD SVG 1.1//EN" "http://www.w3.org/Graphics/SVG/1.1/DTD/svg11.dtd">
<svg version="1.1" id="Layer_1" xmlns="http://www.w3.org/2000/svg" xmlns:xlink="http://www.w3.org/1999/xlink" x="0px" y="0px"
	 width="43px" height="51px" viewBox="0 0 43 51" enable-background="new 0 0 43 51" xml:space="preserve">
<g>
	<g>
		<linearGradient id="SVGID_1_" gradientUnits="userSpaceOnUse" x1="21.2939" y1="50.8828" x2="21.2939" y2="0.1172">
			<stop  offset="0" style="stop-color:#CCCCCC"/>
			<stop  offset="0.3187" style="stop-color:#C7C7C7"/>
			<stop  offset="1" style="stop-color:#BFBFBF"/>
		</linearGradient>
		<path fill="url(#SVGID_1_)" d="M3.402,50.883C1.531,50.883,0,49.352,0,47.48V3.52c0-1.871,1.531-3.402,3.402-3.402
			c0,0,14.453,0,20.762,0c2.459,0,3.123,0.49,4.447,1.568c1.779,1.451,3.998,3.809,6.207,5.984c3.729,3.672,7.77,7.324,7.77,10.871
			c0,7.213,0,28.939,0,28.939c0,1.871-1.531,3.402-3.402,3.402H3.402z"/>
		<linearGradient id="SVGID_2_" gradientUnits="userSpaceOnUse" x1="21.2939" y1="50.0312" x2="21.2939" y2="0.9688">
			<stop  offset="0" style="stop-color:#FFFFFF"/>
			<stop  offset="0.3735" style="stop-color:#F8F8F8"/>
			<stop  offset="0.9283" style="stop-color:#E4E4E4"/>
			<stop  offset="1" style="stop-color:#E0E0E0"/>
		</linearGradient>
		<path fill="url(#SVGID_2_)" d="M38.902,16.355h-8.219c-1.559,0-2.834-1.275-2.834-2.836V3.279c0-1.559-1.275-2.311-2.834-2.311
			H3.686c-1.559,0-2.834,1.275-2.834,2.834v43.395c0,1.559,1.275,2.834,2.834,2.834h35.217c1.559,0,2.834-1.275,2.834-2.834V18.576
			C41.736,16.701,40.047,16.355,38.902,16.355z"/>
		<g>
			<linearGradient id="SVGID_3_" gradientUnits="userSpaceOnUse" x1="21.2871" y1="0.1172" x2="21.2871" y2="18.3418">
				<stop  offset="0" style="stop-color:#252562"/>
				<stop  offset="1" style="stop-color:#104787"/>
			</linearGradient>
			<path fill="url(#SVGID_3_)" d="M42.574,18.342c-0.147-3.485-4.098-7.069-7.756-10.672c-2.209-2.176-4.428-4.533-6.207-5.984
				c-1.324-1.078-1.988-1.568-4.447-1.568c-6.309,0-20.762,0-20.762,0C1.531,0.117,0,1.648,0,3.52v14.822H42.574z"/>
			<g>
				<linearGradient id="SVGID_4_" gradientUnits="userSpaceOnUse" x1="28.7178" y1="13.9893" x2="34.8261" y2="7.8809">
					<stop  offset="0" style="stop-color:#B9CFD4"/>
					<stop  offset="1" style="stop-color:#6CABBF"/>
				</linearGradient>
				<path fill="url(#SVGID_4_)" d="M42.574,18.09c-0.061-1.941-0.529-3.271-1.861-4.871C37.766,9.68,32.432,5.043,28.82,1.641
					c-1.426-1.34-2.666-1.516-4.561-1.521c-0.057-0.002-0.096-0.002-0.096-0.002c2.027,0,3.686,0.447,3.686,2.475v9.428
					c0,1.561,1.275,2.836,2.834,2.836h8.219c2.02,0,3.67,1.645,3.684,3.66c0,0.008,0.002,0.016,0.002,0.023c0-0.002,0-0.004,0-0.004
					c0,0.002,0,0.004,0,0.006C42.588,18.541,42.594,18.367,42.574,18.09z"/>
				<linearGradient id="SVGID_5_" gradientUnits="userSpaceOnUse" x1="23.0073" y1="1.4727" x2="40.2319" y2="18.6973">
					<stop  offset="0" style="stop-color:#252562"/>
					<stop  offset="1" style="stop-color:#0066A1"/>
				</linearGradient>
				<path fill="url(#SVGID_5_)" d="M42.574,18.09c-0.061-1.941-0.529-3.271-1.861-4.871C37.766,9.68,32.432,5.043,28.82,1.641
					c-1.426-1.34-2.666-1.516-4.561-1.521c-0.057-0.002-0.096-0.002-0.096-0.002c2.027,0,4.27,0.521,4.27,2.834v9.068
					c0,1.561,1.484,2.836,3.043,2.836h7.426c2.02,0,3.67,1.645,3.684,3.66c0,0.008,0.002,0.016,0.002,0.023c0-0.002,0-0.004,0-0.004
					c0,0.002,0,0.004,0,0.006C42.588,18.541,42.594,18.367,42.574,18.09z"/>
			</g>
			<linearGradient id="SVGID_6_" gradientUnits="userSpaceOnUse" x1="21.2803" y1="18.3418" x2="21.2803" y2="0.9688">
				<stop  offset="0" style="stop-color:#252562"/>
				<stop  offset="1" style="stop-color:#0066A1"/>
			</linearGradient>
			<path fill="url(#SVGID_6_)" d="M41.709,18.342c-0.145-1.656-1.715-1.986-2.807-1.986h-8.219c-1.559,0-2.834-1.275-2.834-2.836
				V3.279c0-1.559-1.275-2.311-2.834-2.311H3.686c-1.559,0-2.834,1.275-2.834,2.834v14.539H41.709z"/>
		</g>
	</g>
</g>
<g>
	<linearGradient id="SVGID_7_" gradientUnits="userSpaceOnUse" x1="7.4038" y1="13.8086" x2="7.4038" y2="5.582">
		<stop  offset="0" style="stop-color:#E0E0E0"/>
		<stop  offset="0.288" style="stop-color:#F0F0F0"/>
		<stop  offset="0.6289" style="stop-color:#FBFBFB"/>
		<stop  offset="1" style="stop-color:#FFFFFF"/>
	</linearGradient>
	<path fill="url(#SVGID_7_)" d="M7.459,10.521H5.958v2.29c0,0.327-0.077,0.575-0.231,0.745c-0.155,0.169-0.35,0.253-0.585,0.253
		c-0.247,0-0.445-0.083-0.596-0.251c-0.151-0.167-0.226-0.412-0.226-0.736V6.587c0-0.36,0.083-0.618,0.248-0.772
		c0.166-0.155,0.429-0.232,0.789-0.232h2.103c0.622,0,1.1,0.048,1.435,0.144C9.225,5.817,9.51,5.971,9.751,6.184
		c0.241,0.214,0.424,0.475,0.549,0.783c0.125,0.31,0.188,0.657,0.188,1.043c0,0.824-0.253,1.448-0.761,1.874
		C9.219,10.309,8.463,10.521,7.459,10.521z M7.062,6.812H5.958v2.472h1.104c0.386,0,0.709-0.04,0.968-0.121S8.487,8.95,8.623,8.766
		c0.136-0.184,0.204-0.425,0.204-0.723c0-0.356-0.105-0.647-0.314-0.871C8.277,6.933,7.793,6.812,7.062,6.812z"/>
	<linearGradient id="SVGID_8_" gradientUnits="userSpaceOnUse" x1="14.3369" y1="13.8086" x2="14.3369" y2="5.4443">
		<stop  offset="0" style="stop-color:#E0E0E0"/>
		<stop  offset="0.288" style="stop-color:#F0F0F0"/>
		<stop  offset="0.6289" style="stop-color:#FBFBFB"/>
		<stop  offset="1" style="stop-color:#FFFFFF"/>
	</linearGradient>
	<path fill="url(#SVGID_8_)" d="M17.551,11.243c0,0.489-0.126,0.929-0.378,1.319c-0.252,0.39-0.621,0.694-1.106,0.915
		c-0.485,0.221-1.061,0.331-1.727,0.331c-0.798,0-1.457-0.15-1.976-0.452c-0.368-0.217-0.667-0.507-0.896-0.869
		s-0.345-0.714-0.345-1.057c0-0.198,0.069-0.368,0.207-0.51c0.138-0.142,0.314-0.213,0.527-0.213c0.173,0,0.319,0.056,0.438,0.166
		s0.222,0.273,0.306,0.491c0.103,0.257,0.214,0.473,0.334,0.646c0.119,0.173,0.288,0.315,0.505,0.427
		c0.217,0.112,0.502,0.169,0.855,0.169c0.486,0,0.88-0.113,1.184-0.34c0.304-0.226,0.455-0.508,0.455-0.847
		c0-0.269-0.082-0.486-0.246-0.653c-0.164-0.168-0.375-0.296-0.634-0.384c-0.259-0.089-0.606-0.183-1.04-0.281
		c-0.581-0.137-1.068-0.296-1.459-0.478s-0.703-0.431-0.933-0.745s-0.345-0.705-0.345-1.172c0-0.445,0.122-0.841,0.364-1.187
		s0.594-0.611,1.054-0.798c0.46-0.186,1-0.278,1.622-0.278c0.497,0,0.926,0.062,1.289,0.185c0.362,0.124,0.663,0.287,0.902,0.491
		c0.239,0.204,0.414,0.419,0.524,0.643c0.11,0.225,0.166,0.443,0.166,0.657c0,0.194-0.069,0.37-0.207,0.526
		c-0.138,0.157-0.31,0.234-0.516,0.234c-0.188,0-0.331-0.047-0.428-0.141c-0.098-0.094-0.203-0.247-0.317-0.46
		c-0.147-0.306-0.324-0.544-0.53-0.715s-0.537-0.257-0.993-0.257c-0.423,0-0.764,0.093-1.023,0.279
		c-0.259,0.186-0.389,0.409-0.389,0.67c0,0.162,0.044,0.302,0.132,0.419c0.088,0.118,0.209,0.22,0.364,0.304
		c0.154,0.085,0.311,0.151,0.469,0.199s0.419,0.117,0.784,0.209C15,8.796,15.413,8.913,15.783,9.042
		c0.37,0.129,0.684,0.285,0.943,0.469c0.259,0.185,0.461,0.417,0.607,0.698C17.478,10.49,17.551,10.835,17.551,11.243z"/>
	<linearGradient id="SVGID_9_" gradientUnits="userSpaceOnUse" x1="21.9575" y1="13.6709" x2="21.9575" y2="5.582">
		<stop  offset="0" style="stop-color:#E0E0E0"/>
		<stop  offset="0.288" style="stop-color:#F0F0F0"/>
		<stop  offset="0.6289" style="stop-color:#FBFBFB"/>
		<stop  offset="1" style="stop-color:#FFFFFF"/>
	</linearGradient>
	<path fill="url(#SVGID_9_)" d="M19.504,5.582h2.135c0.556,0,1.032,0.052,1.429,0.155c0.397,0.103,0.758,0.296,1.082,0.579
		c0.842,0.721,1.264,1.817,1.264,3.288c0,0.485-0.042,0.929-0.127,1.33c-0.085,0.4-0.215,0.763-0.392,1.084
		c-0.176,0.322-0.403,0.609-0.679,0.863c-0.217,0.195-0.454,0.352-0.711,0.47c-0.258,0.117-0.535,0.2-0.831,0.248
		s-0.63,0.071-1.001,0.071h-2.135c-0.298,0-0.522-0.045-0.673-0.135s-0.249-0.217-0.295-0.381S18.5,12.779,18.5,12.518V6.587
		c0-0.354,0.079-0.609,0.237-0.768C18.896,5.661,19.151,5.582,19.504,5.582z M20.139,6.879v5.49h1.241
		c0.272,0,0.486-0.008,0.64-0.022s0.314-0.051,0.48-0.11c0.166-0.059,0.309-0.142,0.43-0.248c0.548-0.464,0.822-1.262,0.822-2.395
		c0-0.798-0.121-1.396-0.361-1.793c-0.241-0.397-0.538-0.65-0.891-0.759s-0.78-0.163-1.28-0.163H20.139z"/>
</g>
</svg>
