<?xml version="1.0" encoding="utf-8"?>
<!-- Generator: Adobe Illustrator 16.0.3, SVG Export Plug-In . SVG Version: 6.00 Build 0)  -->
<!DOCTYPE svg PUBLIC "-//W3C//DTD SVG 1.1//EN" "http://www.w3.org/Graphics/SVG/1.1/DTD/svg11.dtd">
<svg version="1.1" id="Layer_1" xmlns="http://www.w3.org/2000/svg" xmlns:xlink="http://www.w3.org/1999/xlink" x="0px" y="0px"
	 width="43px" height="51px" viewBox="0 0 43 51" enable-background="new 0 0 43 51" xml:space="preserve">
<g>
	<g>
		<linearGradient id="SVGID_1_" gradientUnits="userSpaceOnUse" x1="21.2939" y1="50.7656" x2="21.2939" y2="0">
			<stop  offset="0" style="stop-color:#CCCCCC"/>
			<stop  offset="0.3187" style="stop-color:#C7C7C7"/>
			<stop  offset="1" style="stop-color:#BFBFBF"/>
		</linearGradient>
		<path fill="url(#SVGID_1_)" d="M3.401,50.766C1.53,50.766,0,49.234,0,47.363V3.402C0,1.531,1.53,0,3.401,0c0,0,14.453,0,20.763,0
			c2.458,0,3.122,0.49,4.446,1.568c1.779,1.451,3.999,3.809,6.208,5.984c3.728,3.672,7.77,7.324,7.77,10.871
			c0,7.213,0,28.939,0,28.939c-0.001,1.871-1.531,3.402-3.402,3.402H3.401z"/>
		<linearGradient id="SVGID_2_" gradientUnits="userSpaceOnUse" x1="21.293" y1="49.9141" x2="21.293" y2="0.8516">
			<stop  offset="0" style="stop-color:#FFFFFF"/>
			<stop  offset="0.3735" style="stop-color:#F8F8F8"/>
			<stop  offset="0.9283" style="stop-color:#E4E4E4"/>
			<stop  offset="1" style="stop-color:#E0E0E0"/>
		</linearGradient>
		<path fill="url(#SVGID_2_)" d="M38.902,16.238h-8.219c-1.559,0-2.834-1.275-2.834-2.836V3.162c0-1.559-1.275-2.311-2.835-2.311
			H3.685c-1.559,0-2.834,1.275-2.834,2.834V47.08c0,1.559,1.275,2.834,2.834,2.834h35.218c1.559,0,2.834-1.275,2.834-2.834V18.459
			C41.736,16.584,40.047,16.238,38.902,16.238z"/>
		<g>
			<path fill="#130C0E" d="M42.574,18.224c-0.148-3.484-4.098-7.068-7.756-10.671C32.609,5.377,30.39,3.02,28.61,1.568
				C27.286,0.49,26.622,0,24.164,0C17.854,0,3.401,0,3.401,0C1.53,0,0,1.531,0,3.402v14.821H42.574z"/>
			<g>
				<linearGradient id="SVGID_3_" gradientUnits="userSpaceOnUse" x1="28.7168" y1="13.8711" x2="34.8249" y2="7.763">
					<stop  offset="0" style="stop-color:#929497"/>
					<stop  offset="0.8834" style="stop-color:#6D6E70"/>
					<stop  offset="1" style="stop-color:#404041"/>
				</linearGradient>
				<path fill="url(#SVGID_3_)" d="M42.574,17.973c-0.061-1.941-0.529-3.271-1.861-4.871c-2.948-3.539-8.281-8.176-11.894-11.578
					c-1.426-1.34-2.665-1.516-4.56-1.521C24.202,0,24.164,0,24.164,0c2.027,0,3.686,0.447,3.686,2.475v9.428
					c0,1.561,1.275,2.836,2.834,2.836h8.219c2.019,0,3.669,1.645,3.683,3.66c0,0.008,0.002,0.016,0.002,0.023
					c0-0.002,0-0.004,0-0.004c0,0.002,0,0.004,0,0.006C42.587,18.424,42.593,18.25,42.574,17.973z"/>
				<linearGradient id="SVGID_4_" gradientUnits="userSpaceOnUse" x1="29.0566" y1="13.5312" x2="34.8456" y2="7.7423">
					<stop  offset="0.2577" style="stop-color:#626366"/>
					<stop  offset="0.5" style="stop-color:#5E5F62"/>
					<stop  offset="0.7479" style="stop-color:#535356"/>
					<stop  offset="0.9978" style="stop-color:#404041"/>
					<stop  offset="1" style="stop-color:#404041"/>
				</linearGradient>
				<path fill="url(#SVGID_4_)" d="M42.574,17.973c-0.061-1.941-0.529-3.271-1.861-4.871c-2.948-3.539-8.281-8.176-11.894-11.578
					c-1.426-1.34-2.665-1.516-4.56-1.521C24.202,0,24.164,0,24.164,0c2.027,0,4.27,0.521,4.27,2.834v9.068
					c0,1.561,1.483,2.836,3.042,2.836h7.427c2.019,0,3.669,1.645,3.683,3.66c0,0.008,0.002,0.016,0.002,0.023
					c0-0.002,0-0.004,0-0.004c0,0.002,0,0.004,0,0.006C42.587,18.424,42.593,18.25,42.574,17.973z"/>
			</g>
			<linearGradient id="SVGID_5_" gradientUnits="userSpaceOnUse" x1="21.2793" y1="18.2236" x2="21.2793" y2="0.8516">
				<stop  offset="0" style="stop-color:#1A1A1A"/>
				<stop  offset="0.4314" style="stop-color:#212121"/>
				<stop  offset="1" style="stop-color:#333333"/>
			</linearGradient>
			<path fill="url(#SVGID_5_)" d="M41.709,18.224c-0.146-1.655-1.715-1.985-2.807-1.985h-8.219c-1.559,0-2.834-1.275-2.834-2.836
				V3.162c0-1.559-1.275-2.311-2.835-2.311H3.685c-1.559,0-2.834,1.275-2.834,2.834v14.538H41.709z"/>
		</g>
		<polygon fill="#1A1A1A" points="24.436,22.118 24.436,22.407 24.436,49.89 17.766,49.89 17.766,22.407 17.766,22.118 		"/>
		
			<linearGradient id="SVGID_6_" gradientUnits="userSpaceOnUse" x1="-1098.543" y1="89.4785" x2="-1096.2566" y2="87.1922" gradientTransform="matrix(-1 0 0 1 -1077.3945 -40.1641)">
			<stop  offset="0" style="stop-color:#A1A1A1"/>
			<stop  offset="0.0675" style="stop-color:#A3A3A3"/>
			<stop  offset="0.0773" style="stop-color:#AAAAAA"/>
			<stop  offset="0.1254" style="stop-color:#C4C4C4"/>
			<stop  offset="0.1783" style="stop-color:#D9D9D9"/>
			<stop  offset="0.2376" style="stop-color:#E7E7E7"/>
			<stop  offset="0.3088" style="stop-color:#F0F0F0"/>
			<stop  offset="0.4233" style="stop-color:#F2F2F2"/>
			<stop  offset="1" style="stop-color:#808080"/>
		</linearGradient>
		<path fill="url(#SVGID_6_)" d="M21.439,47.415c-0.138,0-0.243,0.143-0.331,0.336c-0.08,0.178-0.225,0.27-0.37,0.27
			c-0.151,0-0.296-0.102-0.38-0.287c-0.084-0.188-0.117-0.537-0.323-0.537h-1.319c-0.053,0-0.098,0.1-0.098,0.166v0.809v0.809
			c0,0.064,0.045,0.166,0.098,0.166h1.319c0.206,0,0.239-0.352,0.323-0.537s0.229-0.289,0.38-0.289c0.146,0,0.29,0.094,0.37,0.27
			c0.088,0.193,0.193,0.336,0.331,0.336c0.22,0,0.397-0.338,0.397-0.754C21.837,47.753,21.659,47.415,21.439,47.415z"/>
		
			<linearGradient id="SVGID_7_" gradientUnits="userSpaceOnUse" x1="-1098.543" y1="87.1719" x2="-1096.2563" y2="84.8852" gradientTransform="matrix(-1 0 0 1 -1077.3945 -40.1641)">
			<stop  offset="0" style="stop-color:#A1A1A1"/>
			<stop  offset="0.0675" style="stop-color:#A3A3A3"/>
			<stop  offset="0.0773" style="stop-color:#AAAAAA"/>
			<stop  offset="0.1254" style="stop-color:#C4C4C4"/>
			<stop  offset="0.1783" style="stop-color:#D9D9D9"/>
			<stop  offset="0.2376" style="stop-color:#E7E7E7"/>
			<stop  offset="0.3088" style="stop-color:#F0F0F0"/>
			<stop  offset="0.4233" style="stop-color:#F2F2F2"/>
			<stop  offset="1" style="stop-color:#808080"/>
		</linearGradient>
		<path fill="url(#SVGID_7_)" d="M21.439,45.108c-0.138,0-0.243,0.141-0.331,0.334c-0.08,0.18-0.225,0.271-0.37,0.271
			c-0.151,0-0.296-0.104-0.38-0.289c-0.084-0.184-0.117-0.537-0.323-0.537h-1.319c-0.053,0-0.098,0.102-0.098,0.166v0.809v0.811
			c0,0.064,0.045,0.166,0.098,0.166h1.319c0.206,0,0.239-0.352,0.323-0.539c0.084-0.186,0.229-0.289,0.38-0.289
			c0.146,0,0.29,0.096,0.37,0.271c0.088,0.193,0.193,0.336,0.331,0.336c0.22,0,0.397-0.338,0.397-0.756
			C21.837,45.448,21.659,45.108,21.439,45.108z"/>
		
			<linearGradient id="SVGID_8_" gradientUnits="userSpaceOnUse" x1="-1098.5439" y1="84.8623" x2="-1096.2573" y2="82.5757" gradientTransform="matrix(-1 0 0 1 -1077.3945 -40.1641)">
			<stop  offset="0" style="stop-color:#A1A1A1"/>
			<stop  offset="0.0675" style="stop-color:#A3A3A3"/>
			<stop  offset="0.0773" style="stop-color:#AAAAAA"/>
			<stop  offset="0.1254" style="stop-color:#C4C4C4"/>
			<stop  offset="0.1783" style="stop-color:#D9D9D9"/>
			<stop  offset="0.2376" style="stop-color:#E7E7E7"/>
			<stop  offset="0.3088" style="stop-color:#F0F0F0"/>
			<stop  offset="0.4233" style="stop-color:#F2F2F2"/>
			<stop  offset="1" style="stop-color:#808080"/>
		</linearGradient>
		<path fill="url(#SVGID_8_)" d="M21.439,42.8c-0.138,0-0.243,0.143-0.331,0.336c-0.08,0.176-0.225,0.27-0.37,0.27
			c-0.151,0-0.296-0.102-0.38-0.287s-0.117-0.539-0.323-0.539h-1.319c-0.053,0-0.098,0.102-0.098,0.166v0.811v0.807
			c0,0.066,0.045,0.166,0.098,0.166h1.319c0.206,0,0.239-0.35,0.323-0.537c0.084-0.186,0.229-0.287,0.38-0.287
			c0.146,0,0.29,0.092,0.37,0.27c0.088,0.193,0.193,0.336,0.331,0.336c0.22,0,0.397-0.338,0.397-0.754
			C21.837,43.138,21.659,42.8,21.439,42.8z"/>
		
			<linearGradient id="SVGID_9_" gradientUnits="userSpaceOnUse" x1="-1098.5439" y1="82.5557" x2="-1096.2573" y2="80.2691" gradientTransform="matrix(-1 0 0 1 -1077.3945 -40.1641)">
			<stop  offset="0" style="stop-color:#A1A1A1"/>
			<stop  offset="0.0675" style="stop-color:#A3A3A3"/>
			<stop  offset="0.0773" style="stop-color:#AAAAAA"/>
			<stop  offset="0.1254" style="stop-color:#C4C4C4"/>
			<stop  offset="0.1783" style="stop-color:#D9D9D9"/>
			<stop  offset="0.2376" style="stop-color:#E7E7E7"/>
			<stop  offset="0.3088" style="stop-color:#F0F0F0"/>
			<stop  offset="0.4233" style="stop-color:#F2F2F2"/>
			<stop  offset="1" style="stop-color:#808080"/>
		</linearGradient>
		<path fill="url(#SVGID_9_)" d="M21.439,40.493c-0.138,0-0.243,0.143-0.331,0.336c-0.08,0.176-0.225,0.271-0.37,0.271
			c-0.151,0-0.296-0.104-0.38-0.289c-0.084-0.188-0.117-0.539-0.323-0.539h-1.319c-0.053,0-0.098,0.102-0.098,0.166v0.809v0.811
			c0,0.062,0.045,0.166,0.098,0.166h1.319c0.206,0,0.239-0.354,0.323-0.539s0.229-0.289,0.38-0.289c0.146,0,0.29,0.096,0.37,0.271
			c0.088,0.193,0.193,0.336,0.331,0.336c0.22,0,0.397-0.338,0.397-0.756C21.837,40.831,21.659,40.493,21.439,40.493z"/>
		
			<linearGradient id="SVGID_10_" gradientUnits="userSpaceOnUse" x1="-1098.5435" y1="80.248" x2="-1096.2567" y2="77.9613" gradientTransform="matrix(-1 0 0 1 -1077.3945 -40.1641)">
			<stop  offset="0" style="stop-color:#A1A1A1"/>
			<stop  offset="0.0675" style="stop-color:#A3A3A3"/>
			<stop  offset="0.0773" style="stop-color:#AAAAAA"/>
			<stop  offset="0.1254" style="stop-color:#C4C4C4"/>
			<stop  offset="0.1783" style="stop-color:#D9D9D9"/>
			<stop  offset="0.2376" style="stop-color:#E7E7E7"/>
			<stop  offset="0.3088" style="stop-color:#F0F0F0"/>
			<stop  offset="0.4233" style="stop-color:#F2F2F2"/>
			<stop  offset="1" style="stop-color:#808080"/>
		</linearGradient>
		<path fill="url(#SVGID_10_)" d="M21.439,38.185c-0.138,0-0.243,0.141-0.331,0.336c-0.08,0.178-0.225,0.271-0.37,0.271
			c-0.151,0-0.296-0.104-0.38-0.289s-0.117-0.539-0.323-0.539h-1.319c-0.053,0-0.098,0.102-0.098,0.166v0.811v0.809
			c0,0.064,0.045,0.166,0.098,0.166h1.319c0.206,0,0.239-0.352,0.323-0.537s0.229-0.289,0.38-0.289c0.146,0,0.29,0.092,0.37,0.27
			c0.088,0.195,0.193,0.336,0.331,0.336c0.22,0,0.397-0.338,0.397-0.754S21.659,38.185,21.439,38.185z"/>
		
			<linearGradient id="SVGID_11_" gradientUnits="userSpaceOnUse" x1="-1098.5439" y1="77.9395" x2="-1096.2582" y2="75.6537" gradientTransform="matrix(-1 0 0 1 -1077.3945 -40.1641)">
			<stop  offset="0" style="stop-color:#A1A1A1"/>
			<stop  offset="0.0675" style="stop-color:#A3A3A3"/>
			<stop  offset="0.0773" style="stop-color:#AAAAAA"/>
			<stop  offset="0.1254" style="stop-color:#C4C4C4"/>
			<stop  offset="0.1783" style="stop-color:#D9D9D9"/>
			<stop  offset="0.2376" style="stop-color:#E7E7E7"/>
			<stop  offset="0.3088" style="stop-color:#F0F0F0"/>
			<stop  offset="0.4233" style="stop-color:#F2F2F2"/>
			<stop  offset="1" style="stop-color:#808080"/>
		</linearGradient>
		<path fill="url(#SVGID_11_)" d="M21.439,35.876c-0.138,0-0.243,0.145-0.331,0.338c-0.08,0.176-0.225,0.268-0.37,0.268
			c-0.151,0-0.296-0.102-0.38-0.287s-0.117-0.537-0.323-0.537h-1.319c-0.053,0-0.098,0.102-0.098,0.164v0.811v0.809
			c0,0.064,0.045,0.166,0.098,0.166h1.319c0.206,0,0.239-0.352,0.323-0.539c0.084-0.184,0.229-0.287,0.38-0.287
			c0.146,0,0.29,0.094,0.37,0.271c0.088,0.193,0.193,0.334,0.331,0.334c0.22,0,0.397-0.336,0.397-0.754
			C21.837,36.216,21.659,35.876,21.439,35.876z"/>
		
			<linearGradient id="SVGID_12_" gradientUnits="userSpaceOnUse" x1="-1098.5435" y1="75.6318" x2="-1096.2568" y2="73.3452" gradientTransform="matrix(-1 0 0 1 -1077.3945 -40.1641)">
			<stop  offset="0" style="stop-color:#A1A1A1"/>
			<stop  offset="0.0675" style="stop-color:#A3A3A3"/>
			<stop  offset="0.0773" style="stop-color:#AAAAAA"/>
			<stop  offset="0.1254" style="stop-color:#C4C4C4"/>
			<stop  offset="0.1783" style="stop-color:#D9D9D9"/>
			<stop  offset="0.2376" style="stop-color:#E7E7E7"/>
			<stop  offset="0.3088" style="stop-color:#F0F0F0"/>
			<stop  offset="0.4233" style="stop-color:#F2F2F2"/>
			<stop  offset="1" style="stop-color:#808080"/>
		</linearGradient>
		<path fill="url(#SVGID_12_)" d="M21.439,33.569c-0.138,0-0.243,0.141-0.331,0.336c-0.08,0.178-0.225,0.271-0.37,0.271
			c-0.151,0-0.296-0.105-0.38-0.289c-0.084-0.186-0.117-0.539-0.323-0.539h-1.319c-0.053,0-0.098,0.102-0.098,0.166v0.809v0.811
			c0,0.064,0.045,0.166,0.098,0.166h1.319c0.206,0,0.239-0.354,0.323-0.539s0.229-0.287,0.38-0.287c0.146,0,0.29,0.094,0.37,0.27
			c0.088,0.195,0.193,0.336,0.331,0.336c0.22,0,0.397-0.34,0.397-0.756S21.659,33.569,21.439,33.569z"/>
		<g>
			
				<linearGradient id="SVGID_13_" gradientUnits="userSpaceOnUse" x1="-1099.1216" y1="72.2715" x2="-1096.8352" y2="69.9851" gradientTransform="matrix(-0.9999 0.016 0.016 0.9999 -1079.017 -26.1475)">
				<stop  offset="0" style="stop-color:#A1A1A1"/>
				<stop  offset="0.0675" style="stop-color:#A3A3A3"/>
				<stop  offset="0.0773" style="stop-color:#AAAAAA"/>
				<stop  offset="0.1254" style="stop-color:#C4C4C4"/>
				<stop  offset="0.1783" style="stop-color:#D9D9D9"/>
				<stop  offset="0.2376" style="stop-color:#E7E7E7"/>
				<stop  offset="0.3088" style="stop-color:#F0F0F0"/>
				<stop  offset="0.4233" style="stop-color:#F2F2F2"/>
				<stop  offset="1" style="stop-color:#808080"/>
			</linearGradient>
			<path fill="url(#SVGID_13_)" d="M21.411,26.63c-0.139,0.002-0.241,0.145-0.326,0.34c-0.077,0.18-0.219,0.273-0.365,0.275
				c-0.152,0.002-0.298-0.098-0.385-0.281c-0.088-0.186-0.126-0.535-0.332-0.533l-1.318,0.021c-0.053,0.002-0.096,0.104-0.094,0.168
				l0.013,0.809l0.013,0.811c0.001,0.062,0.047,0.164,0.1,0.164l1.318-0.021c0.206-0.004,0.233-0.357,0.314-0.543
				c0.081-0.188,0.224-0.293,0.375-0.295c0.146-0.004,0.292,0.09,0.375,0.266c0.091,0.191,0.199,0.332,0.336,0.33
				c0.221-0.004,0.393-0.346,0.387-0.762C21.813,26.962,21.63,26.626,21.411,26.63z"/>
			
				<linearGradient id="SVGID_14_" gradientUnits="userSpaceOnUse" x1="-1097.9019" y1="78.4951" x2="-1095.6156" y2="76.2088" gradientTransform="matrix(-0.9984 0.0561 0.0561 0.9984 -1079.3911 9.3706)">
				<stop  offset="0" style="stop-color:#A1A1A1"/>
				<stop  offset="0.0675" style="stop-color:#A3A3A3"/>
				<stop  offset="0.0773" style="stop-color:#AAAAAA"/>
				<stop  offset="0.1254" style="stop-color:#C4C4C4"/>
				<stop  offset="0.1783" style="stop-color:#D9D9D9"/>
				<stop  offset="0.2376" style="stop-color:#E7E7E7"/>
				<stop  offset="0.3088" style="stop-color:#F0F0F0"/>
				<stop  offset="0.4233" style="stop-color:#F2F2F2"/>
				<stop  offset="1" style="stop-color:#808080"/>
			</linearGradient>
			<path fill="url(#SVGID_14_)" d="M21.341,24.235c-0.139,0.006-0.236,0.154-0.312,0.354c-0.07,0.182-0.207,0.283-0.354,0.289
				c-0.152,0.01-0.303-0.086-0.396-0.266s-0.146-0.529-0.354-0.518l-1.316,0.074c-0.053,0.004-0.09,0.105-0.087,0.168l0.046,0.811
				l0.045,0.807c0.004,0.064,0.053,0.164,0.105,0.162l1.316-0.074c0.206-0.012,0.219-0.365,0.293-0.555
				c0.074-0.191,0.211-0.303,0.363-0.311c0.146-0.008,0.295,0.078,0.385,0.25c0.098,0.188,0.212,0.324,0.35,0.316
				c0.22-0.012,0.378-0.359,0.355-0.775C21.757,24.552,21.56,24.224,21.341,24.235z"/>
		</g>
		
			<linearGradient id="SVGID_15_" gradientUnits="userSpaceOnUse" x1="-1098.5439" y1="73.3232" x2="-1096.2582" y2="71.0375" gradientTransform="matrix(-1 0 0 1 -1077.3945 -40.1641)">
			<stop  offset="0" style="stop-color:#A1A1A1"/>
			<stop  offset="0.0675" style="stop-color:#A3A3A3"/>
			<stop  offset="0.0773" style="stop-color:#AAAAAA"/>
			<stop  offset="0.1254" style="stop-color:#C4C4C4"/>
			<stop  offset="0.1783" style="stop-color:#D9D9D9"/>
			<stop  offset="0.2376" style="stop-color:#E7E7E7"/>
			<stop  offset="0.3088" style="stop-color:#F0F0F0"/>
			<stop  offset="0.4233" style="stop-color:#F2F2F2"/>
			<stop  offset="1" style="stop-color:#808080"/>
		</linearGradient>
		<path fill="url(#SVGID_15_)" d="M21.439,31.261c-0.138,0-0.243,0.143-0.331,0.336c-0.08,0.178-0.225,0.271-0.37,0.271
			c-0.151,0-0.296-0.102-0.38-0.287c-0.084-0.188-0.117-0.539-0.323-0.539h-1.319c-0.053,0-0.098,0.102-0.098,0.166v0.809v0.809
			c0,0.064,0.045,0.166,0.098,0.166h1.319c0.206,0,0.239-0.352,0.323-0.537s0.229-0.289,0.38-0.289c0.146,0,0.29,0.094,0.37,0.27
			c0.088,0.195,0.193,0.336,0.331,0.336c0.22,0,0.397-0.338,0.397-0.754S21.659,31.261,21.439,31.261z"/>
		<g>
			
				<linearGradient id="SVGID_16_" gradientUnits="userSpaceOnUse" x1="-1100.7314" y1="88.3242" x2="-1098.4451" y2="86.0379" gradientTransform="matrix(-1 0 0 1 -1077.3945 -40.1641)">
				<stop  offset="0" style="stop-color:#A1A1A1"/>
				<stop  offset="0.1779" style="stop-color:#A3A3A3"/>
				<stop  offset="0.1914" style="stop-color:#AAAAAA"/>
				<stop  offset="0.2568" style="stop-color:#C4C4C4"/>
				<stop  offset="0.3288" style="stop-color:#D9D9D9"/>
				<stop  offset="0.4097" style="stop-color:#E7E7E7"/>
				<stop  offset="0.5066" style="stop-color:#F0F0F0"/>
				<stop  offset="0.6626" style="stop-color:#F2F2F2"/>
				<stop  offset="1" style="stop-color:#808080"/>
			</linearGradient>
			<path fill="url(#SVGID_16_)" d="M20.761,46.261c0.138,0,0.244,0.143,0.33,0.336c0.082,0.178,0.225,0.271,0.371,0.271
				c0.152,0,0.297-0.104,0.381-0.289c0.084-0.184,0.115-0.539,0.322-0.539h1.318c0.055,0,0.098,0.104,0.098,0.166v0.811v0.809
				c0,0.064-0.043,0.166-0.098,0.166h-1.318c-0.207,0-0.238-0.352-0.322-0.537s-0.229-0.289-0.381-0.289
				c-0.146,0-0.289,0.094-0.371,0.271c-0.086,0.193-0.192,0.334-0.33,0.334c-0.219,0-0.397-0.338-0.397-0.754
				S20.542,46.261,20.761,46.261z"/>
			
				<linearGradient id="SVGID_17_" gradientUnits="userSpaceOnUse" x1="-1100.7305" y1="86.0176" x2="-1098.4442" y2="83.7313" gradientTransform="matrix(-1 0 0 1 -1077.3945 -40.1641)">
				<stop  offset="0" style="stop-color:#A1A1A1"/>
				<stop  offset="0.1779" style="stop-color:#A3A3A3"/>
				<stop  offset="0.1914" style="stop-color:#AAAAAA"/>
				<stop  offset="0.2568" style="stop-color:#C4C4C4"/>
				<stop  offset="0.3288" style="stop-color:#D9D9D9"/>
				<stop  offset="0.4097" style="stop-color:#E7E7E7"/>
				<stop  offset="0.5066" style="stop-color:#F0F0F0"/>
				<stop  offset="0.6626" style="stop-color:#F2F2F2"/>
				<stop  offset="1" style="stop-color:#808080"/>
			</linearGradient>
			<path fill="url(#SVGID_17_)" d="M20.761,43.954c0.138,0,0.244,0.143,0.33,0.336c0.082,0.178,0.225,0.27,0.371,0.27
				c0.152,0,0.297-0.102,0.381-0.289c0.084-0.186,0.115-0.535,0.322-0.535h1.318c0.055,0,0.098,0.1,0.098,0.164v0.809v0.811
				c0,0.064-0.043,0.166-0.098,0.166h-1.318c-0.207,0-0.238-0.354-0.322-0.539s-0.229-0.289-0.381-0.289
				c-0.146,0-0.289,0.096-0.371,0.271c-0.086,0.193-0.192,0.336-0.33,0.336c-0.219,0-0.397-0.34-0.397-0.756
				S20.542,43.954,20.761,43.954z"/>
			
				<linearGradient id="SVGID_18_" gradientUnits="userSpaceOnUse" x1="-1100.7314" y1="83.709" x2="-1098.4448" y2="81.4224" gradientTransform="matrix(-1 0 0 1 -1077.3945 -40.1641)">
				<stop  offset="0" style="stop-color:#A1A1A1"/>
				<stop  offset="0.1779" style="stop-color:#A3A3A3"/>
				<stop  offset="0.1914" style="stop-color:#AAAAAA"/>
				<stop  offset="0.2568" style="stop-color:#C4C4C4"/>
				<stop  offset="0.3288" style="stop-color:#D9D9D9"/>
				<stop  offset="0.4097" style="stop-color:#E7E7E7"/>
				<stop  offset="0.5066" style="stop-color:#F0F0F0"/>
				<stop  offset="0.6626" style="stop-color:#F2F2F2"/>
				<stop  offset="1" style="stop-color:#808080"/>
			</linearGradient>
			<path fill="url(#SVGID_18_)" d="M20.761,41.646c0.138,0,0.244,0.143,0.33,0.336c0.082,0.178,0.225,0.271,0.371,0.271
				c0.152,0,0.297-0.104,0.381-0.289s0.115-0.537,0.322-0.537h1.318c0.055,0,0.098,0.102,0.098,0.166v0.809v0.811
				c0,0.064-0.043,0.164-0.098,0.164h-1.318c-0.207,0-0.238-0.352-0.322-0.537s-0.229-0.289-0.381-0.289
				c-0.146,0-0.289,0.094-0.371,0.271c-0.086,0.193-0.192,0.336-0.33,0.336c-0.219,0-0.397-0.34-0.397-0.756
				S20.542,41.646,20.761,41.646z"/>
			
				<linearGradient id="SVGID_19_" gradientUnits="userSpaceOnUse" x1="-1100.7305" y1="81.4014" x2="-1098.4445" y2="79.1154" gradientTransform="matrix(-1 0 0 1 -1077.3945 -40.1641)">
				<stop  offset="0" style="stop-color:#A1A1A1"/>
				<stop  offset="0.1779" style="stop-color:#A3A3A3"/>
				<stop  offset="0.1914" style="stop-color:#AAAAAA"/>
				<stop  offset="0.2568" style="stop-color:#C4C4C4"/>
				<stop  offset="0.3288" style="stop-color:#D9D9D9"/>
				<stop  offset="0.4097" style="stop-color:#E7E7E7"/>
				<stop  offset="0.5066" style="stop-color:#F0F0F0"/>
				<stop  offset="0.6626" style="stop-color:#F2F2F2"/>
				<stop  offset="1" style="stop-color:#808080"/>
			</linearGradient>
			<path fill="url(#SVGID_19_)" d="M20.761,39.339c0.138,0,0.244,0.143,0.33,0.336c0.082,0.176,0.225,0.27,0.371,0.27
				c0.152,0,0.297-0.102,0.381-0.287c0.084-0.188,0.115-0.537,0.322-0.537h1.318c0.055,0,0.098,0.1,0.098,0.164v0.809v0.809
				c0,0.066-0.043,0.166-0.098,0.166h-1.318c-0.207,0-0.238-0.35-0.322-0.537c-0.084-0.186-0.229-0.287-0.381-0.287
				c-0.146,0-0.289,0.092-0.371,0.27c-0.086,0.193-0.192,0.336-0.33,0.336c-0.219,0-0.397-0.338-0.397-0.756
				C20.363,39.677,20.542,39.339,20.761,39.339z"/>
			
				<linearGradient id="SVGID_20_" gradientUnits="userSpaceOnUse" x1="-1100.731" y1="79.0938" x2="-1098.4452" y2="76.808" gradientTransform="matrix(-1 0 0 1 -1077.3945 -40.1641)">
				<stop  offset="0" style="stop-color:#A1A1A1"/>
				<stop  offset="0.1779" style="stop-color:#A3A3A3"/>
				<stop  offset="0.1914" style="stop-color:#AAAAAA"/>
				<stop  offset="0.2568" style="stop-color:#C4C4C4"/>
				<stop  offset="0.3288" style="stop-color:#D9D9D9"/>
				<stop  offset="0.4097" style="stop-color:#E7E7E7"/>
				<stop  offset="0.5066" style="stop-color:#F0F0F0"/>
				<stop  offset="0.6626" style="stop-color:#F2F2F2"/>
				<stop  offset="1" style="stop-color:#808080"/>
			</linearGradient>
			<path fill="url(#SVGID_20_)" d="M20.761,37.032c0.138,0,0.244,0.141,0.33,0.334c0.082,0.178,0.225,0.271,0.371,0.271
				c0.152,0,0.297-0.104,0.381-0.289s0.115-0.537,0.322-0.537h1.318c0.055,0,0.098,0.1,0.098,0.166v0.809v0.809
				c0,0.064-0.043,0.166-0.098,0.166h-1.318c-0.207,0-0.238-0.352-0.322-0.537c-0.084-0.188-0.229-0.289-0.381-0.289
				c-0.146,0-0.289,0.094-0.371,0.271c-0.086,0.193-0.192,0.336-0.33,0.336c-0.219,0-0.397-0.34-0.397-0.756
				S20.542,37.032,20.761,37.032z"/>
			
				<linearGradient id="SVGID_21_" gradientUnits="userSpaceOnUse" x1="-1100.7305" y1="76.7861" x2="-1098.4447" y2="74.5004" gradientTransform="matrix(-1 0 0 1 -1077.3945 -40.1641)">
				<stop  offset="0" style="stop-color:#A1A1A1"/>
				<stop  offset="0.1779" style="stop-color:#A3A3A3"/>
				<stop  offset="0.1914" style="stop-color:#AAAAAA"/>
				<stop  offset="0.2568" style="stop-color:#C4C4C4"/>
				<stop  offset="0.3288" style="stop-color:#D9D9D9"/>
				<stop  offset="0.4097" style="stop-color:#E7E7E7"/>
				<stop  offset="0.5066" style="stop-color:#F0F0F0"/>
				<stop  offset="0.6626" style="stop-color:#F2F2F2"/>
				<stop  offset="1" style="stop-color:#808080"/>
			</linearGradient>
			<path fill="url(#SVGID_21_)" d="M20.761,34.724c0.138,0,0.244,0.141,0.33,0.334c0.082,0.178,0.225,0.271,0.371,0.271
				c0.152,0,0.297-0.104,0.381-0.287c0.084-0.186,0.115-0.539,0.322-0.539h1.318c0.055,0,0.098,0.102,0.098,0.166v0.809v0.809
				c0,0.064-0.043,0.166-0.098,0.166h-1.318c-0.207,0-0.238-0.35-0.322-0.537c-0.084-0.186-0.229-0.287-0.381-0.287
				c-0.146,0-0.289,0.092-0.371,0.27c-0.086,0.193-0.192,0.336-0.33,0.336c-0.219,0-0.397-0.338-0.397-0.756
				C20.363,35.062,20.542,34.724,20.761,34.724z"/>
			
				<linearGradient id="SVGID_22_" gradientUnits="userSpaceOnUse" x1="-1100.731" y1="74.4785" x2="-1098.4445" y2="72.192" gradientTransform="matrix(-1 0 0 1 -1077.3945 -40.1641)">
				<stop  offset="0" style="stop-color:#A1A1A1"/>
				<stop  offset="0.1779" style="stop-color:#A3A3A3"/>
				<stop  offset="0.1914" style="stop-color:#AAAAAA"/>
				<stop  offset="0.2568" style="stop-color:#C4C4C4"/>
				<stop  offset="0.3288" style="stop-color:#D9D9D9"/>
				<stop  offset="0.4097" style="stop-color:#E7E7E7"/>
				<stop  offset="0.5066" style="stop-color:#F0F0F0"/>
				<stop  offset="0.6626" style="stop-color:#F2F2F2"/>
				<stop  offset="1" style="stop-color:#808080"/>
			</linearGradient>
			<path fill="url(#SVGID_22_)" d="M20.761,32.415c0.138,0,0.244,0.143,0.33,0.338c0.082,0.176,0.225,0.27,0.371,0.27
				c0.152,0,0.297-0.102,0.381-0.289c0.084-0.186,0.115-0.537,0.322-0.537h1.318c0.055,0,0.098,0.102,0.098,0.166v0.809v0.809
				c0,0.064-0.043,0.166-0.098,0.166h-1.318c-0.207,0-0.238-0.352-0.322-0.537c-0.084-0.188-0.229-0.289-0.381-0.289
				c-0.146,0-0.289,0.094-0.371,0.27c-0.086,0.195-0.192,0.338-0.33,0.338c-0.219,0-0.397-0.34-0.397-0.756
				S20.542,32.415,20.761,32.415z"/>
			
				<linearGradient id="SVGID_23_" gradientUnits="userSpaceOnUse" x1="-1100.7314" y1="72.1719" x2="-1098.4442" y2="69.8847" gradientTransform="matrix(-1 0 0 1 -1077.3945 -40.1641)">
				<stop  offset="0" style="stop-color:#A1A1A1"/>
				<stop  offset="0.1779" style="stop-color:#A3A3A3"/>
				<stop  offset="0.1914" style="stop-color:#AAAAAA"/>
				<stop  offset="0.2568" style="stop-color:#C4C4C4"/>
				<stop  offset="0.3288" style="stop-color:#D9D9D9"/>
				<stop  offset="0.4097" style="stop-color:#E7E7E7"/>
				<stop  offset="0.5066" style="stop-color:#F0F0F0"/>
				<stop  offset="0.6626" style="stop-color:#F2F2F2"/>
				<stop  offset="1" style="stop-color:#808080"/>
			</linearGradient>
			<path fill="url(#SVGID_23_)" d="M20.761,30.106c0.138,0,0.244,0.143,0.33,0.336c0.082,0.178,0.225,0.271,0.371,0.271
				c0.152,0,0.297-0.104,0.381-0.287c0.084-0.188,0.115-0.539,0.322-0.539h1.318c0.055,0,0.098,0.102,0.098,0.166v0.809v0.811
				c0,0.062-0.043,0.166-0.098,0.166h-1.318c-0.207,0-0.238-0.354-0.322-0.539c-0.084-0.184-0.229-0.289-0.381-0.289
				c-0.146,0-0.289,0.094-0.371,0.271c-0.086,0.193-0.192,0.336-0.33,0.336c-0.219,0-0.397-0.34-0.397-0.756
				S20.542,30.106,20.761,30.106z"/>
			
				<linearGradient id="SVGID_24_" gradientUnits="userSpaceOnUse" x1="-1100.7305" y1="69.8633" x2="-1098.444" y2="67.5768" gradientTransform="matrix(-1 0 0 1 -1077.3945 -40.1641)">
				<stop  offset="0" style="stop-color:#A1A1A1"/>
				<stop  offset="0.1779" style="stop-color:#A3A3A3"/>
				<stop  offset="0.1914" style="stop-color:#AAAAAA"/>
				<stop  offset="0.2568" style="stop-color:#C4C4C4"/>
				<stop  offset="0.3288" style="stop-color:#D9D9D9"/>
				<stop  offset="0.4097" style="stop-color:#E7E7E7"/>
				<stop  offset="0.5066" style="stop-color:#F0F0F0"/>
				<stop  offset="0.6626" style="stop-color:#F2F2F2"/>
				<stop  offset="1" style="stop-color:#808080"/>
			</linearGradient>
			<path fill="url(#SVGID_24_)" d="M20.761,27.8c0.138,0,0.244,0.143,0.33,0.336c0.082,0.178,0.225,0.27,0.371,0.27
				c0.152,0,0.297-0.104,0.381-0.289c0.084-0.184,0.115-0.535,0.322-0.535h1.318c0.055,0,0.098,0.102,0.098,0.164v0.809v0.811
				c0,0.064-0.043,0.166-0.098,0.166h-1.318c-0.207,0-0.238-0.352-0.322-0.539c-0.084-0.186-0.229-0.289-0.381-0.289
				c-0.146,0-0.289,0.096-0.371,0.271c-0.086,0.195-0.192,0.336-0.33,0.336c-0.219,0-0.397-0.338-0.397-0.756
				C20.363,28.14,20.542,27.8,20.761,27.8z"/>
			
				<linearGradient id="SVGID_25_" gradientUnits="userSpaceOnUse" x1="-681.6318" y1="67.4941" x2="-679.3456" y2="65.2079" gradientTransform="matrix(1 0 0 1 702.6748 -40.1641)">
				<stop  offset="0" style="stop-color:#A1A1A1"/>
				<stop  offset="0.0675" style="stop-color:#A3A3A3"/>
				<stop  offset="0.0773" style="stop-color:#AAAAAA"/>
				<stop  offset="0.1254" style="stop-color:#C4C4C4"/>
				<stop  offset="0.1783" style="stop-color:#D9D9D9"/>
				<stop  offset="0.2376" style="stop-color:#E7E7E7"/>
				<stop  offset="0.3088" style="stop-color:#F0F0F0"/>
				<stop  offset="0.4233" style="stop-color:#F2F2F2"/>
				<stop  offset="1" style="stop-color:#808080"/>
			</linearGradient>
			<path fill="url(#SVGID_25_)" d="M20.753,25.433c0.139,0,0.244,0.141,0.331,0.334c0.081,0.178,0.224,0.271,0.37,0.271
				c0.152,0,0.297-0.105,0.381-0.289c0.084-0.186,0.117-0.537,0.322-0.537h1.32c0.052,0,0.096,0.102,0.096,0.166v0.809v0.809
				c0,0.066-0.044,0.166-0.096,0.166h-1.32c-0.205,0-0.238-0.352-0.322-0.539c-0.084-0.184-0.229-0.287-0.381-0.287
				c-0.146,0-0.289,0.094-0.37,0.271c-0.087,0.193-0.192,0.336-0.331,0.336c-0.219,0-0.396-0.34-0.396-0.756
				S20.534,25.433,20.753,25.433z"/>
		</g>
		
			<linearGradient id="SVGID_26_" gradientUnits="userSpaceOnUse" x1="-1098.5449" y1="71.0176" x2="-1096.2584" y2="68.7311" gradientTransform="matrix(-1 0 0 1 -1077.3945 -40.1641)">
			<stop  offset="0" style="stop-color:#A1A1A1"/>
			<stop  offset="0.0675" style="stop-color:#A3A3A3"/>
			<stop  offset="0.0773" style="stop-color:#AAAAAA"/>
			<stop  offset="0.1254" style="stop-color:#C4C4C4"/>
			<stop  offset="0.1783" style="stop-color:#D9D9D9"/>
			<stop  offset="0.2376" style="stop-color:#E7E7E7"/>
			<stop  offset="0.3088" style="stop-color:#F0F0F0"/>
			<stop  offset="0.4233" style="stop-color:#F2F2F2"/>
			<stop  offset="1" style="stop-color:#808080"/>
		</linearGradient>
		<path fill="url(#SVGID_26_)" d="M21.439,28.956c-0.138,0-0.243,0.141-0.331,0.334c-0.08,0.178-0.225,0.27-0.37,0.27
			c-0.151,0-0.296-0.104-0.38-0.289c-0.084-0.184-0.117-0.535-0.323-0.535h-1.319c-0.053,0-0.098,0.1-0.098,0.164v0.809v0.811
			c0,0.064,0.045,0.166,0.098,0.166h1.319c0.206,0,0.239-0.352,0.323-0.539c0.084-0.186,0.229-0.287,0.38-0.287
			c0.146,0,0.29,0.094,0.37,0.27c0.088,0.193,0.193,0.338,0.331,0.338c0.22,0,0.397-0.34,0.397-0.758
			C21.837,29.292,21.659,28.956,21.439,28.956z"/>
		<path fill="#130C0E" d="M23.774,48.263c0-0.086-0.07-0.156-0.156-0.156h-5.035c-0.087,0-0.157,0.07-0.157,0.156v1.492
			c0,0.086,0.07,0.156,0.157,0.156h5.035c0.086,0,0.156-0.07,0.156-0.156V48.263z"/>
		
			<linearGradient id="SVGID_27_" gradientUnits="userSpaceOnUse" x1="-1100.3525" y1="91.3516" x2="-1096.6342" y2="87.6332" gradientTransform="matrix(-1 0 0 1 -1077.3945 -40.1641)">
			<stop  offset="0" style="stop-color:#A1A1A1"/>
			<stop  offset="0.1779" style="stop-color:#A3A3A3"/>
			<stop  offset="0.1914" style="stop-color:#AAAAAA"/>
			<stop  offset="0.2568" style="stop-color:#C4C4C4"/>
			<stop  offset="0.3288" style="stop-color:#D9D9D9"/>
			<stop  offset="0.4097" style="stop-color:#E7E7E7"/>
			<stop  offset="0.5066" style="stop-color:#F0F0F0"/>
			<stop  offset="0.6626" style="stop-color:#F2F2F2"/>
			<stop  offset="1" style="stop-color:#808080"/>
		</linearGradient>
		<path fill="url(#SVGID_27_)" d="M24.075,48.649c0-0.086-0.07-0.156-0.156-0.156H18.28c-0.086,0-0.156,0.07-0.156,0.156v1.355
			c0,0.086,0.07,0.156,0.156,0.156h5.639c0.086,0,0.156-0.07,0.156-0.156V48.649z"/>
		<g>
			
				<linearGradient id="SVGID_28_" gradientUnits="userSpaceOnUse" x1="-1098.4941" y1="70.165" x2="-1098.4941" y2="60.9355" gradientTransform="matrix(-1 0 0 1 -1077.3945 -40.1641)">
				<stop  offset="0" style="stop-color:#333333"/>
				<stop  offset="0.2945" style="stop-color:#333333"/>
				<stop  offset="1" style="stop-color:#B3B3B3"/>
			</linearGradient>
			<path fill="url(#SVGID_28_)" d="M22.235,30c0.971,0,1.783-0.646,1.969-1.504h0.041v-1.021c0-0.737,0.326-1.148,0.74-1.67
				c0.486-0.611,1.036-1.304,1.036-2.596c0-1.687-1.519-2.439-4.921-2.439c-3.404,0-4.922,0.753-4.922,2.439
				c0,1.292,0.551,1.984,1.035,2.596c0.415,0.521,0.742,0.933,0.742,1.67v1.021h0.039C18.183,29.354,18.994,30,19.965,30H22.235z"/>
			
				<linearGradient id="SVGID_29_" gradientUnits="userSpaceOnUse" x1="-1098.4946" y1="69.7715" x2="-1098.4946" y2="61.3291" gradientTransform="matrix(-1 0 0 1 -1077.3945 -40.1641)">
				<stop  offset="0" style="stop-color:#666666"/>
				<stop  offset="0.0863" style="stop-color:#868686"/>
				<stop  offset="0.1957" style="stop-color:#A7A7A7"/>
				<stop  offset="0.3135" style="stop-color:#C3C3C3"/>
				<stop  offset="0.4407" style="stop-color:#D8D8D8"/>
				<stop  offset="0.5818" style="stop-color:#E7E7E7"/>
				<stop  offset="0.7478" style="stop-color:#F0F0F0"/>
				<stop  offset="1" style="stop-color:#F2F2F2"/>
			</linearGradient>
			<path fill="url(#SVGID_29_)" d="M21.101,21.164c3.668,0,4.5,0.884,4.5,2.046c0,2.216-1.777,2.44-1.777,4.266s0,0.646,0,0.646
				c0,0.816-0.714,1.484-1.588,1.484h-1.135h-1.136c-0.874,0-1.587-0.668-1.587-1.484c0,0,0,1.179,0-0.646s-1.777-2.05-1.777-4.266
				C16.601,22.048,17.431,21.164,21.101,21.164z"/>
			<path fill="#FFFFFF" d="M21.101,21.729c-2.695,0-3.945,0.425-4.459,1.071c0.203-0.954,1.234-1.637,4.459-1.637
				c3.224,0,4.256,0.683,4.459,1.637C25.045,22.154,23.795,21.729,21.101,21.729z"/>
		</g>
		<g>
			
				<linearGradient id="SVGID_30_" gradientUnits="userSpaceOnUse" x1="-1230.9121" y1="102.5811" x2="-1223.7496" y2="95.4186" gradientTransform="matrix(-1 0 0 1 -1206.2598 -69.2861)">
				<stop  offset="0.0184" style="stop-color:#575757"/>
				<stop  offset="1" style="stop-color:#808080"/>
			</linearGradient>
			<path fill="url(#SVGID_30_)" d="M19.597,34.066c-0.865,0.001-1.648-0.309-2.203-0.866c-0.556-0.561-0.811-1.298-0.709-2.126
				l0.951-4.205c0.188-1.565,1.729-2.839,3.436-2.839s3.246,1.273,3.428,2.794l0.966,4.296c0.093,0.782-0.161,1.52-0.716,2.079
				c-0.557,0.559-1.338,0.867-2.205,0.867H19.597z M21.069,25.826c-0.697,0-1.383,0.578-1.465,1.263l-0.016,0.095l-0.941,4.154
				c-0.023,0.261,0.053,0.489,0.223,0.66c0.175,0.177,0.434,0.272,0.727,0.272l2.947,0.001c0.295-0.001,0.553-0.097,0.727-0.272
				c0.172-0.172,0.248-0.399,0.232-0.604l-0.957-4.248l-0.012-0.084C22.454,26.404,21.771,25.825,21.069,25.826L21.069,25.826z"/>
			
				<linearGradient id="SVGID_31_" gradientUnits="userSpaceOnUse" x1="-1230.5464" y1="102.2148" x2="-1224.1132" y2="95.7816" gradientTransform="matrix(-1 0 0 1 -1206.2598 -69.2861)">
				<stop  offset="0" style="stop-color:#E6E6E6"/>
				<stop  offset="0.3558" style="stop-color:#CFCFCF"/>
				<stop  offset="0.3879" style="stop-color:#D9D9D9"/>
				<stop  offset="0.4543" style="stop-color:#E7E7E7"/>
				<stop  offset="0.5341" style="stop-color:#F0F0F0"/>
				<stop  offset="0.6626" style="stop-color:#F2F2F2"/>
			</linearGradient>
			<path fill="url(#SVGID_31_)" d="M19.597,33.578h2.947c1.469,0,2.541-1.083,2.381-2.403l-0.955-4.252
				c-0.16-1.322-1.465-2.404-2.899-2.403c-1.435-0.001-2.737,1.081-2.897,2.403l-0.957,4.252
				C17.056,32.495,18.128,33.578,19.597,33.578z M18.108,31.297l0.948-4.212l0.013-0.073c0.109-0.911,1.025-1.676,2-1.677
				c0.979,0.001,1.893,0.768,2.002,1.677l0.005,0.036l0.958,4.249c0.038,0.393-0.09,0.758-0.361,1.029
				c-0.277,0.28-0.678,0.436-1.129,0.436h-2.947c-0.449-0.001-0.852-0.155-1.129-0.436C18.198,32.055,18.071,31.689,18.108,31.297z"
				/>
		</g>
		<g>
			
				<linearGradient id="SVGID_32_" gradientUnits="userSpaceOnUse" x1="-1098.4673" y1="68.833" x2="-1098.4673" y2="62.4531" gradientTransform="matrix(-1 0 0 1 -1077.3945 -40.1641)">
				<stop  offset="0.0184" style="stop-color:#575757"/>
				<stop  offset="1" style="stop-color:#808080"/>
			</linearGradient>
			<path fill="url(#SVGID_32_)" d="M21.567,28.668c0.517,0,0.938-0.437,0.938-0.974v-4.433c0-0.535-0.421-0.974-0.938-0.974h-0.988
				c-0.516,0-0.938,0.438-0.938,0.974v4.433c0,0.537,0.422,0.974,0.938,0.974H21.567z"/>
			
				<linearGradient id="SVGID_33_" gradientUnits="userSpaceOnUse" x1="-1098.4673" y1="68.3438" x2="-1098.4673" y2="62.9424" gradientTransform="matrix(-1 0 0 1 -1077.3945 -40.1641)">
				<stop  offset="0" style="stop-color:#808080"/>
				<stop  offset="0.3374" style="stop-color:#F2F2F2"/>
				<stop  offset="0.4825" style="stop-color:#F0F0F0"/>
				<stop  offset="0.5726" style="stop-color:#E7E7E7"/>
				<stop  offset="0.6475" style="stop-color:#D9D9D9"/>
				<stop  offset="0.6994" style="stop-color:#C9C9C9"/>
				<stop  offset="0.7546" style="stop-color:#FFFFFF"/>
				<stop  offset="1" style="stop-color:#CFCFCF"/>
			</linearGradient>
			<path fill="url(#SVGID_33_)" d="M20.114,27.694c0,0.267,0.209,0.484,0.465,0.484h0.988c0.256,0,0.465-0.218,0.465-0.484v-4.433
				c0-0.267-0.209-0.484-0.465-0.484h-0.988c-0.256,0-0.465,0.218-0.465,0.484V27.694z"/>
		</g>
	</g>
</g>
<g>
	<linearGradient id="SVGID_34_" gradientUnits="userSpaceOnUse" x1="7.0938" y1="14.4775" x2="7.0937" y2="6.251">
		<stop  offset="0" style="stop-color:#E0E0E0"/>
		<stop  offset="0.288" style="stop-color:#F0F0F0"/>
		<stop  offset="0.6289" style="stop-color:#FBFBFB"/>
		<stop  offset="1" style="stop-color:#FFFFFF"/>
	</linearGradient>
	<path fill="url(#SVGID_34_)" d="M5.94,10.881H5.367v2.598c0,0.343-0.076,0.595-0.227,0.756c-0.151,0.162-0.348,0.243-0.591,0.243
		c-0.261,0-0.463-0.085-0.606-0.253c-0.144-0.17-0.216-0.418-0.216-0.746V7.256c0-0.354,0.079-0.609,0.237-0.768
		s0.414-0.237,0.768-0.237h2.665c0.367,0,0.682,0.016,0.943,0.047c0.261,0.031,0.496,0.095,0.706,0.19
		c0.254,0.107,0.479,0.26,0.673,0.458c0.195,0.198,0.344,0.43,0.444,0.692c0.102,0.264,0.152,0.541,0.152,0.836
		c0,0.604-0.171,1.085-0.511,1.445c-0.341,0.361-0.856,0.617-1.548,0.768c0.291,0.154,0.568,0.383,0.833,0.684
		c0.265,0.302,0.501,0.623,0.709,0.963s0.37,0.647,0.485,0.922c0.116,0.273,0.174,0.463,0.174,0.565
		c0,0.106-0.033,0.212-0.102,0.317c-0.068,0.104-0.161,0.188-0.278,0.248c-0.118,0.061-0.254,0.091-0.408,0.091
		c-0.185,0-0.339-0.043-0.464-0.13c-0.125-0.086-0.232-0.195-0.323-0.328c-0.09-0.133-0.212-0.327-0.366-0.584L7.86,12.342
		c-0.235-0.4-0.445-0.705-0.632-0.915c-0.186-0.21-0.374-0.354-0.565-0.431S6.231,10.881,5.94,10.881z M6.879,7.481H5.367v2.224
		h1.467c0.394,0,0.725-0.034,0.993-0.102c0.269-0.068,0.474-0.185,0.615-0.348c0.142-0.164,0.213-0.39,0.213-0.676
		c0-0.225-0.058-0.423-0.171-0.594C8.37,7.815,8.212,7.688,8.01,7.604C7.818,7.521,7.441,7.481,6.879,7.481z"/>
	<linearGradient id="SVGID_35_" gradientUnits="userSpaceOnUse" x1="14.5869" y1="14.4775" x2="14.5869" y2="6.1133">
		<stop  offset="0" style="stop-color:#E0E0E0"/>
		<stop  offset="0.288" style="stop-color:#F0F0F0"/>
		<stop  offset="0.6289" style="stop-color:#FBFBFB"/>
		<stop  offset="1" style="stop-color:#FFFFFF"/>
	</linearGradient>
	<path fill="url(#SVGID_35_)" d="M16.59,13.424l-0.387-1.016h-3.288l-0.386,1.037c-0.151,0.405-0.28,0.679-0.387,0.82
		c-0.106,0.141-0.281,0.212-0.524,0.212c-0.206,0-0.388-0.075-0.546-0.226c-0.158-0.151-0.237-0.322-0.237-0.514
		c0-0.11,0.019-0.225,0.055-0.342c0.037-0.117,0.098-0.281,0.183-0.491l2.069-5.253c0.059-0.15,0.129-0.332,0.212-0.543
		c0.083-0.212,0.171-0.387,0.265-0.527c0.094-0.14,0.218-0.253,0.37-0.34c0.152-0.086,0.341-0.129,0.565-0.129
		c0.229,0,0.419,0.043,0.571,0.129c0.152,0.087,0.275,0.198,0.369,0.334c0.094,0.137,0.173,0.283,0.237,0.439
		s0.146,0.365,0.246,0.626l2.113,5.22c0.165,0.396,0.248,0.686,0.248,0.866c0,0.188-0.078,0.359-0.234,0.516
		s-0.345,0.234-0.565,0.234c-0.129,0-0.239-0.022-0.331-0.069c-0.092-0.045-0.17-0.107-0.232-0.188
		c-0.062-0.078-0.129-0.199-0.201-0.363C16.703,13.693,16.642,13.549,16.59,13.424z M13.346,11.178h2.416L14.543,7.84L13.346,11.178
		z"/>
	<linearGradient id="SVGID_36_" gradientUnits="userSpaceOnUse" x1="22.4434" y1="14.4775" x2="22.4434" y2="6.251">
		<stop  offset="0" style="stop-color:#E0E0E0"/>
		<stop  offset="0.288" style="stop-color:#F0F0F0"/>
		<stop  offset="0.6289" style="stop-color:#FBFBFB"/>
		<stop  offset="1" style="stop-color:#FFFFFF"/>
	</linearGradient>
	<path fill="url(#SVGID_36_)" d="M21.291,10.881h-0.573v2.598c0,0.343-0.076,0.595-0.227,0.756
		c-0.151,0.162-0.348,0.243-0.591,0.243c-0.261,0-0.463-0.085-0.606-0.253c-0.144-0.17-0.216-0.418-0.216-0.746V7.256
		c0-0.354,0.079-0.609,0.237-0.768s0.414-0.237,0.768-0.237h2.665c0.367,0,0.682,0.016,0.943,0.047
		c0.261,0.031,0.496,0.095,0.706,0.19c0.254,0.107,0.479,0.26,0.673,0.458c0.195,0.198,0.344,0.43,0.444,0.692
		c0.102,0.264,0.152,0.541,0.152,0.836c0,0.604-0.171,1.085-0.511,1.445c-0.341,0.361-0.856,0.617-1.548,0.768
		c0.291,0.154,0.568,0.383,0.833,0.684c0.265,0.302,0.501,0.623,0.709,0.963s0.37,0.647,0.485,0.922
		c0.116,0.273,0.174,0.463,0.174,0.565c0,0.106-0.033,0.212-0.102,0.317c-0.068,0.104-0.161,0.188-0.278,0.248
		c-0.118,0.061-0.254,0.091-0.408,0.091c-0.185,0-0.339-0.043-0.464-0.13c-0.125-0.086-0.232-0.195-0.323-0.328
		c-0.09-0.133-0.212-0.327-0.366-0.584l-0.657-1.094c-0.235-0.4-0.445-0.705-0.632-0.915c-0.186-0.21-0.374-0.354-0.565-0.431
		S21.582,10.881,21.291,10.881z M22.229,7.481h-1.512v2.224h1.467c0.394,0,0.725-0.034,0.993-0.102
		c0.269-0.068,0.474-0.185,0.615-0.348c0.142-0.164,0.213-0.39,0.213-0.676c0-0.225-0.058-0.423-0.171-0.594
		c-0.114-0.171-0.272-0.299-0.475-0.383C23.169,7.521,22.792,7.481,22.229,7.481z"/>
</g>
</svg>
