<?xml version="1.0" encoding="utf-8"?>
<!-- Generator: Adobe Illustrator 16.0.3, SVG Export Plug-In . SVG Version: 6.00 Build 0)  -->
<!DOCTYPE svg PUBLIC "-//W3C//DTD SVG 1.1//EN" "http://www.w3.org/Graphics/SVG/1.1/DTD/svg11.dtd">
<svg version="1.1" id="Layer_1" xmlns="http://www.w3.org/2000/svg" xmlns:xlink="http://www.w3.org/1999/xlink" x="0px" y="0px"
	 width="43px" height="51px" viewBox="0 0 43 51" enable-background="new 0 0 43 51" xml:space="preserve">
<g>
	<g>
		<linearGradient id="SVGID_1_" gradientUnits="userSpaceOnUse" x1="21.2944" y1="50.7656" x2="21.2944" y2="0">
			<stop  offset="0" style="stop-color:#5B5B5B"/>
			<stop  offset="0.3277" style="stop-color:#555555"/>
			<stop  offset="1" style="stop-color:#4E4E4E"/>
		</linearGradient>
		<path fill="url(#SVGID_1_)" d="M3.401,50.766C1.53,50.766,0,49.234,0,47.363V3.402C0,1.531,1.53,0,3.401,0c0,0,14.454,0,20.763,0
			c2.459,0,3.123,0.49,4.447,1.568c1.779,1.451,3.998,3.809,6.207,5.984c3.729,3.672,7.77,7.324,7.77,10.871
			c0,7.213,0,28.939,0,28.939c0,1.871-1.531,3.402-3.402,3.402H3.401z"/>
		<linearGradient id="SVGID_2_" gradientUnits="userSpaceOnUse" x1="21.2935" y1="49.9141" x2="21.2935" y2="0.8516">
			<stop  offset="0" style="stop-color:#FFFFFF"/>
			<stop  offset="0.1288" style="stop-color:#F8F8F8"/>
			<stop  offset="0.3208" style="stop-color:#E3E3E3"/>
			<stop  offset="0.5522" style="stop-color:#C2C2C2"/>
			<stop  offset="0.812" style="stop-color:#959595"/>
			<stop  offset="1" style="stop-color:#6F6F6F"/>
		</linearGradient>
		<path fill="url(#SVGID_2_)" d="M38.902,16.238h-8.219c-1.559,0-2.834-1.275-2.834-2.836V3.162c0-1.559-1.275-2.311-2.834-2.311
			H3.685c-1.559,0-2.834,1.275-2.834,2.834V47.08c0,1.559,1.275,2.834,2.834,2.834h35.218c1.559,0,2.834-1.275,2.834-2.834V18.459
			C41.736,16.584,40.047,16.238,38.902,16.238z"/>
		<g>
			<linearGradient id="SVGID_3_" gradientUnits="userSpaceOnUse" x1="21.2876" y1="18.2236" x2="21.2876" y2="0">
				<stop  offset="0" style="stop-color:#3F4443"/>
				<stop  offset="1" style="stop-color:#5F5F5F"/>
			</linearGradient>
			<path fill="url(#SVGID_3_)" d="M42.574,18.224c-0.148-3.484-4.098-7.068-7.756-10.671c-2.209-2.176-4.428-4.533-6.207-5.984
				C27.287,0.49,26.623,0,24.164,0C17.855,0,3.401,0,3.401,0C1.53,0,0,1.531,0,3.402v14.821H42.574z"/>
			<g>
				<linearGradient id="SVGID_4_" gradientUnits="userSpaceOnUse" x1="28.7178" y1="13.8721" x2="34.827" y2="7.7628">
					<stop  offset="0" style="stop-color:#828282"/>
					<stop  offset="0.8834" style="stop-color:#737373"/>
					<stop  offset="1" style="stop-color:#6B6B6B"/>
				</linearGradient>
				<path fill="url(#SVGID_4_)" d="M42.574,17.973c-0.061-1.941-0.529-3.271-1.861-4.871C37.766,9.562,32.432,4.926,28.82,1.523
					c-1.426-1.34-2.666-1.516-4.561-1.521C24.203,0,24.164,0,24.164,0c2.027,0,3.686,0.447,3.686,2.475v9.428
					c0,1.561,1.275,2.836,2.834,2.836h8.219c2.02,0,3.67,1.645,3.684,3.66c0,0.008,0.002,0.016,0.002,0.023c0-0.002,0-0.004,0-0.004
					c0,0.002,0,0.004,0,0.006C42.588,18.424,42.594,18.25,42.574,17.973z"/>
				<linearGradient id="SVGID_5_" gradientUnits="userSpaceOnUse" x1="29.0576" y1="13.5322" x2="34.8474" y2="7.7424">
					<stop  offset="0.2577" style="stop-color:#737373"/>
					<stop  offset="0.7861" style="stop-color:#6F6F6F"/>
					<stop  offset="1" style="stop-color:#6B6B6B"/>
				</linearGradient>
				<path fill="url(#SVGID_5_)" d="M42.574,17.973c-0.061-1.941-0.529-3.271-1.861-4.871C37.766,9.562,32.432,4.926,28.82,1.523
					c-1.426-1.34-2.666-1.516-4.561-1.521C24.203,0,24.164,0,24.164,0c2.027,0,4.27,0.521,4.27,2.834v9.068
					c0,1.561,1.484,2.836,3.043,2.836h7.426c2.02,0,3.67,1.645,3.684,3.66c0,0.008,0.002,0.016,0.002,0.023c0-0.002,0-0.004,0-0.004
					c0,0.002,0,0.004,0,0.006C42.588,18.424,42.594,18.25,42.574,17.973z"/>
			</g>
			<linearGradient id="SVGID_6_" gradientUnits="userSpaceOnUse" x1="21.2798" y1="18.2236" x2="21.2798" y2="0.8516">
				<stop  offset="0" style="stop-color:#5F5F5F"/>
				<stop  offset="1" style="stop-color:#6B6B6B"/>
			</linearGradient>
			<path fill="url(#SVGID_6_)" d="M41.709,18.224c-0.145-1.655-1.715-1.985-2.807-1.985h-8.219c-1.559,0-2.834-1.275-2.834-2.836
				V3.162c0-1.559-1.275-2.311-2.834-2.311H3.685c-1.559,0-2.834,1.275-2.834,2.834v14.538H41.709z"/>
		</g>
	</g>
</g>
<g>
	<linearGradient id="SVGID_7_" gradientUnits="userSpaceOnUse" x1="8.2437" y1="13.4463" x2="8.2437" y2="5.2197">
		<stop  offset="0" style="stop-color:#E0E0E0"/>
		<stop  offset="0.288" style="stop-color:#F0F0F0"/>
		<stop  offset="0.6289" style="stop-color:#FBFBFB"/>
		<stop  offset="1" style="stop-color:#FFFFFF"/>
	</linearGradient>
	<path fill="url(#SVGID_7_)" d="M7.091,9.85H6.517v2.598c0,0.343-0.076,0.595-0.227,0.756c-0.151,0.162-0.348,0.243-0.59,0.243
		c-0.261,0-0.463-0.085-0.607-0.253c-0.144-0.17-0.215-0.418-0.215-0.746V6.225c0-0.354,0.079-0.609,0.237-0.768
		S5.529,5.22,5.882,5.22h2.665c0.368,0,0.682,0.016,0.943,0.047s0.497,0.095,0.707,0.19c0.253,0.107,0.478,0.26,0.673,0.458
		s0.343,0.43,0.444,0.692c0.101,0.264,0.152,0.541,0.152,0.836c0,0.604-0.17,1.085-0.511,1.445C10.615,9.25,10.1,9.506,9.408,9.656
		c0.291,0.154,0.568,0.383,0.833,0.684c0.265,0.302,0.501,0.623,0.709,0.963s0.37,0.647,0.485,0.922
		c0.116,0.273,0.174,0.463,0.174,0.565c0,0.106-0.034,0.212-0.102,0.317c-0.068,0.104-0.161,0.188-0.278,0.248
		s-0.254,0.091-0.408,0.091c-0.184,0-0.339-0.043-0.464-0.13c-0.125-0.086-0.232-0.195-0.323-0.328
		c-0.09-0.133-0.212-0.327-0.367-0.584l-0.657-1.094c-0.235-0.4-0.446-0.705-0.632-0.915c-0.186-0.21-0.374-0.354-0.565-0.431
		S7.381,9.85,7.091,9.85z M8.029,6.45H6.517v2.224h1.467c0.394,0,0.725-0.034,0.993-0.102c0.269-0.068,0.474-0.185,0.615-0.348
		c0.142-0.164,0.212-0.39,0.212-0.676c0-0.225-0.057-0.423-0.171-0.594C9.52,6.784,9.362,6.656,9.16,6.572
		C8.968,6.49,8.591,6.45,8.029,6.45z"/>
	<linearGradient id="SVGID_8_" gradientUnits="userSpaceOnUse" x1="15.1074" y1="13.4463" x2="15.1074" y2="5.2197">
		<stop  offset="0" style="stop-color:#E0E0E0"/>
		<stop  offset="0.288" style="stop-color:#F0F0F0"/>
		<stop  offset="0.6289" style="stop-color:#FBFBFB"/>
		<stop  offset="1" style="stop-color:#FFFFFF"/>
	</linearGradient>
	<path fill="url(#SVGID_8_)" d="M17.707,6.572h-1.788v5.875c0,0.339-0.075,0.59-0.226,0.754s-0.346,0.245-0.585,0.245
		c-0.243,0-0.44-0.083-0.593-0.248c-0.153-0.165-0.229-0.415-0.229-0.751V6.572h-1.788c-0.279,0-0.487-0.062-0.623-0.186
		c-0.136-0.123-0.205-0.286-0.205-0.488c0-0.209,0.071-0.375,0.212-0.496c0.142-0.122,0.347-0.183,0.615-0.183h5.209
		c0.283,0,0.494,0.062,0.631,0.188c0.138,0.126,0.207,0.289,0.207,0.491s-0.07,0.365-0.209,0.488
		C18.195,6.51,17.986,6.572,17.707,6.572z"/>
	<linearGradient id="SVGID_9_" gradientUnits="userSpaceOnUse" x1="22.3027" y1="13.4463" x2="22.3027" y2="5.2197">
		<stop  offset="0" style="stop-color:#E0E0E0"/>
		<stop  offset="0.288" style="stop-color:#F0F0F0"/>
		<stop  offset="0.6289" style="stop-color:#FBFBFB"/>
		<stop  offset="1" style="stop-color:#FFFFFF"/>
	</linearGradient>
	<path fill="url(#SVGID_9_)" d="M24.35,6.483h-3.228v2.069h2.699c0.25,0,0.437,0.056,0.56,0.168s0.186,0.262,0.186,0.449
		s-0.063,0.337-0.188,0.447s-0.311,0.166-0.557,0.166h-2.699v2.664c0,0.339-0.076,0.59-0.229,0.754
		c-0.152,0.164-0.348,0.245-0.587,0.245c-0.243,0-0.44-0.083-0.593-0.248s-0.229-0.415-0.229-0.751V6.225
		c0-0.236,0.035-0.428,0.105-0.577s0.179-0.257,0.328-0.325s0.339-0.103,0.571-0.103h3.862c0.262,0,0.455,0.058,0.582,0.174
		s0.19,0.268,0.19,0.455c0,0.191-0.063,0.345-0.19,0.461S24.611,6.483,24.35,6.483z"/>
</g>
<linearGradient id="SVGID_10_" gradientUnits="userSpaceOnUse" x1="21.5005" y1="44" x2="21.5005" y2="22">
	<stop  offset="0" style="stop-color:#5F5F5F"/>
	<stop  offset="1" style="stop-color:#6B6B6B"/>
</linearGradient>
<path fill="url(#SVGID_10_)" d="M19.833,22.216v6.967h-1.889v-1.146c0-2.706-1.405-3.933-4.239-3.933v12.228
	c0,0.664,0.256,0.919,1.047,0.919h1.941v1.89H7.146v-1.89h1.939c0.792,0,1.046-0.255,1.046-0.919V24.104
	c-2.833,0-4.237,1.227-4.237,3.933v1.146H4.006v-6.967H19.833z M39,22H24v2h15V22z M39,27H24v2h15V27z M39,32H24v2h15V32z M39,37H24
	v2h15V37z M39,42H4v2h35V42z"/>
</svg>
