<?xml version="1.0" encoding="utf-8"?>
<!-- Generator: Adobe Illustrator 16.0.3, SVG Export Plug-In . SVG Version: 6.00 Build 0)  -->
<!DOCTYPE svg PUBLIC "-//W3C//DTD SVG 1.1//EN" "http://www.w3.org/Graphics/SVG/1.1/DTD/svg11.dtd">
<svg version="1.1" id="Layer_1" xmlns="http://www.w3.org/2000/svg" xmlns:xlink="http://www.w3.org/1999/xlink" x="0px" y="0px"
	 width="43px" height="51px" viewBox="0 0 43 51" enable-background="new 0 0 43 51" xml:space="preserve">
<g>
	<g>
		<linearGradient id="SVGID_1_" gradientUnits="userSpaceOnUse" x1="21.2939" y1="50.7656" x2="21.2939" y2="0">
			<stop  offset="0" style="stop-color:#5B5B5B"/>
			<stop  offset="0.3277" style="stop-color:#555555"/>
			<stop  offset="1" style="stop-color:#4E4E4E"/>
		</linearGradient>
		<path fill="url(#SVGID_1_)" d="M3.401,50.766C1.53,50.766,0,49.234,0,47.363V3.402C0,1.531,1.53,0,3.401,0c0,0,14.453,0,20.763,0
			c2.458,0,3.122,0.49,4.446,1.568c1.779,1.451,3.999,3.809,6.208,5.984c3.728,3.672,7.77,7.324,7.77,10.871
			c0,7.213,0,28.939,0,28.939c-0.001,1.871-1.531,3.402-3.402,3.402H3.401z"/>
		<linearGradient id="SVGID_2_" gradientUnits="userSpaceOnUse" x1="21.2935" y1="49.9141" x2="21.2935" y2="0.8516">
			<stop  offset="0" style="stop-color:#FFFFFF"/>
			<stop  offset="0.1288" style="stop-color:#F8F8F8"/>
			<stop  offset="0.3208" style="stop-color:#E3E3E3"/>
			<stop  offset="0.5522" style="stop-color:#C2C2C2"/>
			<stop  offset="0.812" style="stop-color:#959595"/>
			<stop  offset="1" style="stop-color:#6F6F6F"/>
		</linearGradient>
		<path fill="url(#SVGID_2_)" d="M38.902,16.238h-8.219c-1.559,0-2.834-1.275-2.834-2.836V3.162c0-1.559-1.275-2.311-2.835-2.311
			H3.685c-1.559,0-2.834,1.275-2.834,2.834V47.08c0,1.559,1.275,2.834,2.834,2.834h35.218c1.559,0,2.834-1.275,2.834-2.834V18.459
			C41.736,16.584,40.047,16.238,38.902,16.238z"/>
		<g>
			<linearGradient id="SVGID_3_" gradientUnits="userSpaceOnUse" x1="21.2871" y1="18.2236" x2="21.2871" y2="0">
				<stop  offset="0" style="stop-color:#3F4443"/>
				<stop  offset="1" style="stop-color:#5F5F5F"/>
			</linearGradient>
			<path fill="url(#SVGID_3_)" d="M42.574,18.224c-0.148-3.484-4.098-7.068-7.756-10.671C32.609,5.377,30.39,3.02,28.61,1.568
				C27.286,0.49,26.622,0,24.164,0C17.854,0,3.401,0,3.401,0C1.53,0,0,1.531,0,3.402v14.821H42.574z"/>
			<g>
				<linearGradient id="SVGID_4_" gradientUnits="userSpaceOnUse" x1="28.7163" y1="13.8721" x2="34.8254" y2="7.7629">
					<stop  offset="0" style="stop-color:#828282"/>
					<stop  offset="0.8834" style="stop-color:#737373"/>
					<stop  offset="1" style="stop-color:#6B6B6B"/>
				</linearGradient>
				<path fill="url(#SVGID_4_)" d="M42.574,17.973c-0.061-1.941-0.529-3.271-1.861-4.871c-2.948-3.539-8.281-8.176-11.894-11.578
					c-1.426-1.34-2.665-1.516-4.56-1.521C24.202,0,24.164,0,24.164,0c2.027,0,3.686,0.447,3.686,2.475v9.428
					c0,1.561,1.275,2.836,2.834,2.836h8.219c2.019,0,3.669,1.645,3.683,3.66c0,0.008,0.002,0.016,0.002,0.023
					c0-0.002,0-0.004,0-0.004c0,0.002,0,0.004,0,0.006C42.587,18.424,42.593,18.25,42.574,17.973z"/>
				<linearGradient id="SVGID_5_" gradientUnits="userSpaceOnUse" x1="29.0562" y1="13.5322" x2="34.846" y2="7.7424">
					<stop  offset="0.2577" style="stop-color:#737373"/>
					<stop  offset="0.7861" style="stop-color:#6F6F6F"/>
					<stop  offset="1" style="stop-color:#6B6B6B"/>
				</linearGradient>
				<path fill="url(#SVGID_5_)" d="M42.574,17.973c-0.061-1.941-0.529-3.271-1.861-4.871c-2.948-3.539-8.281-8.176-11.894-11.578
					c-1.426-1.34-2.665-1.516-4.56-1.521C24.202,0,24.164,0,24.164,0c2.027,0,4.27,0.521,4.27,2.834v9.068
					c0,1.561,1.483,2.836,3.042,2.836h7.427c2.019,0,3.669,1.645,3.683,3.66c0,0.008,0.002,0.016,0.002,0.023
					c0-0.002,0-0.004,0-0.004c0,0.002,0,0.004,0,0.006C42.587,18.424,42.593,18.25,42.574,17.973z"/>
			</g>
			<linearGradient id="SVGID_6_" gradientUnits="userSpaceOnUse" x1="21.2798" y1="18.2236" x2="21.2798" y2="0.8516">
				<stop  offset="0" style="stop-color:#5F5F5F"/>
				<stop  offset="1" style="stop-color:#6B6B6B"/>
			</linearGradient>
			<path fill="url(#SVGID_6_)" d="M41.709,18.224c-0.146-1.655-1.715-1.985-2.807-1.985h-8.219c-1.559,0-2.834-1.275-2.834-2.836
				V3.162c0-1.559-1.275-2.311-2.835-2.311H3.685c-1.559,0-2.834,1.275-2.834,2.834v14.538H41.709z"/>
		</g>
	</g>
</g>
<g>
	<linearGradient id="SVGID_7_" gradientUnits="userSpaceOnUse" x1="7.543" y1="13.4463" x2="7.543" y2="5.2197">
		<stop  offset="0" style="stop-color:#E0E0E0"/>
		<stop  offset="0.288" style="stop-color:#F0F0F0"/>
		<stop  offset="0.6289" style="stop-color:#FBFBFB"/>
		<stop  offset="1" style="stop-color:#FFFFFF"/>
	</linearGradient>
	<path fill="url(#SVGID_7_)" d="M10.142,6.572H8.354v5.875c0,0.339-0.075,0.59-0.226,0.754s-0.346,0.245-0.585,0.245
		c-0.243,0-0.44-0.083-0.593-0.248c-0.153-0.165-0.229-0.415-0.229-0.751V6.572H4.933c-0.279,0-0.487-0.062-0.623-0.186
		C4.174,6.264,4.105,6.101,4.105,5.898c0-0.209,0.071-0.375,0.212-0.496C4.459,5.28,4.665,5.22,4.933,5.22h5.209
		c0.283,0,0.494,0.062,0.631,0.188c0.138,0.126,0.207,0.289,0.207,0.491s-0.07,0.365-0.209,0.488
		C10.631,6.51,10.421,6.572,10.142,6.572z"/>
	<linearGradient id="SVGID_8_" gradientUnits="userSpaceOnUse" x1="14.4536" y1="13.4463" x2="14.4536" y2="5.082">
		<stop  offset="0" style="stop-color:#E0E0E0"/>
		<stop  offset="0.288" style="stop-color:#F0F0F0"/>
		<stop  offset="0.6289" style="stop-color:#FBFBFB"/>
		<stop  offset="1" style="stop-color:#FFFFFF"/>
	</linearGradient>
	<path fill="url(#SVGID_8_)" d="M11.654,11.736l1.81-2.643L11.94,6.742c-0.143-0.228-0.251-0.424-0.323-0.587
		c-0.072-0.164-0.107-0.321-0.107-0.472c0-0.154,0.069-0.293,0.207-0.417c0.138-0.123,0.306-0.185,0.505-0.185
		c0.228,0,0.405,0.066,0.532,0.201s0.303,0.384,0.527,0.748l1.214,1.964l1.297-1.964c0.106-0.166,0.198-0.308,0.273-0.426
		c0.075-0.117,0.148-0.215,0.218-0.292c0.07-0.077,0.148-0.136,0.235-0.174s0.187-0.058,0.301-0.058
		c0.206,0,0.374,0.062,0.505,0.185c0.13,0.124,0.196,0.27,0.196,0.438c0,0.246-0.142,0.582-0.425,1.004L15.5,9.094l1.716,2.643
		c0.155,0.231,0.267,0.424,0.337,0.576c0.07,0.152,0.104,0.297,0.104,0.434c0,0.129-0.031,0.246-0.094,0.354
		c-0.062,0.105-0.151,0.19-0.265,0.253c-0.114,0.062-0.243,0.094-0.386,0.094c-0.155,0-0.285-0.032-0.392-0.097
		c-0.106-0.064-0.193-0.145-0.259-0.24c-0.066-0.096-0.189-0.281-0.37-0.557l-1.423-2.24l-1.512,2.307
		c-0.118,0.184-0.202,0.312-0.251,0.386c-0.049,0.073-0.109,0.146-0.179,0.216c-0.07,0.069-0.152,0.125-0.248,0.165
		s-0.208,0.061-0.337,0.061c-0.198,0-0.363-0.061-0.494-0.182c-0.13-0.122-0.196-0.298-0.196-0.53
		C11.251,12.463,11.385,12.13,11.654,11.736z"/>
	<linearGradient id="SVGID_9_" gradientUnits="userSpaceOnUse" x1="21.4307" y1="13.4463" x2="21.4307" y2="5.2197">
		<stop  offset="0" style="stop-color:#E0E0E0"/>
		<stop  offset="0.288" style="stop-color:#F0F0F0"/>
		<stop  offset="0.6289" style="stop-color:#FBFBFB"/>
		<stop  offset="1" style="stop-color:#FFFFFF"/>
	</linearGradient>
	<path fill="url(#SVGID_9_)" d="M24.03,6.572h-1.788v5.875c0,0.339-0.075,0.59-0.226,0.754s-0.346,0.245-0.585,0.245
		c-0.243,0-0.44-0.083-0.593-0.248c-0.153-0.165-0.229-0.415-0.229-0.751V6.572h-1.788c-0.279,0-0.487-0.062-0.623-0.186
		c-0.136-0.123-0.205-0.286-0.205-0.488c0-0.209,0.071-0.375,0.212-0.496c0.142-0.122,0.347-0.183,0.615-0.183h5.209
		c0.283,0,0.494,0.062,0.631,0.188c0.138,0.126,0.207,0.289,0.207,0.491s-0.07,0.365-0.209,0.488
		C24.519,6.51,24.309,6.572,24.03,6.572z"/>
</g>
<linearGradient id="SVGID_10_" gradientUnits="userSpaceOnUse" x1="21.5" y1="44" x2="21.5" y2="22">
	<stop  offset="0" style="stop-color:#5F5F5F"/>
	<stop  offset="1" style="stop-color:#6B6B6B"/>
</linearGradient>
<path fill="url(#SVGID_10_)" d="M19.833,22.216v6.967h-1.888v-1.146c0-2.706-1.405-3.933-4.239-3.933v12.228
	c0,0.664,0.256,0.919,1.047,0.919h1.941v1.89H7.146v-1.89h1.939c0.792,0,1.046-0.255,1.046-0.919V24.104
	c-2.833,0-4.237,1.227-4.237,3.933v1.146H4.006v-6.967H19.833z M39,22H24v2h15V22z M39,27H24v2h15V27z M39,32H24v2h15V32z M39,37H24
	v2h15V37z M39,42H4v2h35V42z"/>
</svg>
