<?xml version="1.0" encoding="utf-8"?>
<!-- Generator: Adobe Illustrator 16.0.3, SVG Export Plug-In . SVG Version: 6.00 Build 0)  -->
<!DOCTYPE svg PUBLIC "-//W3C//DTD SVG 1.1//EN" "http://www.w3.org/Graphics/SVG/1.1/DTD/svg11.dtd">
<svg version="1.1" id="Layer_1" xmlns="http://www.w3.org/2000/svg" xmlns:xlink="http://www.w3.org/1999/xlink" x="0px" y="0px"
	 width="43px" height="51px" viewBox="0 0 43 51" enable-background="new 0 0 43 51" xml:space="preserve">
<g>
	<g>
		<linearGradient id="SVGID_1_" gradientUnits="userSpaceOnUse" x1="21.2944" y1="50.7656" x2="21.2944" y2="0">
			<stop  offset="0" style="stop-color:#CCCCCC"/>
			<stop  offset="0.3187" style="stop-color:#C7C7C7"/>
			<stop  offset="1" style="stop-color:#BFBFBF"/>
		</linearGradient>
		<path fill="url(#SVGID_1_)" d="M3.402,50.766C1.531,50.766,0,49.234,0,47.363V3.402C0,1.531,1.531,0,3.402,0
			c0,0,14.453,0,20.762,0c2.459,0,3.123,0.49,4.447,1.568c1.779,1.451,3.998,3.809,6.207,5.984c3.729,3.672,7.77,7.324,7.77,10.871
			c0,7.213,0,28.939,0,28.939c0,1.871-1.531,3.402-3.402,3.402H3.402z"/>
		<path fill="#DBC18B" d="M12.474,0C7.609,0,3.402,0,3.402,0C1.531,0,0,1.531,0,3.402v43.961c0,1.871,1.531,3.402,3.402,3.402h9.071
			V0z"/>
		<linearGradient id="SVGID_2_" gradientUnits="userSpaceOnUse" x1="21.2944" y1="49.9141" x2="21.2944" y2="0.8516">
			<stop  offset="0" style="stop-color:#FFFFFF"/>
			<stop  offset="0.3735" style="stop-color:#F8F8F8"/>
			<stop  offset="0.9283" style="stop-color:#E4E4E4"/>
			<stop  offset="1" style="stop-color:#E0E0E0"/>
		</linearGradient>
		<path fill="url(#SVGID_2_)" d="M38.902,16.238h-8.219c-1.559,0-2.834-1.275-2.834-2.836V3.162c0-1.559-1.275-2.311-2.834-2.311
			H3.686c-1.559,0-2.834,1.275-2.834,2.834V47.08c0,1.559,1.275,2.834,2.834,2.834h35.217c1.559,0,2.834-1.275,2.834-2.834V18.459
			C41.736,16.584,40.047,16.238,38.902,16.238z"/>
		<linearGradient id="SVGID_3_" gradientUnits="userSpaceOnUse" x1="6.4707" y1="49.9141" x2="6.4707" y2="0.8516">
			<stop  offset="0" style="stop-color:#FFFAD1"/>
			<stop  offset="0.9952" style="stop-color:#FFEBB9"/>
		</linearGradient>
		<path fill="url(#SVGID_3_)" d="M12.09,0.852H3.686c-1.559,0-2.834,1.275-2.834,2.834V47.08c0,1.559,1.275,2.834,2.834,2.834h8.404
			V0.852z"/>
		<rect x="11.607" y="24.497" fill="#EBEBEB" width="30.129" height="6.117"/>
		<rect x="11.607" y="37.372" fill="#EBEBEB" width="30.129" height="6.617"/>
		<path fill="#F3E0B0" d="M12.219,30.614H0.756v-6.117h11.463V30.614z M12.219,37.622H0.756v6.117h11.463V37.622z"/>
		<polygon fill="#F1D498" points="12.474,50.214 11.864,50.214 11.864,17.872 12.474,17.872 12.474,50.214 		"/>
		<polygon fill="#CCCCCC" points="30.724,49.914 30.114,49.914 30.114,17.572 30.724,17.572 30.724,49.914 		"/>
		<g>
			<polygon fill="#F1D498" points="0.701,24.76 0.701,24.15 41.969,24.15 41.969,24.76 0.701,24.76 			"/>
			<polygon fill="#F1D498" points="0.701,31.241 0.701,30.632 41.969,30.632 41.969,31.241 0.701,31.241 			"/>
			<polygon fill="#F1D498" points="0.701,37.724 0.701,37.114 41.969,37.114 41.969,37.724 0.701,37.724 			"/>
			<polygon fill="#F1D498" points="0.701,44.205 0.701,43.596 41.969,43.596 41.969,44.205 0.701,44.205 			"/>
		</g>
		<g>
			<polygon fill="#CCCCCC" points="12.534,24.76 12.534,24.15 41.969,24.15 41.969,24.76 12.534,24.76 			"/>
			<polygon fill="#CCCCCC" points="12.534,31.241 12.534,30.632 41.969,30.632 41.969,31.241 12.534,31.241 			"/>
			<polygon fill="#CCCCCC" points="12.534,37.724 12.534,37.114 41.969,37.114 41.969,37.724 12.534,37.724 			"/>
			<polygon fill="#CCCCCC" points="12.534,44.205 12.534,43.596 41.969,43.596 41.969,44.205 12.534,44.205 			"/>
		</g>
		<g>
			<linearGradient id="SVGID_4_" gradientUnits="userSpaceOnUse" x1="21.2876" y1="18.2236" x2="21.2876" y2="0">
				<stop  offset="0" style="stop-color:#599341"/>
				<stop  offset="1" style="stop-color:#69B045"/>
			</linearGradient>
			<path fill="url(#SVGID_4_)" d="M42.574,18.224c-0.147-3.484-4.098-7.068-7.756-10.671c-2.209-2.176-4.428-4.533-6.207-5.984
				C27.287,0.49,26.623,0,24.164,0C17.855,0,3.402,0,3.402,0C1.531,0,0,1.531,0,3.402v14.821H42.574z"/>
			<g>
				<linearGradient id="SVGID_5_" gradientUnits="userSpaceOnUse" x1="28.7178" y1="13.8716" x2="34.8262" y2="7.7631">
					<stop  offset="0" style="stop-color:#DAE8C2"/>
					<stop  offset="0.8834" style="stop-color:#CADFA6"/>
					<stop  offset="1" style="stop-color:#84C341"/>
				</linearGradient>
				<path fill="url(#SVGID_5_)" d="M42.574,17.973c-0.061-1.941-0.529-3.271-1.861-4.871C37.766,9.562,32.432,4.926,28.82,1.523
					c-1.426-1.34-2.666-1.516-4.561-1.521C24.203,0,24.164,0,24.164,0c2.027,0,3.686,0.447,3.686,2.475v9.428
					c0,1.561,1.275,2.836,2.834,2.836h8.219c2.02,0,3.67,1.645,3.684,3.66c0,0.008,0.002,0.016,0.002,0.023c0-0.002,0-0.004,0-0.004
					c0,0.002,0,0.004,0,0.006C42.588,18.424,42.594,18.25,42.574,17.973z"/>
				<linearGradient id="SVGID_6_" gradientUnits="userSpaceOnUse" x1="29.0576" y1="13.5312" x2="34.8466" y2="7.7423">
					<stop  offset="0.2577" style="stop-color:#9FCD60"/>
					<stop  offset="0.5228" style="stop-color:#9BCC5C"/>
					<stop  offset="0.7937" style="stop-color:#91C850"/>
					<stop  offset="1" style="stop-color:#84C341"/>
				</linearGradient>
				<path fill="url(#SVGID_6_)" d="M42.574,17.973c-0.061-1.941-0.529-3.271-1.861-4.871C37.766,9.562,32.432,4.926,28.82,1.523
					c-1.426-1.34-2.666-1.516-4.561-1.521C24.203,0,24.164,0,24.164,0c2.027,0,4.27,0.521,4.27,2.834v9.068
					c0,1.561,1.484,2.836,3.043,2.836h7.426c2.02,0,3.67,1.645,3.684,3.66c0,0.008,0.002,0.016,0.002,0.023c0-0.002,0-0.004,0-0.004
					c0,0.002,0,0.004,0,0.006C42.588,18.424,42.594,18.25,42.574,17.973z"/>
			</g>
			<linearGradient id="SVGID_7_" gradientUnits="userSpaceOnUse" x1="21.2808" y1="18.2236" x2="21.2808" y2="0.8516">
				<stop  offset="0" style="stop-color:#69B045"/>
				<stop  offset="1" style="stop-color:#90C73E"/>
			</linearGradient>
			<path fill="url(#SVGID_7_)" d="M41.709,18.224c-0.145-1.655-1.715-1.985-2.807-1.985h-8.219c-1.559,0-2.834-1.275-2.834-2.836
				V3.162c0-1.559-1.275-2.311-2.834-2.311H3.686c-1.559,0-2.834,1.275-2.834,2.834v14.538H41.709z"/>
		</g>
	</g>
	<g>
		<linearGradient id="SVGID_8_" gradientUnits="userSpaceOnUse" x1="7.6372" y1="13.6719" x2="7.6372" y2="5.4648">
			<stop  offset="0" style="stop-color:#E0E0E0"/>
			<stop  offset="0.288" style="stop-color:#F0F0F0"/>
			<stop  offset="0.6289" style="stop-color:#FBFBFB"/>
			<stop  offset="1" style="stop-color:#FFFFFF"/>
		</linearGradient>
		<path fill="url(#SVGID_8_)" d="M6.636,9.447L4.908,6.862c-0.109-0.165-0.188-0.341-0.188-0.55c0-0.474,0.386-0.848,0.902-0.848
			c0.43,0,0.639,0.253,0.748,0.44l1.31,2.255l1.397-2.255c0.188-0.297,0.341-0.44,0.736-0.44c0.441,0,0.869,0.242,0.869,0.814
			c0,0.154-0.076,0.363-0.164,0.484L8.682,9.447l1.793,2.696c0.188,0.285,0.298,0.429,0.298,0.638c0,0.583-0.419,0.891-0.925,0.891
			c-0.297,0-0.55-0.065-0.759-0.418l-1.452-2.431L6.074,13.32c-0.154,0.253-0.429,0.352-0.703,0.352c-0.529,0-0.869-0.33-0.869-0.77
			c0-0.188,0.032-0.385,0.242-0.693L6.636,9.447z"/>
		<linearGradient id="SVGID_9_" gradientUnits="userSpaceOnUse" x1="14.6055" y1="13.5293" x2="14.6055" y2="5.4648">
			<stop  offset="0" style="stop-color:#E0E0E0"/>
			<stop  offset="0.288" style="stop-color:#F0F0F0"/>
			<stop  offset="0.6289" style="stop-color:#FBFBFB"/>
			<stop  offset="1" style="stop-color:#FFFFFF"/>
		</linearGradient>
		<path fill="url(#SVGID_9_)" d="M11.729,6.367c0-0.539,0.352-0.902,0.902-0.902c0.55,0,0.901,0.363,0.901,0.902v5.644h3.015
			c0.518,0,0.936,0.265,0.936,0.76s-0.418,0.759-0.936,0.759h-3.763c-0.638,0-1.056-0.253-1.056-1.056V6.367z"/>
		<linearGradient id="SVGID_10_" gradientUnits="userSpaceOnUse" x1="21.3823" y1="13.7168" x2="21.3823" y2="5.4209">
			<stop  offset="0" style="stop-color:#E0E0E0"/>
			<stop  offset="0.288" style="stop-color:#F0F0F0"/>
			<stop  offset="0.6289" style="stop-color:#FBFBFB"/>
			<stop  offset="1" style="stop-color:#FFFFFF"/>
		</linearGradient>
		<path fill="url(#SVGID_10_)" d="M22.598,8.941c1.649,0.374,2.068,1.354,2.068,2.277c0,1.431-1.079,2.498-3.258,2.498
			c-2.287,0-3.311-1.145-3.311-2.003c0-0.439,0.318-0.748,0.759-0.748c0.979,0,0.726,1.431,2.552,1.431
			c0.936,0,1.453-0.518,1.453-1.046c0-0.318-0.154-0.671-0.771-0.825l-2.035-0.517c-1.64-0.418-1.937-1.32-1.937-2.167
			c0-1.761,1.629-2.421,3.158-2.421c1.408,0,3.068,0.792,3.068,1.849c0,0.451-0.385,0.715-0.824,0.715
			c-0.836,0-0.683-1.177-2.365-1.177c-0.836,0-1.299,0.385-1.299,0.935c0,0.551,0.66,0.727,1.232,0.858L22.598,8.941z"/>
	</g>
</g>
</svg>
