<?xml version="1.0" encoding="utf-8"?>
<!-- Generator: Adobe Illustrator 16.0.3, SVG Export Plug-In . SVG Version: 6.00 Build 0)  -->
<!DOCTYPE svg PUBLIC "-//W3C//DTD SVG 1.1//EN" "http://www.w3.org/Graphics/SVG/1.1/DTD/svg11.dtd">
<svg version="1.1" id="Layer_1" xmlns="http://www.w3.org/2000/svg" xmlns:xlink="http://www.w3.org/1999/xlink" x="0px" y="0px"
	 width="43px" height="51px" viewBox="0 0 43 51" enable-background="new 0 0 43 51" xml:space="preserve">
<g>
	<g>
		<linearGradient id="SVGID_1_" gradientUnits="userSpaceOnUse" x1="21.2939" y1="50.7656" x2="21.2939" y2="0">
			<stop  offset="0" style="stop-color:#CCCCCC"/>
			<stop  offset="0.3187" style="stop-color:#C7C7C7"/>
			<stop  offset="1" style="stop-color:#BFBFBF"/>
		</linearGradient>
		<path fill="url(#SVGID_1_)" d="M3.401,50.766C1.53,50.766,0,49.234,0,47.363V3.402C0,1.531,1.53,0,3.401,0c0,0,14.453,0,20.763,0
			c2.458,0,3.122,0.49,4.446,1.568c1.779,1.451,3.999,3.809,6.208,5.984c3.728,3.672,7.77,7.324,7.77,10.871
			c0,7.213,0,28.939,0,28.939c-0.001,1.871-1.531,3.402-3.402,3.402H3.401z"/>
		<linearGradient id="SVGID_2_" gradientUnits="userSpaceOnUse" x1="21.2935" y1="49.9141" x2="21.2935" y2="0.8516">
			<stop  offset="0" style="stop-color:#FFFFFF"/>
			<stop  offset="0.3735" style="stop-color:#F8F8F8"/>
			<stop  offset="0.9283" style="stop-color:#E4E4E4"/>
			<stop  offset="1" style="stop-color:#E0E0E0"/>
		</linearGradient>
		<path fill="url(#SVGID_2_)" d="M38.902,16.238h-8.219c-1.559,0-2.834-1.275-2.834-2.836V3.162c0-1.559-1.275-2.311-2.835-2.311
			H3.685c-1.559,0-2.834,1.275-2.834,2.834V47.08c0,1.559,1.275,2.834,2.834,2.834h35.218c1.559,0,2.834-1.275,2.834-2.834V18.459
			C41.736,16.584,40.047,16.238,38.902,16.238z"/>
		<g>
			<linearGradient id="SVGID_3_" gradientUnits="userSpaceOnUse" x1="21.2871" y1="18.2236" x2="21.2871" y2="0">
				<stop  offset="0" style="stop-color:#2179B5"/>
				<stop  offset="1" style="stop-color:#4394D0"/>
			</linearGradient>
			<path fill="url(#SVGID_3_)" d="M42.574,18.224c-0.148-3.484-4.098-7.068-7.756-10.671C32.609,5.377,30.39,3.02,28.61,1.568
				C27.286,0.49,26.622,0,24.164,0C17.854,0,3.401,0,3.401,0C1.53,0,0,1.531,0,3.402v14.821H42.574z"/>
			<g>
				<linearGradient id="SVGID_4_" gradientUnits="userSpaceOnUse" x1="28.7173" y1="13.8721" x2="34.8262" y2="7.7632">
					<stop  offset="0" style="stop-color:#C6DEF3"/>
					<stop  offset="0.8834" style="stop-color:#93BDE4"/>
					<stop  offset="1" style="stop-color:#5DA8DC"/>
				</linearGradient>
				<path fill="url(#SVGID_4_)" d="M42.574,17.973c-0.061-1.941-0.529-3.271-1.861-4.871c-2.948-3.539-8.281-8.176-11.894-11.578
					c-1.426-1.34-2.665-1.516-4.56-1.521C24.202,0,24.164,0,24.164,0c2.027,0,3.686,0.447,3.686,2.475v9.428
					c0,1.561,1.275,2.836,2.834,2.836h8.219c2.019,0,3.669,1.645,3.683,3.66c0,0.008,0.002,0.016,0.002,0.023
					c0-0.002,0-0.004,0-0.004c0,0.002,0,0.004,0,0.006C42.587,18.424,42.593,18.25,42.574,17.973z"/>
				<linearGradient id="SVGID_5_" gradientUnits="userSpaceOnUse" x1="29.0571" y1="13.5332" x2="34.8469" y2="7.7434">
					<stop  offset="0.2577" style="stop-color:#93BDE4"/>
					<stop  offset="0.4575" style="stop-color:#8FBBE3"/>
					<stop  offset="0.662" style="stop-color:#83B7E2"/>
					<stop  offset="0.868" style="stop-color:#6EAFDF"/>
					<stop  offset="1" style="stop-color:#5DA8DC"/>
				</linearGradient>
				<path fill="url(#SVGID_5_)" d="M42.574,17.973c-0.061-1.941-0.529-3.271-1.861-4.871c-2.948-3.539-8.281-8.176-11.894-11.578
					c-1.426-1.34-2.665-1.516-4.56-1.521C24.202,0,24.164,0,24.164,0c2.027,0,4.27,0.521,4.27,2.834v9.068
					c0,1.561,1.483,2.836,3.042,2.836h7.427c2.019,0,3.669,1.645,3.683,3.66c0,0.008,0.002,0.016,0.002,0.023
					c0-0.002,0-0.004,0-0.004c0,0.002,0,0.004,0,0.006C42.587,18.424,42.593,18.25,42.574,17.973z"/>
			</g>
			<linearGradient id="SVGID_6_" gradientUnits="userSpaceOnUse" x1="21.2798" y1="18.2236" x2="21.2798" y2="0.8516">
				<stop  offset="0" style="stop-color:#4394D0"/>
				<stop  offset="1" style="stop-color:#5DA8DC"/>
			</linearGradient>
			<path fill="url(#SVGID_6_)" d="M41.709,18.224c-0.146-1.655-1.715-1.985-2.807-1.985h-8.219c-1.559,0-2.834-1.275-2.834-2.836
				V3.162c0-1.559-1.275-2.311-2.835-2.311H3.685c-1.559,0-2.834,1.275-2.834,2.834v14.538H41.709z"/>
		</g>
		<g>
			<path fill="#BDD8EE" d="M4.592,34.45l3.688,2.645c0.48,0.338,0.538,0.75,0.538,1.182c0,0.6-0.264,1.014-0.63,1.014
				c-0.161,0-0.345-0.039-0.63-0.264l-4.662-3.508c-0.24-0.188-0.424-0.6-0.424-1.068s0.184-0.881,0.424-1.068l4.662-3.508
				c0.285-0.227,0.469-0.262,0.63-0.262c0.366,0,0.63,0.41,0.63,1.012c0,0.432-0.058,0.844-0.538,1.182L4.592,34.45z"/>
			<path fill="#BDD8EE" d="M37.995,34.45l-3.688-2.645c-0.48-0.338-0.537-0.75-0.537-1.182c0-0.602,0.263-1.012,0.629-1.012
				c0.16,0,0.344,0.035,0.631,0.262l4.661,3.508c0.241,0.188,0.424,0.6,0.424,1.068s-0.183,0.881-0.424,1.068l-4.661,3.508
				c-0.287,0.225-0.471,0.264-0.631,0.264c-0.366,0-0.629-0.414-0.629-1.014c0-0.432,0.057-0.844,0.537-1.182L37.995,34.45z"/>
		</g>
		<g>
			<g>
				<radialGradient id="SVGID_7_" cx="21.1147" cy="44.5098" r="19.86" gradientUnits="userSpaceOnUse">
					<stop  offset="0.0798" style="stop-color:#73BBE7"/>
					<stop  offset="0.7308" style="stop-color:#4586C6"/>
				</radialGradient>
				<path fill="url(#SVGID_7_)" d="M21.296,23.819c-5.872,0-10.632,4.759-10.632,10.633c0,5.868,4.76,10.63,10.632,10.63
					c5.868,0,10.628-4.762,10.628-10.63C31.924,28.578,27.164,23.819,21.296,23.819z"/>
				<radialGradient id="SVGID_8_" cx="21.333" cy="42.2627" r="16.5828" gradientUnits="userSpaceOnUse">
					<stop  offset="0.0798" style="stop-color:#99CCEE"/>
					<stop  offset="0.7308" style="stop-color:#6EACDE"/>
				</radialGradient>
				<path fill="url(#SVGID_8_)" d="M23.336,36.928c-0.3-0.471-1.109-0.466-1.573-0.66c-0.405-0.172-0.64-0.552-1.011-0.774
					c-0.445-0.266-0.9-0.447-1.328-0.753c-0.442-0.317-0.98-0.564-1.521-0.336c-0.358,0.151-0.908,0.651-1.271,0.197
					c-0.14-0.174-0.027-0.383-0.115-0.561c-0.09-0.181-0.459-0.137-0.516-0.291c-0.071-0.191,0.356-0.328,0.341-0.38
					c-0.153-0.531-0.806,0.025-1.116-0.009c-0.308-0.033-0.596-0.446-0.604-0.754c-0.021-0.866,1.168-1.271,1.844-1.046
					c0.437,0.144,0.534,0.454,0.41,0.858c0.398,0.023,0.625-0.259,0.717-0.632c0.121-0.493,0.276-0.698,0.654-1.08
					c-0.006,0.015-0.023,0.028-0.027,0.042c0,0.007,0.056-0.029,0.058-0.027c-0.017,0.021-0.048,0.035-0.067,0.057
					c0.196-0.172,0.424-0.313,0.604-0.521c0.193-0.225,0.299-0.463,0.585-0.606c0.314-0.158,1.346,0.041,1.203-0.647
					c-0.098-0.013-0.152-0.057-0.207-0.131c0.25-0.269,0.826-0.01,0.896,0.317c0.281,0.018,0.475-0.264,0.468-0.528
					c-0.009-0.318-0.292-0.419-0.528-0.582c-0.311-0.215-0.689-0.867-1.098-0.797c-0.65,0.111-0.893,1.098-1.645,0.853
					c-0.525-0.17-0.793-0.812-0.131-1.027c0.336-0.11,1.066-0.162,0.828-0.729c-0.278-0.663-0.909,0.165-1.288,0.236
					c-0.333,0.063-0.737,0.056-1.073,0.042c-0.332-0.015-0.377-0.047-0.501-0.296c-0.048-0.095-0.098-0.195-0.147-0.294
					c0.153-0.059,0.377-0.053,0.494-0.036c0.037,0.337,0.469,0.378,0.75,0.334c0.151-0.021,0.379-0.097,0.309-0.301
					c-0.062-0.188-0.247-0.089-0.369-0.153c-0.316-0.171-0.019-0.164-0.022-0.405c0-0.073-0.04-0.118-0.093-0.156
					c-2.355,1.039-4.232,2.957-5.221,5.339c0.028,0.077,0.051,0.152,0.09,0.217c0.186,0.313,0.448,0.584,0.726,0.815
					c0.194,0.162,0.286,0.277,0.323,0.553c0.049,0.345,0.023,0.302,0.394,0.322c0.216,0.682,0.239,1.076,1.062,1.206
					c0.344,0.054,0.728,0.025,1.037,0.209c0.185,0.11,0.351,0.259,0.536,0.372c0.214,0.129,0.328,0.271,0.495,0.451
					c0.172,0.188,0.482,0.288,0.626,0.48c0.294,0.396-0.368,0.936-0.423,1.349c-0.098,0.751,0.777,1.321,1.281,1.729
					c0.661,0.538,0.475,1.263,0.377,2.029c-0.154,1.209-0.097,2.637,1.02,3.362c0.454,0.295,0.908,0.26,0.67-0.366
					c-0.133-0.354-0.324-1.216-0.121-1.561c0.061-0.104,0.191-0.182,0.293-0.236c-0.035,0.036-0.066,0.081-0.107,0.119
					c0.068-0.032,0.119-0.061,0.18-0.101c-0.002-0.007-0.005-0.009-0.01-0.014c0.353-0.342,0.938-0.65,1.092-1.14
					c0.061-0.196,0.011-0.412,0.121-0.593c0.146-0.243,0.471-0.339,0.705-0.471c0.237-0.133,0.46-0.262,0.477-0.556
					c0.016-0.239-0.153-0.453-0.113-0.698C22.826,37.721,23.646,37.414,23.336,36.928z M16.758,32.82h0.027
					c0.074,0.279,0.094,0.336,0.441,0.312c0.187-0.014,0.539-0.07,0.516-0.336C17.549,32.719,16.918,32.69,16.758,32.82z
					 M30.718,31.137c-0.067,0.015-0.135,0.032-0.204,0.052c-0.523,0.151-0.707,0.127-1.053-0.283
					c-0.243-0.286-0.426-0.205-0.737-0.041c-0.364,0.193-0.655,0.323-1.068,0.362c-0.36,0.033-0.472,0.136-0.667,0.451
					c-0.352,0.565-1.068,1.051-1.191,1.729c-0.094,0.512,0.175,1.015,0.438,1.435c0.458,0.733,0.923,1.03,1.742,0.642
					c0.762-0.361,1.375-0.388,1.409,0.567c0.026,0.67,0.919,0.762,0.908,1.373c-0.014,0.718-0.777,1.229-0.212,1.887
					c0.778-1.422,1.22-3.056,1.22-4.793C31.303,33.331,31.096,32.194,30.718,31.137z M20.504,41.626
					c-0.008,0.006-0.016,0.009-0.023,0.015c0,0.004,0,0.005-0.002,0.011C20.48,41.649,20.496,41.627,20.504,41.626z M27.908,28.812
					c0.039,0.133-0.148,0.277-0.091,0.433c0.071,0.191,0.465,0.223,0.294,0.498c-0.123,0.194-0.637,0.151-0.84,0.335
					c-0.682,0.617,0.542,0.672,0.93,0.48c0.363-0.178,0.146-0.48,0.39-0.684c0.306-0.253,0.822-0.131,1.077,0.121
					c0.246,0.241,0.469,0.38,0.782,0.478c-0.521-1.177-1.262-2.234-2.168-3.122c-0.039,0.08-0.083,0.156-0.155,0.21
					c-0.215,0.161-0.553,0.122-0.798,0.258c-0.233,0.132-0.595,0.603-0.374,0.874C27.199,28.992,27.797,28.412,27.908,28.812z
					 M26.354,25.951c0.012-0.021,0.016-0.041,0.024-0.059c-1.49-0.884-3.233-1.393-5.093-1.393c-0.444,0-0.881,0.031-1.309,0.088
					c0.115,0.069,0.213,0.161,0.249,0.32c0.108,0.483-0.882,0.785-0.271,1.234c0.309,0.227,0.422,0.21,0.586,0.57
					c0.098,0.214,0.234,0.573,0.518,0.583c0.289,0.009,0.454-0.342,0.454-0.587c0-0.33-0.216-0.54-0.499-0.661
					c-0.191-0.082-0.357-0.05-0.381-0.283c-0.018-0.184,0.223-0.529,0.387-0.598c0.245-0.103,0.4,0.087,0.592,0.213
					c0.219,0.147,0.353,0.178,0.613,0.158c0.51-0.039,0.982,0.107,0.814,0.731c-0.086,0.312-0.485,1.333,0.27,1.157
					c0.291-0.067,0.491-0.409,0.715-0.581c0.261-0.204,0.539-0.27,0.858-0.319C25.33,26.459,26.08,26.372,26.354,25.951z"/>
			</g>
			<g>
				<radialGradient id="SVGID_9_" cx="17.2559" cy="30.4688" r="0.6035" gradientUnits="userSpaceOnUse">
					<stop  offset="0.2638" style="stop-color:#FFFFFF"/>
					<stop  offset="1" style="stop-color:#A9CDEC"/>
				</radialGradient>
				<circle fill="url(#SVGID_9_)" cx="17.256" cy="30.468" r="0.604"/>
				<radialGradient id="SVGID_10_" cx="20.9004" cy="36.6387" r="0.604" gradientUnits="userSpaceOnUse">
					<stop  offset="0.2638" style="stop-color:#FFFFFF"/>
					<stop  offset="1" style="stop-color:#A9CDEC"/>
				</radialGradient>
				<circle fill="url(#SVGID_10_)" cx="20.9" cy="36.64" r="0.604"/>
				<radialGradient id="SVGID_11_" cx="28.3643" cy="31.5225" r="0.604" gradientUnits="userSpaceOnUse">
					<stop  offset="0.2638" style="stop-color:#FFFFFF"/>
					<stop  offset="1" style="stop-color:#A9CDEC"/>
				</radialGradient>
				<circle fill="url(#SVGID_11_)" cx="28.364" cy="31.522" r="0.604"/>
				<radialGradient id="SVGID_12_" cx="27.0508" cy="28.5176" r="0.604" gradientUnits="userSpaceOnUse">
					<stop  offset="0.2638" style="stop-color:#FFFFFF"/>
					<stop  offset="1" style="stop-color:#A9CDEC"/>
				</radialGradient>
				<circle fill="url(#SVGID_12_)" cx="27.051" cy="28.518" r="0.604"/>
				<radialGradient id="SVGID_13_" cx="20.1968" cy="28.2832" r="0.6038" gradientUnits="userSpaceOnUse">
					<stop  offset="0.2638" style="stop-color:#FFFFFF"/>
					<stop  offset="1" style="stop-color:#A9CDEC"/>
				</radialGradient>
				<circle fill="url(#SVGID_13_)" cx="20.197" cy="28.283" r="0.604"/>
				<radialGradient id="SVGID_14_" cx="13.1548" cy="32.2734" r="0.6042" gradientUnits="userSpaceOnUse">
					<stop  offset="0.2638" style="stop-color:#FFFFFF"/>
					<stop  offset="1" style="stop-color:#A9CDEC"/>
				</radialGradient>
				<circle fill="url(#SVGID_14_)" cx="13.155" cy="32.273" r="0.604"/>
				<radialGradient id="SVGID_15_" cx="18.6479" cy="40.958" r="0.6038" gradientUnits="userSpaceOnUse">
					<stop  offset="0.2638" style="stop-color:#FFFFFF"/>
					<stop  offset="1" style="stop-color:#A9CDEC"/>
				</radialGradient>
				<circle fill="url(#SVGID_15_)" cx="18.648" cy="40.958" r="0.604"/>
				<radialGradient id="SVGID_16_" cx="29.1626" cy="35.1836" r="0.6042" gradientUnits="userSpaceOnUse">
					<stop  offset="0.2638" style="stop-color:#FFFFFF"/>
					<stop  offset="1" style="stop-color:#A9CDEC"/>
				</radialGradient>
				<circle fill="url(#SVGID_16_)" cx="29.163" cy="35.185" r="0.604"/>
				<radialGradient id="SVGID_17_" cx="17.9443" cy="34.9033" r="0.604" gradientUnits="userSpaceOnUse">
					<stop  offset="0.2638" style="stop-color:#FFFFFF"/>
					<stop  offset="1" style="stop-color:#A9CDEC"/>
				</radialGradient>
				<circle fill="url(#SVGID_17_)" cx="17.944" cy="34.903" r="0.604"/>
				<radialGradient id="SVGID_18_" cx="14.7988" cy="29.458" r="0.6035" gradientUnits="userSpaceOnUse">
					<stop  offset="0.2638" style="stop-color:#FFFFFF"/>
					<stop  offset="1" style="stop-color:#A9CDEC"/>
				</radialGradient>
				<circle fill="url(#SVGID_18_)" cx="14.799" cy="29.458" r="0.604"/>
				<radialGradient id="SVGID_19_" cx="25.6416" cy="30.6777" r="0.6045" gradientUnits="userSpaceOnUse">
					<stop  offset="0.2638" style="stop-color:#FFFFFF"/>
					<stop  offset="1" style="stop-color:#A9CDEC"/>
				</radialGradient>
				<circle fill="url(#SVGID_19_)" cx="25.642" cy="30.678" r="0.604"/>
			</g>
		</g>
	</g>
</g>
<g>
	<linearGradient id="SVGID_20_" gradientUnits="userSpaceOnUse" x1="6.6841" y1="13.4463" x2="6.6841" y2="5.082">
		<stop  offset="0" style="stop-color:#E0E0E0"/>
		<stop  offset="0.288" style="stop-color:#F0F0F0"/>
		<stop  offset="0.6289" style="stop-color:#FBFBFB"/>
		<stop  offset="1" style="stop-color:#FFFFFF"/>
	</linearGradient>
	<path fill="url(#SVGID_20_)" d="M3.884,11.736l1.81-2.643L4.17,6.742C4.027,6.515,3.919,6.318,3.848,6.155
		C3.776,5.991,3.74,5.834,3.74,5.684c0-0.154,0.069-0.293,0.207-0.417c0.138-0.123,0.306-0.185,0.505-0.185
		c0.228,0,0.405,0.066,0.532,0.201s0.303,0.384,0.527,0.748l1.214,1.964l1.297-1.964C8.128,5.865,8.22,5.724,8.295,5.605
		C8.37,5.488,8.443,5.391,8.513,5.313c0.07-0.077,0.148-0.136,0.235-0.174s0.187-0.058,0.301-0.058c0.206,0,0.374,0.062,0.505,0.185
		c0.13,0.124,0.196,0.27,0.196,0.438c0,0.246-0.142,0.582-0.425,1.004L7.729,9.094l1.716,2.643c0.155,0.231,0.267,0.424,0.337,0.576
		c0.07,0.152,0.104,0.297,0.104,0.434c0,0.129-0.031,0.246-0.094,0.354c-0.062,0.105-0.151,0.19-0.265,0.253
		c-0.114,0.062-0.243,0.094-0.386,0.094c-0.155,0-0.285-0.032-0.392-0.097c-0.106-0.064-0.193-0.145-0.259-0.24
		c-0.066-0.096-0.189-0.281-0.37-0.557l-1.423-2.24l-1.512,2.307c-0.118,0.184-0.202,0.312-0.251,0.386
		c-0.049,0.073-0.109,0.146-0.179,0.216c-0.07,0.069-0.152,0.125-0.248,0.165s-0.208,0.061-0.337,0.061
		c-0.198,0-0.363-0.061-0.494-0.182c-0.13-0.122-0.196-0.298-0.196-0.53C3.481,12.463,3.615,12.13,3.884,11.736z"/>
	<linearGradient id="SVGID_21_" gradientUnits="userSpaceOnUse" x1="14.3838" y1="13.4463" x2="14.3838" y2="5.2197">
		<stop  offset="0" style="stop-color:#E0E0E0"/>
		<stop  offset="0.288" style="stop-color:#F0F0F0"/>
		<stop  offset="0.6289" style="stop-color:#FBFBFB"/>
		<stop  offset="1" style="stop-color:#FFFFFF"/>
	</linearGradient>
	<path fill="url(#SVGID_21_)" d="M13.286,12.09l-1.297-5.154v5.584c0,0.309-0.069,0.541-0.207,0.695
		c-0.138,0.154-0.321,0.231-0.549,0.231c-0.221,0-0.401-0.076-0.541-0.229c-0.14-0.153-0.209-0.386-0.209-0.698v-6.4
		c0-0.354,0.092-0.592,0.276-0.715s0.432-0.185,0.745-0.185h0.507c0.305,0,0.527,0.028,0.665,0.083
		c0.138,0.055,0.24,0.154,0.306,0.298s0.142,0.377,0.226,0.7l1.175,4.432l1.175-4.432c0.084-0.323,0.16-0.557,0.226-0.7
		c0.066-0.144,0.168-0.243,0.307-0.298c0.138-0.055,0.359-0.083,0.665-0.083h0.508c0.312,0,0.561,0.062,0.745,0.185
		c0.184,0.123,0.276,0.361,0.276,0.715v6.4c0,0.309-0.069,0.541-0.207,0.695c-0.138,0.154-0.323,0.231-0.555,0.231
		c-0.217,0-0.396-0.077-0.535-0.231c-0.14-0.154-0.21-0.387-0.21-0.695V6.936l-1.296,5.154c-0.084,0.334-0.154,0.58-0.207,0.736
		s-0.152,0.299-0.295,0.428c-0.144,0.129-0.342,0.192-0.596,0.192c-0.191,0-0.353-0.041-0.485-0.124
		c-0.132-0.082-0.235-0.188-0.309-0.317c-0.074-0.128-0.131-0.271-0.174-0.427S13.33,12.258,13.286,12.09z"/>
	<linearGradient id="SVGID_22_" gradientUnits="userSpaceOnUse" x1="22.3735" y1="13.3086" x2="22.3735" y2="5.082">
		<stop  offset="0" style="stop-color:#E0E0E0"/>
		<stop  offset="0.288" style="stop-color:#F0F0F0"/>
		<stop  offset="0.6289" style="stop-color:#FBFBFB"/>
		<stop  offset="1" style="stop-color:#FFFFFF"/>
	</linearGradient>
	<path fill="url(#SVGID_22_)" d="M21.121,6.075v5.888h3.322c0.265,0,0.468,0.064,0.61,0.192c0.141,0.129,0.212,0.29,0.212,0.485
		c0,0.199-0.07,0.359-0.21,0.482c-0.14,0.124-0.344,0.186-0.612,0.186h-3.956c-0.357,0-0.613-0.079-0.77-0.237
		c-0.156-0.158-0.234-0.413-0.234-0.767V6.075c0-0.331,0.075-0.579,0.224-0.745s0.345-0.248,0.587-0.248
		c0.247,0,0.446,0.082,0.599,0.246C21.045,5.491,21.121,5.74,21.121,6.075z"/>
</g>
</svg>
